{
classes = (
{
automatic = 1;
code = "A B C D E F G H I J K L M N O P Q R S T U V W X Y Z";
name = Uppercase;
}
);
copyright = "Copyright \U00A9 2014 by Kyle Wayne Benson. All rights reserved.";
date = "2015-01-03 03:54:09 +0000";
designer = "Kyle Wayne Benson";
designerURL = kylewaynebenson.com/notch;
familyName = "Notch Sans";
featurePrefixes = (
{
automatic = 1;
code = "languagesystem DFLT dflt;\012languagesystem latn dflt;\012";
name = Languagesystems;
}
);
features = (
{
automatic = 1;
code = "feature lnum;\012feature onum;\012";
name = aalt;
},
{
automatic = 1;
code = "sub zero.osf by zero;\012sub one.osf by one;\012sub two.osf by two;\012sub four.osf by four;\012sub five.osf by five;\012sub six.osf by six;\012sub seven.osf by seven;\012sub eight.osf by eight;\012sub nine.osf by nine;\012";
name = lnum;
},
{
automatic = 1;
code = "sub zero by zero.osf;\012sub one by one.osf;\012sub two by two.osf;\012sub four by four.osf;\012sub five by five.osf;\012sub six by six.osf;\012sub seven by seven.osf;\012sub eight by eight.osf;\012sub nine by nine.osf;\012";
name = onum;
},
{
automatic = 1;
code = "pos @Uppercase <5 0 10 0>;\012";
name = cpsp;
}
);
fontMaster = (
{
ascender = 800;
capHeight = 700;
descender = "-200";
horizontalStems = (
90
);
id = "D6DE3449-A573-450B-B2C8-FE4A922B890A";
verticalStems = (
115
);
xHeight = 500;
},
{
ascender = 800;
capHeight = 700;
descender = "-200";
horizontalStems = (
135
);
id = "36D4513E-7F15-4625-822B-04E8DB781DDB";
userData = {
GSOffsetHorizontal = 30;
GSOffsetVertical = 20;
};
verticalStems = (
175
);
weight = Bold;
weightValue = 900;
xHeight = 500;
}
);
glyphs = (
{
glyphname = A;
lastChange = "2015-01-09 05:47:25 +0000";
layers = (
{
anchors = (
{
name = ogonek;
position = "{391, 0}";
},
{
name = top;
position = "{203, 700}";
}
);
layerId = "D6DE3449-A573-450B-B2C8-FE4A922B890A";
rightMetricsKey = "=|";
name = Regular;
paths = (
{
closed = 1;
nodes = (
"155 700 LINE",
"169 649 LINE",
"209 597 LINE",
"229 382 LINE",
"276 0 LINE",
"391 0 LINE",
"292 700 LINE"
);
},
{
closed = 1;
nodes = (
"120 157 LINE",
"296 157 LINE",
"286 272 LINE",
"231 232 LINE",
"173 232 LINE",
"130 272 LINE"
);
},
{
closed = 1;
nodes = (
"112 700 LINE",
"14 0 LINE",
"129 0 LINE",
"175 382 LINE",
"195 597 LINE",
"233 649 LINE",
"249 700 LINE"
);
}
);
width = 405;
},
{
anchors = (
{
name = ogonek;
position = "{432, 0}";
},
{
name = top;
position = "{218, 700}";
}
);
layerId = "36D4513E-7F15-4625-822B-04E8DB781DDB";
rightMetricsKey = "=|";
name = Bold;
paths = (
{
closed = 1;
nodes = (
"134 700 LINE",
"156 624 LINE",
"224 564 LINE",
"233 380 LINE",
"259 0 LINE",
"432 0 LINE",
"341 700 LINE"
);
},
{
closed = 1;
nodes = (
"124 138 LINE",
"310 138 LINE",
"310 307 LINE",
"225 243 LINE",
"209 243 LINE",
"124 307 LINE"
);
},
{
closed = 1;
nodes = (
"95 700 LINE",
"4 0 LINE",
"176 0 LINE",
"202 380 LINE",
"210 565 LINE",
"276 624 LINE",
"300 700 LINE"
);
}
);
width = 436;
}
);
leftKerningGroup = A;
rightKerningGroup = A;
rightMetricsKey = "=|";
unicode = 0041;
},
{
glyphname = AE;
lastChange = "2015-01-02 05:42:08 +0000";
layers = (
{
anchors = (
{
name = ogonek;
position = "{355, 10}";
},
{
name = top;
position = "{198, 700}";
}
);
components = (
{
name = E;
transform = "{1, 0, 0, 1, 169, 0}";
}
);
layerId = "D6DE3449-A573-450B-B2C8-FE4A922B890A";
name = Regular;
paths = (
{
closed = 1;
nodes = (
"115 157 LINE",
"277 157 LINE",
"267 272 LINE",
"212 232 LINE",
"168 232 LINE",
"125 272 LINE"
);
},
{
closed = 1;
nodes = (
"138 700 LINE",
"9 0 LINE",
"124 0 LINE",
"185 382 LINE",
"214 591 LINE",
"252 658 LINE",
"268 700 LINE"
);
}
);
width = 509;
},
{
anchors = (
{
name = ogonek;
position = "{385, 10}";
},
{
name = top;
position = "{214, 700}";
}
);
components = (
{
name = E;
transform = "{1, 0, 0, 1, 189, 0}";
}
);
layerId = "36D4513E-7F15-4625-822B-04E8DB781DDB";
leftMetricsKey = A;
rightMetricsKey = E;
name = Bold;
paths = (
{
closed = 1;
nodes = (
"120 138 LINE",
"303 138 LINE",
"303 307 LINE",
"218 243 LINE",
"205 243 LINE",
"120 307 LINE"
);
},
{
closed = 1;
nodes = (
"101 700 LINE",
"0 0 LINE",
"172 0 LINE",
"202 380 LINE",
"216 565 LINE",
"282 624 LINE",
"306 700 LINE"
);
}
);
width = 528;
}
);
leftKerningGroup = A;
leftMetricsKey = A;
rightKerningGroup = E;
rightMetricsKey = E;
unicode = 00C6;
},
{
glyphname = B;
lastChange = "2015-01-12 05:55:03 +0000";
layers = (
{
components = (
{
name = I;
transform = "{1, 0, 0, 1, 0, 0}";
}
);
layerId = "D6DE3449-A573-450B-B2C8-FE4A922B890A";
leftMetricsKey = I;
rightMetricsKey = "=D-10";
name = Regular;
paths = (
{
closed = 1;
nodes = (
"148 700 LINE",
"148 625 LINE",
"248 625 LINE",
"277 600 LINE",
"277 443 LINE",
"248 417 LINE",
"148 417 LINE",
"148 357 LINE",
"288 357 LINE",
"392 446 LINE",
"392 611 LINE",
"288 700 LINE"
);
},
{
closed = 1;
nodes = (
"155 416 LINE",
"155 342 LINE",
"255 342 LINE",
"284 317 LINE",
"284 106 LINE",
"255 80 LINE",
"155 80 LINE",
"155 0 LINE",
"295 0 LINE",
"399 89 LINE",
"399 327 LINE",
"295 416 LINE"
);
}
);
width = 431;
},
{
components = (
{
name = I;
transform = "{1, 0, 0, 1, 0, 0}";
}
);
layerId = "36D4513E-7F15-4625-822B-04E8DB781DDB";
rightMetricsKey = "=D-5";
name = Bold;
paths = (
{
closed = 1;
nodes = (
"183 700 LINE",
"183 585 LINE",
"246 585 LINE",
"262 571 LINE",
"262 447 LINE",
"238 432 LINE",
"183 432 LINE",
"183 345 LINE",
"317 345 LINE",
"437 448 LINE",
"437 597 LINE",
"317 700 LINE"
);
},
{
closed = 1;
nodes = (
"178 431 LINE",
"178 317 LINE",
"255 317 LINE",
"271 303 LINE",
"271 135 LINE",
"255 120 LINE",
"178 120 LINE",
"178 0 LINE",
"326 0 LINE",
"446 103 LINE",
"446 328 LINE",
"326 431 LINE"
);
}
);
width = 471;
}
);
leftKerningGroup = I;
leftMetricsKey = I;
rightKerningGroup = O;
rightMetricsKey = D;
unicode = 0042;
},
{
glyphname = C;
lastChange = "2015-01-12 05:56:26 +0000";
layers = (
{
anchors = (
{
name = bottom;
position = "{209, 0}";
},
{
name = top;
position = "{230, 700}";
}
);
layerId = "D6DE3449-A573-450B-B2C8-FE4A922B890A";
leftMetricsKey = O;
rightMetricsKey = "=O*.8";
name = Regular;
paths = (
{
closed = 1;
nodes = (
"144 700 LINE",
"41 611 LINE",
"41 89 LINE",
"144 0 LINE",
"283 0 LINE",
"386 89 LINE",
"386 254 LINE",
"275 254 LINE",
"275 108 LINE",
"245 80 LINE",
"187 80 LINE",
"156 108 LINE",
"156 593 LINE",
"187 620 LINE",
"245 620 LINE",
"276 593 LINE",
"276 464 LINE",
"386 464 LINE",
"386 611 LINE",
"283 700 LINE"
);
}
);
width = 419;
},
{
anchors = (
{
name = bottom;
position = "{222, 0}";
},
{
name = top;
position = "{230, 700}";
}
);
layerId = "36D4513E-7F15-4625-822B-04E8DB781DDB";
leftMetricsKey = O;
rightMetricsKey = G;
name = Bold;
paths = (
{
closed = 1;
nodes = (
"145 700 LINE",
"30 602 LINE",
"30 99 LINE",
"145 0 LINE",
"310 0 LINE",
"418 90 LINE",
"418 259 LINE",
"257 259 LINE",
"257 129 LINE",
"243 118 LINE",
"214 118 LINE",
"201 129 LINE",
"201 573 LINE",
"215 584 LINE",
"243 584 LINE",
"256 573 LINE",
"256 449 LINE",
"418 449 LINE",
"418 610 LINE",
"309 700 LINE"
);
}
);
width = 444;
}
);
leftKerningGroup = O;
leftMetricsKey = O;
rightKerningGroup = C;
rightMetricsKey = R;
unicode = 0043;
},
{
glyphname = D;
lastChange = "2015-01-12 06:01:53 +0000";
layers = (
{
anchors = (
{
name = center;
position = "{217, 350}";
},
{
name = top;
position = "{217, 700}";
}
);
components = (
{
name = I;
transform = "{1, 0, 0, 1, 0, 0}";
}
);
layerId = "D6DE3449-A573-450B-B2C8-FE4A922B890A";
rightMetricsKey = O;
name = Regular;
paths = (
{
closed = 1;
nodes = (
"148 700 LINE",
"148 625 LINE",
"247 625 LINE",
"277 599 LINE",
"277 107 LINE",
"247 80 LINE",
"148 80 LINE",
"148 0 LINE",
"288 0 LINE",
"392 89 LINE",
"392 611 LINE",
"288 700 LINE"
);
}
);
width = 433;
},
{
anchors = (
{
name = center;
position = "{237, 350}";
},
{
name = top;
position = "{237, 700}";
}
);
components = (
{
name = I;
transform = "{1, 0, 0, 1, 0, 0}";
}
);
layerId = "36D4513E-7F15-4625-822B-04E8DB781DDB";
name = Bold;
paths = (
{
closed = 1;
nodes = (
"179 700 LINE",
"179 585 LINE",
"252 585 LINE",
"268 573 LINE",
"268 134 LINE",
"252 120 LINE",
"179 120 LINE",
"179 0 LINE",
"323 0 LINE",
"443 103 LINE",
"443 597 LINE",
"323 700 LINE"
);
}
);
width = 473;
}
);
leftKerningGroup = I;
rightKerningGroup = O;
rightMetricsKey = O;
unicode = 0044;
},
{
glyphname = E;
lastChange = "2015-01-12 06:17:22 +0000";
layers = (
{
anchors = (
{
name = bottom;
position = "{170, 0}";
},
{
name = ogonek;
position = "{306, 10}";
},
{
name = top;
position = "{193, 700}";
}
);
components = (
{
name = I;
transform = "{1, 0, 0, 1, 0, 0}";
}
);
layerId = "D6DE3449-A573-450B-B2C8-FE4A922B890A";
rightMetricsKey = "=I/2";
name = Regular;
paths = (
{
closed = 1;
nodes = (
"124 349 LINE",
"294 344 LINE",
"294 434 LINE",
"124 429 LINE"
);
},
{
closed = 1;
nodes = (
"124 615 LINE",
"165 615 LINE",
"309 609 LINE",
"303 700 LINE",
"124 700 LINE"
);
},
{
closed = 1;
nodes = (
"124 0 LINE",
"303 0 LINE",
"312 91 LINE",
"160 85 LINE",
"124 85 LINE"
);
}
);
width = 340;
},
{
anchors = (
{
name = bottom;
position = "{170, 0}";
},
{
name = ogonek;
position = "{305, 10}";
},
{
name = top;
position = "{185, 700}";
}
);
components = (
{
name = I;
transform = "{1, 0, 0, 1, 0, 0}";
}
);
layerId = "36D4513E-7F15-4625-822B-04E8DB781DDB";
leftMetricsKey = I;
rightMetricsKey = "=I/2";
name = Bold;
paths = (
{
closed = 1;
nodes = (
"134 324 LINE",
"299 317 LINE",
"299 427 LINE",
"134 421 LINE"
);
},
{
closed = 1;
nodes = (
"134 581 LINE",
"200 581 LINE",
"319 571 LINE",
"309 700 LINE",
"134 700 LINE"
);
},
{
closed = 1;
nodes = (
"134 0 LINE",
"319 0 LINE",
"329 129 LINE",
"205 119 LINE",
"134 119 LINE"
);
}
);
width = 349;
}
);
leftKerningGroup = I;
leftMetricsKey = I;
rightKerningGroup = E;
rightMetricsKey = I;
unicode = 0045;
},
{
glyphname = F;
lastChange = "2015-01-09 05:30:41 +0000";
layers = (
{
components = (
{
name = I;
transform = "{1, 0, 0, 1, 0, 0}";
}
);
layerId = "D6DE3449-A573-450B-B2C8-FE4A922B890A";
rightMetricsKey = "=I/2";
name = Regular;
paths = (
{
closed = 1;
nodes = (
"124 331 LINE",
"294 326 LINE",
"294 416 LINE",
"124 411 LINE"
);
},
{
closed = 1;
nodes = (
"124 617 LINE",
"215 617 LINE",
"308 617 LINE",
"303 700 LINE",
"124 700 LINE"
);
}
);
width = 336;
},
{
components = (
{
name = I;
transform = "{1, 0, 0, 1, 0, 0}";
}
);
layerId = "36D4513E-7F15-4625-822B-04E8DB781DDB";
leftMetricsKey = I;
rightMetricsKey = "=I/2";
name = Bold;
paths = (
{
closed = 1;
nodes = (
"124 298 LINE",
"289 291 LINE",
"289 401 LINE",
"124 395 LINE"
);
},
{
closed = 1;
nodes = (
"124 585 LINE",
"200 585 LINE",
"309 585 LINE",
"299 700 LINE",
"124 700 LINE"
);
}
);
width = 329;
}
);
leftKerningGroup = I;
leftMetricsKey = I;
rightKerningGroup = F;
rightMetricsKey = V;
unicode = 0046;
},
{
glyphname = G;
lastChange = "2015-01-12 06:01:06 +0000";
layers = (
{
anchors = (
{
name = bottom;
position = "{212, 0}";
},
{
name = top;
position = "{212, 700}";
}
);
layerId = "D6DE3449-A573-450B-B2C8-FE4A922B890A";
leftMetricsKey = O;
rightMetricsKey = "=O*.9";
name = Regular;
paths = (
{
closed = 1;
nodes = (
"368 384 LINE",
"228 384 LINE",
"228 374 LINE",
"271 318 LINE",
"271 107 LINE",
"242 80 LINE",
"185 80 LINE",
"156 107 LINE",
"156 599 LINE",
"185 625 LINE",
"245 625 LINE",
"274 599 LINE",
"274 483 LINE",
"381 483 LINE",
"381 618 LINE",
"285 700 LINE",
"144 700 LINE",
"41 611 LINE",
"41 89 LINE",
"144 0 LINE",
"278 0 LINE",
"379 89 LINE",
"379 368 LINE"
);
}
);
width = 418;
},
{
anchors = (
{
name = bottom;
position = "{232, 0}";
},
{
name = top;
position = "{232, 700}";
}
);
layerId = "36D4513E-7F15-4625-822B-04E8DB781DDB";
leftMetricsKey = O;
rightMetricsKey = "=O-4";
name = Bold;
paths = (
{
closed = 1;
nodes = (
"415 395 LINE",
"226 395 LINE",
"226 361 LINE",
"266 305 LINE",
"266 134 LINE",
"250 120 LINE",
"220 120 LINE",
"205 135 LINE",
"205 571 LINE",
"220 585 LINE",
"255 585 LINE",
"268 571 LINE",
"268 454 LINE",
"438 454 LINE",
"438 602 LINE",
"322 700 LINE",
"149 700 LINE",
"30 602 LINE",
"30 101 LINE",
"149 0 LINE",
"322 0 LINE",
"437 101 LINE",
"437 363 LINE"
);
}
);
width = 464;
}
);
leftKerningGroup = O;
leftMetricsKey = O;
rightKerningGroup = O;
rightMetricsKey = "=O*1.2";
unicode = 0047;
},
{
glyphname = H;
lastChange = "2015-01-02 05:38:53 +0000";
layers = (
{
anchors = (
{
name = center;
position = "{220, 350}";
},
{
name = top;
position = "{220, 700}";
}
);
components = (
{
name = I;
transform = "{1, 0, 0, 1, 0, 0}";
},
{
name = I;
transform = "{1, 0, 0, 1, 215, 0}";
}
);
layerId = "D6DE3449-A573-450B-B2C8-FE4A922B890A";
leftMetricsKey = I;
rightMetricsKey = I;
name = Regular;
paths = (
{
closed = 1;
nodes = (
"124 337 LINE",
"309 337 LINE",
"309 427 LINE",
"124 427 LINE"
);
}
);
width = 440;
},
{
anchors = (
{
name = center;
position = "{239, 350}";
},
{
name = top;
position = "{239, 700}";
}
);
components = (
{
name = I;
transform = "{1, 0, 0, 1, 0, 0}";
},
{
name = I;
transform = "{1, 0, 0, 1, 227, 0}";
}
);
layerId = "36D4513E-7F15-4625-822B-04E8DB781DDB";
leftMetricsKey = I;
rightMetricsKey = I;
name = Bold;
paths = (
{
closed = 1;
nodes = (
"124 312 LINE",
"309 312 LINE",
"309 427 LINE",
"124 427 LINE"
);
}
);
width = 478;
}
);
leftKerningGroup = I;
leftMetricsKey = I;
rightKerningGroup = I;
rightMetricsKey = I;
unicode = 0048;
},
{
glyphname = I;
lastChange = "2015-01-02 05:38:53 +0000";
layers = (
{
anchors = (
{
name = ogonek;
position = "{202, 10}";
},
{
name = top;
position = "{113, 700}";
}
);
layerId = "D6DE3449-A573-450B-B2C8-FE4A922B890A";
rightMetricsKey = "=|";
name = Regular;
paths = (
{
closed = 1;
nodes = (
"55 700 LINE",
"55 0 LINE",
"170 0 LINE",
"170 700 LINE"
);
}
);
width = 225;
},
{
anchors = (
{
name = ogonek;
position = "{226, 10}";
},
{
name = top;
position = "{126, 700}";
}
);
layerId = "36D4513E-7F15-4625-822B-04E8DB781DDB";
rightMetricsKey = "=|";
name = Bold;
paths = (
{
closed = 1;
nodes = (
"40 700 LINE",
"40 0 LINE",
"211 0 LINE",
"211 700 LINE"
);
}
);
width = 251;
}
);
leftKerningGroup = I;
rightKerningGroup = I;
rightMetricsKey = "=|";
unicode = 0049;
},
{
glyphname = J;
lastChange = "2015-01-12 06:03:52 +0000";
layers = (
{
anchors = (
{
name = top;
position = "{193, 700}";
}
);
layerId = "D6DE3449-A573-450B-B2C8-FE4A922B890A";
leftMetricsKey = T;
rightMetricsKey = U;
name = Regular;
paths = (
{
closed = 1;
nodes = (
"219 700 LINE",
"219 106 LINE",
"190 81 LINE",
"139 81 LINE",
"110 106 LINE",
"110 210 LINE",
"3 210 LINE",
"3 80 LINE",
"109 0 LINE",
"231 0 LINE",
"334 89 LINE",
"334 700 LINE"
);
}
);
width = 380;
},
{
anchors = (
{
name = top;
position = "{215, 700}";
}
);
layerId = "36D4513E-7F15-4625-822B-04E8DB781DDB";
leftMetricsKey = T;
name = Bold;
paths = (
{
closed = 1;
nodes = (
"221 700 LINE",
"221 133 LINE",
"206 118 LINE",
"184 118 LINE",
"168 133 LINE",
"168 239 LINE",
"5 239 LINE",
"5 89 LINE",
"113 0 LINE",
"277 0 LINE",
"392 99 LINE",
"392 700 LINE"
);
}
);
width = 425;
}
);
leftKerningGroup = J;
leftMetricsKey = "=|C*.6";
rightKerningGroup = U;
rightMetricsKey = U;
unicode = 004A;
},
{
glyphname = K;
lastChange = "2015-01-09 05:33:08 +0000";
layers = (
{
anchors = (
{
name = bottom;
position = "{202, 0}";
},
{
name = top;
position = "{202, 700}";
}
);
components = (
{
name = I;
transform = "{1, 0, 0, 1, 0, 0}";
}
);
layerId = "D6DE3449-A573-450B-B2C8-FE4A922B890A";
name = Regular;
paths = (
{
closed = 1;
nodes = (
"267 700 LINE",
"188 408 LINE",
"164 389 LINE",
"164 271 LINE",
"284 373 LINE",
"386 700 LINE"
);
},
{
closed = 1;
nodes = (
"186 359 LINE",
"279 0 LINE",
"402 0 LINE",
"271 427 LINE"
);
}
);
width = 404;
},
{
anchors = (
{
name = bottom;
position = "{236, 0}";
},
{
name = top;
position = "{236, 700}";
}
);
components = (
{
name = I;
transform = "{1, 0, 0, 1, 0, 0}";
}
);
layerId = "36D4513E-7F15-4625-822B-04E8DB781DDB";
leftMetricsKey = I;
name = Bold;
paths = (
{
closed = 1;
nodes = (
"275 700 LINE",
"226 423 LINE",
"206 403 LINE",
"206 211 LINE",
"365 359 LINE",
"458 700 LINE"
);
},
{
closed = 1;
nodes = (
"231 297 LINE",
"282 0 LINE",
"469 0 LINE",
"366 397 LINE"
);
}
);
width = 472;
}
);
leftKerningGroup = I;
leftMetricsKey = I;
rightKerningGroup = K;
unicode = 004B;
},
{
glyphname = L;
lastChange = "2015-01-12 06:17:03 +0000";
layers = (
{
anchors = (
{
name = bottom;
position = "{217, 0}";
},
{
name = top;
position = "{171, 700}";
},
{
name = topright;
position = "{322, 700}";
}
);
components = (
{
name = I;
transform = "{1, 0, 0, 1, 0, 0}";
}
);
layerId = "D6DE3449-A573-450B-B2C8-FE4A922B890A";
rightMetricsKey = T;
name = Regular;
paths = (
{
closed = 1;
nodes = (
"137 78 LINE",
"136 0 LINE",
"310 0 LINE",
"320 91 LINE"
);
}
);
width = 323;
},
{
anchors = (
{
name = bottom;
position = "{202, 0}";
},
{
name = top;
position = "{172, 700}";
},
{
name = topright;
position = "{323, 700}";
}
);
components = (
{
name = I;
transform = "{1, 0, 0, 1, 0, 0}";
}
);
layerId = "36D4513E-7F15-4625-822B-04E8DB781DDB";
rightMetricsKey = T;
name = Bold;
paths = (
{
closed = 1;
nodes = (
"100 119 LINE",
"100 0 LINE",
"314 0 LINE",
"328 139 LINE"
);
}
);
width = 333;
}
);
leftKerningGroup = I;
rightKerningGroup = L;
rightMetricsKey = T;
unicode = 004C;
},
{
glyphname = Lslash;
lastChange = "2015-01-03 03:50:23 +0000";
layers = (
{
components = (
{
name = L;
transform = "{1, 0, 0, 1, 19, 0}";
}
);
layerId = "D6DE3449-A573-450B-B2C8-FE4A922B890A";
leftMetricsKey = hyphen;
rightMetricsKey = L;
name = Regular;
paths = (
{
closed = 1;
nodes = (
"5 249 LINE",
"306 332 LINE",
"306 415 LINE",
"5 332 LINE"
);
}
);
width = 361;
},
{
components = (
{
name = L;
transform = "{1, 0, 0, 1, 34, 0}";
}
);
layerId = "36D4513E-7F15-4625-822B-04E8DB781DDB";
name = Bold;
paths = (
{
closed = 1;
nodes = (
"8 205 LINE",
"361 302 LINE",
"361 455 LINE",
"8 358 LINE"
);
}
);
width = 377;
}
);
leftKerningGroup = Lslash;
leftMetricsKey = hyphen;
rightKerningGroup = Lslash;
rightMetricsKey = L;
unicode = 0141;
},
{
glyphname = M;
lastChange = "2015-01-12 06:05:26 +0000";
layers = (
{
layerId = "D6DE3449-A573-450B-B2C8-FE4A922B890A";
leftMetricsKey = I;
rightMetricsKey = I;
name = Regular;
paths = (
{
closed = 1;
nodes = (
"122 700 LINE",
"136 655 LINE",
"176 594 LINE",
"206 382 LINE",
"253 0 LINE",
"328 0 LINE",
"239 700 LINE"
);
},
{
closed = 1;
nodes = (
"53 700 LINE",
"53 0 LINE",
"160 0 LINE",
"160 382 LINE",
"163 594 LINE",
"198 655 LINE",
"214 700 LINE"
);
},
{
closed = 1;
nodes = (
"397 700 LINE",
"411 655 LINE",
"448 594 LINE",
"447 382 LINE",
"447 0 LINE",
"554 0 LINE",
"554 700 LINE"
);
},
{
closed = 1;
nodes = (
"372 700 LINE",
"274 0 LINE",
"349 0 LINE",
"405 382 LINE",
"435 594 LINE",
"473 655 LINE",
"489 700 LINE"
);
}
);
width = 607;
},
{
layerId = "36D4513E-7F15-4625-822B-04E8DB781DDB";
name = Bold;
paths = (
{
closed = 1;
nodes = (
"113 700 LINE",
"160 624 LINE",
"228 564 LINE",
"247 377 LINE",
"278 0 LINE",
"351 0 LINE",
"310 700 LINE"
);
},
{
closed = 1;
nodes = (
"38 700 LINE",
"38 0 LINE",
"208 0 LINE",
"208 377 LINE",
"209 565 LINE",
"272 624 LINE",
"291 700 LINE"
);
},
{
closed = 1;
nodes = (
"377 700 LINE",
"394 624 LINE",
"459 564 LINE",
"461 377 LINE",
"461 0 LINE",
"631 0 LINE",
"631 700 LINE"
);
},
{
closed = 1;
nodes = (
"359 700 LINE",
"319 0 LINE",
"391 0 LINE",
"422 377 LINE",
"440 565 LINE",
"506 624 LINE",
"623 700 LINE"
);
}
);
width = 669;
}
);
leftKerningGroup = I;
leftMetricsKey = I;
rightKerningGroup = I;
rightMetricsKey = I;
unicode = 004D;
},
{
glyphname = N;
lastChange = "2015-01-12 06:04:55 +0000";
layers = (
{
anchors = (
{
name = bottom;
position = "{223, 0}";
},
{
name = top;
position = "{223, 700}";
}
);
layerId = "D6DE3449-A573-450B-B2C8-FE4A922B890A";
leftMetricsKey = I;
rightMetricsKey = I;
name = Regular;
paths = (
{
closed = 1;
nodes = (
"275 700 LINE",
"275 411 LINE",
"279 349 LINE",
"275 339 LINE",
"268 348 LINE",
"254 415 LINE",
"170 700 LINE",
"55 700 LINE",
"55 0 LINE",
"170 0 LINE",
"170 391 LINE",
"167 477 LINE",
"170 489 LINE",
"177 479 LINE",
"196 396 LINE",
"275 103 LINE",
"275 0 LINE",
"390 0 LINE",
"390 700 LINE"
);
}
);
width = 445;
},
{
anchors = (
{
name = bottom;
position = "{256, 0}";
},
{
name = top;
position = "{256, 700}";
}
);
layerId = "36D4513E-7F15-4625-822B-04E8DB781DDB";
leftMetricsKey = I;
rightMetricsKey = I;
name = Bold;
paths = (
{
closed = 1;
nodes = (
"300 700 LINE",
"300 466 LINE",
"306 363 LINE",
"302 349 LINE",
"292 360 LINE",
"270 467 LINE",
"211 700 LINE",
"40 700 LINE",
"40 0 LINE",
"211 0 LINE",
"211 290 LINE",
"200 422 LINE",
"203 437 LINE",
"214 426 LINE",
"239 329 LINE",
"300 75 LINE",
"300 0 LINE",
"471 0 LINE",
"471 700 LINE"
);
}
);
width = 511;
}
);
leftKerningGroup = I;
leftMetricsKey = I;
rightKerningGroup = I;
rightMetricsKey = I;
unicode = 004E;
},
{
glyphname = Eng;
lastChange = "2015-01-03 18:32:02 +0000";
layers = (
{
anchors = (
{
name = top;
position = "{243, 415}";
}
);
components = (
{
name = N;
transform = "{1, 0, 0, 1, -5, 0}";
}
);
layerId = "D6DE3449-A573-450B-B2C8-FE4A922B890A";
name = Regular;
paths = (
{
closed = 1;
nodes = (
"269 315 LINE",
"269 -169 LINE",
"230 -204 LINE",
"199 -204 LINE",
"160 -175 LINE",
"159 -75 LINE",
"58 -75 LINE",
"58 -205 LINE",
"164 -285 LINE",
"281 -285 LINE",
"384 -196 LINE",
"384 315 LINE"
);
}
);
width = 435;
},
{
components = (
{
name = N;
transform = "{1, 0, 0, 1, -10, 0}";
}
);
layerId = "36D4513E-7F15-4625-822B-04E8DB781DDB";
leftMetricsKey = i;
rightMetricsKey = i;
name = Bold;
paths = (
{
closed = 1;
nodes = (
"290 195 LINE",
"290 -169 LINE",
"269 -187 LINE",
"257 -187 LINE",
"237 -172 LINE",
"236 -66 LINE",
"79 -66 LINE",
"79 -216 LINE",
"187 -305 LINE",
"346 -305 LINE",
"461 -206 LINE",
"461 195 LINE"
);
}
);
width = 491;
}
);
leftKerningGroup = I;
leftMetricsKey = i;
rightKerningGroup = I;
rightMetricsKey = i;
unicode = 014A;
},
{
glyphname = O;
lastChange = "2015-01-12 06:02:45 +0000";
layers = (
{
anchors = (
{
name = top;
position = "{222, 700}";
}
);
layerId = "D6DE3449-A573-450B-B2C8-FE4A922B890A";
rightMetricsKey = "=|";
name = Regular;
paths = (
{
closed = 1;
nodes = (
"299 700 LINE",
"144 700 LINE",
"41 611 LINE",
"41 89 LINE",
"144 0 LINE",
"299 0 LINE",
"403 89 LINE",
"403 611 LINE"
);
},
{
closed = 1;
nodes = (
"288 107 LINE",
"258 80 LINE",
"186 80 LINE",
"156 107 LINE",
"156 598 LINE",
"186 625 LINE",
"258 625 LINE",
"288 598 LINE"
);
}
);
width = 444;
},
{
anchors = (
{
name = top;
position = "{236, 700}";
}
);
layerId = "36D4513E-7F15-4625-822B-04E8DB781DDB";
leftMetricsKey = "=H*.75";
rightMetricsKey = "=|";
name = Bold;
paths = (
{
closed = 1;
nodes = (
"322 700 LINE",
"149 700 LINE",
"30 597 LINE",
"30 103 LINE",
"149 0 LINE",
"322 0 LINE",
"442 103 LINE",
"442 597 LINE"
);
},
{
closed = 1;
nodes = (
"267 134 LINE",
"252 120 LINE",
"220 120 LINE",
"205 134 LINE",
"205 572 LINE",
"220 585 LINE",
"252 585 LINE",
"267 572 LINE"
);
}
);
width = 472;
}
);
leftKerningGroup = O;
leftMetricsKey = "=H*.75";
rightKerningGroup = O;
rightMetricsKey = "=|";
unicode = 004F;
},
{
glyphname = Oslash;
lastChange = "2015-01-03 18:32:04 +0000";
layers = (
{
anchors = (
{
name = top;
position = "{222, 700}";
}
);
layerId = "D6DE3449-A573-450B-B2C8-FE4A922B890A";
name = Regular;
paths = (
{
closed = 1;
nodes = (
"309 700 LINE",
"144 700 LINE",
"41 611 LINE",
"41 89 LINE",
"144 0 LINE",
"309 0 LINE",
"413 89 LINE",
"413 611 LINE"
);
},
{
closed = 1;
nodes = (
"298 116 LINE",
"257 80 LINE",
"197 80 LINE",
"156 116 LINE",
"156 590 LINE",
"197 625 LINE",
"257 625 LINE",
"298 590 LINE"
);
},
{
closed = 1;
nodes = (
"289 776 LINE",
"89 -74 LINE",
"171 -74 LINE",
"371 776 LINE"
);
}
);
width = 454;
},
{
anchors = (
{
name = top;
position = "{236, 700}";
}
);
layerId = "36D4513E-7F15-4625-822B-04E8DB781DDB";
leftMetricsKey = O;
rightMetricsKey = O;
name = Bold;
paths = (
{
closed = 1;
nodes = (
"355 700 LINE",
"149 700 LINE",
"30 597 LINE",
"30 103 LINE",
"149 0 LINE",
"355 0 LINE",
"475 103 LINE",
"475 597 LINE"
);
},
{
closed = 1;
nodes = (
"300 132 LINE",
"286 120 LINE",
"219 120 LINE",
"205 132 LINE",
"205 574 LINE",
"219 585 LINE",
"286 585 LINE",
"300 574 LINE"
);
},
{
closed = 1;
nodes = (
"306 776 LINE",
"116 -74 LINE",
"198 -74 LINE",
"388 776 LINE"
);
}
);
width = 505;
}
);
leftKerningGroup = O;
leftMetricsKey = O;
rightKerningGroup = O;
rightMetricsKey = O;
unicode = 00D8;
},
{
glyphname = P;
lastChange = "2015-01-09 06:00:08 +0000";
layers = (
{
components = (
{
name = I;
transform = "{1, 0, 0, 1, 0, 0}";
}
);
layerId = "D6DE3449-A573-450B-B2C8-FE4A922B890A";
leftMetricsKey = I;
rightMetricsKey = "=O-14";
name = Regular;
paths = (
{
closed = 1;
nodes = (
"109 700 LINE",
"109 630 LINE",
"219 630 LINE",
"258 595 LINE",
"258 421 LINE",
"225 367 LINE",
"126 307 LINE",
"126 202 LINE",
"292 300 LINE",
"373 395 LINE",
"373 611 LINE",
"269 700 LINE"
);
}
);
width = 400;
},
{
components = (
{
name = I;
transform = "{1, 0, 0, 1, 0, 0}";
}
);
layerId = "36D4513E-7F15-4625-822B-04E8DB781DDB";
leftMetricsKey = I;
rightMetricsKey = "=O-14";
name = Bold;
paths = (
{
closed = 1;
nodes = (
"110 700 LINE",
"110 590 LINE",
"245 590 LINE",
"259 578 LINE",
"259 397 LINE",
"241 371 LINE",
"127 301 LINE",
"127 145 LINE",
"346 274 LINE",
"434 377 LINE",
"434 597 LINE",
"314 700 LINE"
);
}
);
width = 450;
}
);
leftKerningGroup = I;
leftMetricsKey = I;
rightKerningGroup = P;
rightMetricsKey = "=O-10";
unicode = 0050;
},
{
glyphname = Thorn;
lastChange = "2015-01-03 18:32:04 +0000";
layers = (
{
components = (
{
name = I;
transform = "{1, 0, 0, 1, 0, 0}";
}
);
layerId = "36D4513E-7F15-4625-822B-04E8DB781DDB";
name = Bold;
paths = (
{
closed = 1;
nodes = (
"110 599 LINE",
"110 489 LINE",
"245 489 LINE",
"259 475 LINE",
"259 300 LINE",
"241 270 LINE",
"127 200 LINE",
"127 44 LINE",
"346 173 LINE",
"434 276 LINE",
"434 496 LINE",
"314 599 LINE"
);
}
);
width = 450;
},
{
components = (
{
name = I;
transform = "{1, 0, 0, 1, 0, 0}";
}
);
layerId = "D6DE3449-A573-450B-B2C8-FE4A922B890A";
leftMetricsKey = I;
rightMetricsKey = P;
name = Regular;
paths = (
{
closed = 1;
nodes = (
"109 596 LINE",
"109 526 LINE",
"219 526 LINE",
"258 491 LINE",
"258 317 LINE",
"225 263 LINE",
"126 203 LINE",
"126 98 LINE",
"292 196 LINE",
"373 291 LINE",
"373 507 LINE",
"269 596 LINE"
);
}
);
width = 400;
}
);
leftKerningGroup = I;
leftMetricsKey = I;
rightKerningGroup = Thorn;
rightMetricsKey = P;
unicode = 00DE;
},
{
glyphname = Q;
lastChange = "2015-01-03 18:32:04 +0000";
layers = (
{
layerId = "D6DE3449-A573-450B-B2C8-FE4A922B890A";
leftMetricsKey = O;
name = Regular;
paths = (
{
closed = 1;
nodes = (
"144 700 LINE",
"41 611 LINE",
"41 89 LINE",
"144 0 LINE",
"265 0 LINE",
"403 121 LINE",
"403 611 LINE",
"299 700 LINE"
);
},
{
closed = 1;
nodes = (
"188 279 LINE",
"117 215 LINE",
"155 182 LINE",
"184 208 LINE",
"204 208 LINE",
"223 200 LINE",
"239 182 LINE",
"253 42 LINE",
"344 -70 LINE",
"403 -70 LINE",
"424 51 LINE",
"379 51 LINE",
"368 62 LINE",
"352 221 LINE",
"254 279 LINE"
);
},
{
closed = 1;
nodes = (
"288 590 LINE",
"288 139 LINE",
"226 80 LINE",
"197 80 LINE",
"156 116 LINE",
"156 590 LINE",
"197 625 LINE",
"247 625 LINE"
);
}
);
width = 444;
},
{
layerId = "36D4513E-7F15-4625-822B-04E8DB781DDB";
leftMetricsKey = O;
name = Bold;
paths = (
{
closed = 1;
nodes = (
"145 700 LINE",
"30 602 LINE",
"30 99 LINE",
"145 0 LINE",
"286 0 LINE",
"437 137 LINE",
"437 602 LINE",
"321 700 LINE"
);
},
{
closed = 1;
nodes = (
"222 304 LINE",
"136 242 LINE",
"169 157 LINE",
"211 195 LINE",
"217 195 LINE",
"226 190 LINE",
"232 185 LINE",
"245 66 LINE",
"343 -66 LINE",
"434 -66 LINE",
"461 91 LINE",
"416 91 LINE",
"399 112 LINE",
"387 238 LINE",
"276 304 LINE"
);
},
{
closed = 1;
nodes = (
"266 576 LINE",
"266 143 LINE",
"239 118 LINE",
"214 118 LINE",
"201 128 LINE",
"201 576 LINE",
"215 588 LINE",
"252 588 LINE"
);
}
);
width = 491;
}
);
leftKerningGroup = O;
leftMetricsKey = O;
rightKerningGroup = Q;
unicode = 0051;
},
{
glyphname = R;
lastChange = "2015-01-12 05:44:44 +0000";
layers = (
{
anchors = (
{
name = bottom;
position = "{214, 0}";
},
{
name = top;
position = "{214, 700}";
}
);
components = (
{
name = I;
transform = "{1, 0, 0, 1, 0, 0}";
}
);
layerId = "D6DE3449-A573-450B-B2C8-FE4A922B890A";
leftMetricsKey = I;
rightMetricsKey = "=O*.45";
name = Regular;
paths = (
{
closed = 1;
nodes = (
"120 700 LINE",
"120 620 LINE",
"220 620 LINE",
"261 585 LINE",
"261 413 LINE",
"246 381 LINE",
"163 298 LINE",
"164 181 LINE",
"228 238 LINE",
"305 309 LINE",
"345 352 LINE",
"376 416 LINE",
"376 611 LINE",
"272 700 LINE"
);
},
{
closed = 1;
nodes = (
"228 238 LINE",
"291 0 LINE",
"410 0 LINE",
"305 309 LINE"
);
}
);
width = 428;
},
{
anchors = (
{
name = bottom;
position = "{233, 0}";
},
{
name = top;
position = "{233, 700}";
}
);
components = (
{
name = I;
transform = "{1, 0, 0, 1, 0, 0}";
}
);
layerId = "36D4513E-7F15-4625-822B-04E8DB781DDB";
leftMetricsKey = I;
rightMetricsKey = "=O*.4";
name = Bold;
paths = (
{
closed = 1;
nodes = (
"127 700 LINE",
"127 588 LINE",
"245 588 LINE",
"260 573 LINE",
"260 398 LINE",
"251 370 LINE",
"177 306 LINE",
"178 167 LINE",
"245 216 LINE",
"379 315 LINE",
"406 349 LINE",
"431 413 LINE",
"431 602 LINE",
"316 700 LINE"
);
},
{
closed = 1;
nodes = (
"245 216 LINE",
"274 0 LINE",
"453 0 LINE",
"379 315 LINE"
);
}
);
width = 466;
}
);
leftKerningGroup = I;
leftMetricsKey = I;
rightKerningGroup = R;
rightMetricsKey = O;
unicode = 0052;
},
{
glyphname = S;
lastChange = "2015-01-12 06:23:22 +0000";
layers = (
{
anchors = (
{
name = bottom;
position = "{193, 0}";
},
{
name = top;
position = "{193, 700}";
}
);
layerId = "D6DE3449-A573-450B-B2C8-FE4A922B890A";
leftMetricsKey = "=|";
name = Regular;
paths = (
{
closed = 1;
nodes = (
"132 700 LINE",
"42 620 LINE",
"42 447 LINE",
"96 373 LINE",
"209 316 LINE",
"238 282 LINE",
"238 106 LINE",
"210 81 LINE",
"172 81 LINE",
"144 106 LINE",
"144 245 LINE",
"29 245 LINE",
"29 84 LINE",
"124 0 LINE",
"261 0 LINE",
"356 84 LINE",
"356 312 LINE",
"297 385 LINE",
"177 444 LINE",
"153 472 LINE",
"153 595 LINE",
"181 620 LINE",
"223 620 LINE",
"251 595 LINE",
"251 496 LINE",
"359 496 LINE",
"359 620 LINE",
"269 700 LINE"
);
}
);
width = 388;
},
{
anchors = (
{
name = bottom;
position = "{213, 0}";
},
{
name = top;
position = "{213, 700}";
}
);
layerId = "36D4513E-7F15-4625-822B-04E8DB781DDB";
leftMetricsKey = "=|";
rightMetricsKey = C;
name = Bold;
paths = (
{
closed = 1;
nodes = (
"144 700 LINE",
"31 604 LINE",
"31 432 LINE",
"82 357 LINE",
"213 299 LINE",
"233 277 LINE",
"233 129 LINE",
"219 118 LINE",
"205 118 LINE",
"191 129 LINE",
"191 254 LINE",
"22 254 LINE",
"22 99 LINE",
"135 0 LINE",
"290 0 LINE",
"403 99 LINE",
"403 323 LINE",
"349 397 LINE",
"216 451 LINE",
"201 469 LINE",
"201 573 LINE",
"215 584 LINE",
"226 584 LINE",
"240 573 LINE",
"240 483 LINE",
"407 483 LINE",
"407 604 LINE",
"301 700 LINE"
);
}
);
width = 433;
}
);
leftKerningGroup = S;
leftMetricsKey = "=|";
rightKerningGroup = S;
unicode = 0053;
},
{
glyphname = T;
lastChange = "2015-01-09 05:47:11 +0000";
layers = (
{
anchors = (
{
name = bottom;
position = "{176, 0}";
},
{
name = center;
position = "{176, 350}";
},
{
name = top;
position = "{176, 700}";
}
);
components = (
{
name = I;
transform = "{1, 0, 0, 1, 63, 0}";
}
);
layerId = "D6DE3449-A573-450B-B2C8-FE4A922B890A";
rightMetricsKey = "=|";
name = Regular;
paths = (
{
closed = 1;
nodes = (
"16 700 LINE",
"3 610 LINE",
"176 618 LINE",
"348 610 LINE",
"335 700 LINE"
);
}
);
width = 351;
},
{
anchors = (
{
name = bottom;
position = "{201, 0}";
},
{
name = center;
position = "{201, 350}";
},
{
name = top;
position = "{201, 700}";
}
);
components = (
{
disableAlignment = 1;
name = I;
transform = "{1, 0, 0, 1, 75, 0}";
}
);
layerId = "36D4513E-7F15-4625-822B-04E8DB781DDB";
rightMetricsKey = "=|";
name = Bold;
paths = (
{
closed = 1;
nodes = (
"22 700 LINE",
"5 562 LINE",
"200 574 LINE",
"396 562 LINE",
"378 700 LINE"
);
}
);
width = 401;
}
);
leftKerningGroup = T;
rightKerningGroup = T;
rightMetricsKey = "=|";
unicode = 0054;
},
{
glyphname = U;
lastChange = "2015-01-09 05:11:04 +0000";
layers = (
{
anchors = (
{
name = ogonek;
position = "{289, 0}";
},
{
name = top;
position = "{220, 700}";
}
);
layerId = "D6DE3449-A573-450B-B2C8-FE4A922B890A";
leftMetricsKey = "=H*.84";
rightMetricsKey = "=H*.84";
name = Regular;
paths = (
{
closed = 1;
nodes = (
"278 700 LINE",
"278 113 LINE",
"242 80 LINE",
"196 80 LINE",
"161 113 LINE",
"161 700 LINE",
"46 700 LINE",
"46 89 LINE",
"149 0 LINE",
"289 0 LINE",
"393 89 LINE",
"393 700 LINE"
);
}
);
width = 439;
},
{
anchors = (
{
name = ogonek;
position = "{309, 0}";
},
{
name = top;
position = "{231, 700}";
}
);
layerId = "36D4513E-7F15-4625-822B-04E8DB781DDB";
leftMetricsKey = "=H*.84";
rightMetricsKey = "=|";
name = Bold;
paths = (
{
closed = 1;
nodes = (
"254 700 LINE",
"253 132 LINE",
"239 118 LINE",
"219 118 LINE",
"204 132 LINE",
"204 700 LINE",
"33 700 LINE",
"33 99 LINE",
"147 0 LINE",
"309 0 LINE",
"425 99 LINE",
"426 700 LINE"
);
}
);
width = 459;
}
);
leftKerningGroup = U;
leftMetricsKey = H;
rightKerningGroup = U;
rightMetricsKey = "=H*.75";
unicode = 0055;
},
{
glyphname = V;
lastChange = "2015-01-09 05:32:43 +0000";
layers = (
{
layerId = "D6DE3449-A573-450B-B2C8-FE4A922B890A";
name = Regular;
paths = (
{
closed = 1;
nodes = (
"391 700 LINE",
"276 700 LINE",
"229 318 LINE",
"209 109 LINE",
"169 42 LINE",
"155 0 LINE",
"292 0 LINE"
);
},
{
closed = 1;
nodes = (
"233 42 LINE",
"195 109 LINE",
"175 318 LINE",
"129 700 LINE",
"14 700 LINE",
"112 0 LINE",
"249 0 LINE"
);
}
);
width = 405;
},
{
layerId = "36D4513E-7F15-4625-822B-04E8DB781DDB";
leftMetricsKey = A;
rightMetricsKey = A;
name = Bold;
paths = (
{
closed = 1;
nodes = (
"428 700 LINE",
"255 700 LINE",
"229 320 LINE",
"220 136 LINE",
"152 76 LINE",
"130 0 LINE",
"337 0 LINE"
);
},
{
closed = 1;
nodes = (
"272 76 LINE",
"206 135 LINE",
"198 320 LINE",
"172 700 LINE",
"0 700 LINE",
"90 0 LINE",
"296 0 LINE"
);
}
);
width = 428;
}
);
leftKerningGroup = V;
leftMetricsKey = A;
rightKerningGroup = V;
rightMetricsKey = A;
unicode = 0056;
},
{
glyphname = W;
lastChange = "2015-01-09 05:08:10 +0000";
layers = (
{
anchors = (
{
name = top;
position = "{318, 700}";
}
);
layerId = "D6DE3449-A573-450B-B2C8-FE4A922B890A";
leftMetricsKey = "=V*1.2";
rightMetricsKey = "=V*1.2";
name = Regular;
paths = (
{
closed = 1;
nodes = (
"344 700 LINE",
"269 700 LINE",
"232 318 LINE",
"212 109 LINE",
"172 42 LINE",
"158 0 LINE",
"275 0 LINE"
);
},
{
closed = 1;
nodes = (
"236 42 LINE",
"201 109 LINE",
"181 318 LINE",
"145 700 LINE",
"17 700 LINE",
"105 0 LINE",
"252 0 LINE"
);
},
{
closed = 1;
nodes = (
"617 700 LINE",
"489 700 LINE",
"452 318 LINE",
"432 109 LINE",
"395 42 LINE",
"381 0 LINE",
"528 0 LINE"
);
},
{
closed = 1;
nodes = (
"459 42 LINE",
"421 109 LINE",
"401 318 LINE",
"365 700 LINE",
"290 700 LINE",
"358 0 LINE",
"475 0 LINE"
);
}
);
width = 634;
},
{
anchors = (
{
name = top;
position = "{343, 700}";
}
);
layerId = "36D4513E-7F15-4625-822B-04E8DB781DDB";
leftMetricsKey = "=V+5";
rightMetricsKey = "=V+5";
name = Bold;
paths = (
{
closed = 1;
nodes = (
"358 700 LINE",
"285 700 LINE",
"239 320 LINE",
"225 136 LINE",
"157 76 LINE",
"120 0 LINE",
"317 0 LINE"
);
},
{
closed = 1;
nodes = (
"277 76 LINE",
"214 135 LINE",
"211 320 LINE",
"195 700 LINE",
"5 700 LINE",
"85 0 LINE",
"306 0 LINE"
);
},
{
closed = 1;
nodes = (
"679 700 LINE",
"488 700 LINE",
"472 320 LINE",
"468 136 LINE",
"403 76 LINE",
"376 0 LINE",
"598 0 LINE"
);
},
{
closed = 1;
nodes = (
"523 76 LINE",
"457 135 LINE",
"444 320 LINE",
"398 700 LINE",
"326 700 LINE",
"366 0 LINE",
"562 0 LINE"
);
}
);
width = 684;
}
);
leftKerningGroup = V;
leftMetricsKey = V;
rightKerningGroup = V;
rightMetricsKey = V;
unicode = 0057;
},
{
glyphname = X;
lastChange = "2015-01-09 05:59:50 +0000";
layers = (
{
layerId = "D6DE3449-A573-450B-B2C8-FE4A922B890A";
name = Regular;
paths = (
{
closed = 1;
nodes = (
"400 700 LINE",
"279 700 LINE",
"240 548 LINE",
"220 454 LINE",
"176 402 LINE",
"162 370 LINE",
"264 279 LINE"
);
},
{
closed = 1;
nodes = (
"253 402 LINE",
"211 454 LINE",
"191 548 LINE",
"153 700 LINE",
"33 700 LINE",
"167 272 LINE",
"273 370 LINE"
);
},
{
closed = 1;
nodes = (
"162 378 LINE",
"176 346 LINE",
"222 284 LINE",
"242 180 LINE",
"279 0 LINE",
"400 0 LINE",
"264 469 LINE"
);
},
{
closed = 1;
nodes = (
"167 476 LINE",
"33 0 LINE",
"153 0 LINE",
"189 180 LINE",
"209 284 LINE",
"253 346 LINE",
"273 378 LINE"
);
}
);
width = 434;
},
{
layerId = "36D4513E-7F15-4625-822B-04E8DB781DDB";
leftMetricsKey = "=|";
rightMetricsKey = C;
name = Bold;
paths = (
{
closed = 1;
nodes = (
"449 700 LINE",
"269 700 LINE",
"250 533 LINE",
"241 449 LINE",
"173 369 LINE",
"151 313 LINE",
"316 244 LINE"
);
},
{
closed = 1;
nodes = (
"293 369 LINE",
"227 448 LINE",
"219 533 LINE",
"200 700 LINE",
"21 700 LINE",
"144 263 LINE",
"317 313 LINE"
);
},
{
closed = 1;
nodes = (
"151 370 LINE",
"173 324 LINE",
"241 254 LINE",
"250 180 LINE",
"269 0 LINE",
"449 0 LINE",
"336 469 LINE"
);
},
{
closed = 1;
nodes = (
"124 450 LINE",
"21 0 LINE",
"200 0 LINE",
"219 180 LINE",
"227 255 LINE",
"293 324 LINE",
"317 370 LINE"
);
}
);
width = 475;
}
);
leftKerningGroup = X;
leftMetricsKey = "=|";
rightKerningGroup = X;
rightMetricsKey = C;
unicode = 0058;
},
{
glyphname = Y;
lastChange = "2015-01-09 05:49:42 +0000";
layers = (
{
anchors = (
{
name = top;
position = "{192, 700}";
}
);
layerId = "D6DE3449-A573-450B-B2C8-FE4A922B890A";
rightMetricsKey = "=|";
name = Regular;
paths = (
{
closed = 1;
nodes = (
"373 700 LINE",
"255 700 LINE",
"224 505 LINE",
"198 355 LINE",
"160 313 LINE",
"144 300 LINE",
"242 176 LINE"
);
},
{
closed = 1;
nodes = (
"222 313 LINE",
"184 355 LINE",
"158 505 LINE",
"127 700 LINE",
"10 700 LINE",
"139 176 LINE",
"238 300 LINE"
);
},
{
closed = 1;
nodes = (
"132 334 LINE",
"132 0 LINE",
"247 0 LINE",
"247 334 LINE"
);
}
);
width = 383;
},
{
anchors = (
{
name = top;
position = "{212, 700}";
}
);
layerId = "36D4513E-7F15-4625-822B-04E8DB781DDB";
rightMetricsKey = "=|";
name = Bold;
paths = (
{
closed = 1;
nodes = (
"428 700 LINE",
"248 700 LINE",
"227 485 LINE",
"219 372 LINE",
"153 308 LINE",
"128 260 LINE",
"286 116 LINE"
);
},
{
closed = 1;
nodes = (
"270 308 LINE",
"204 372 LINE",
"196 485 LINE",
"176 700 LINE",
"-4 700 LINE",
"138 116 LINE",
"294 260 LINE"
);
},
{
closed = 1;
nodes = (
"125 292 LINE",
"125 0 LINE",
"296 0 LINE",
"296 292 LINE"
);
}
);
width = 424;
}
);
leftKerningGroup = Y;
rightKerningGroup = Y;
rightMetricsKey = V;
unicode = 0059;
},
{
glyphname = Z;
lastChange = "2015-01-03 18:32:04 +0000";
layers = (
{
anchors = (
{
name = top;
position = "{165, 700}";
}
);
layerId = "D6DE3449-A573-450B-B2C8-FE4A922B890A";
leftMetricsKey = X;
rightMetricsKey = X;
name = Regular;
paths = (
{
closed = 1;
nodes = (
"191 700 LINE",
"165 586 LINE",
"33 30 LINE",
"33 0 LINE",
"122 0 LINE",
"169 180 LINE",
"295 670 LINE",
"295 700 LINE"
);
},
{
closed = 1;
nodes = (
"169 85 LINE",
"83 85 LINE",
"83 0 LINE",
"285 0 LINE",
"294 91 LINE"
);
},
{
closed = 1;
nodes = (
"55 700 LINE",
"46 612 LINE",
"155 615 LINE",
"251 615 LINE",
"251 700 LINE"
);
}
);
width = 329;
},
{
anchors = (
{
name = top;
position = "{199, 700}";
}
);
layerId = "36D4513E-7F15-4625-822B-04E8DB781DDB";
name = Bold;
paths = (
{
closed = 1;
nodes = (
"208 700 LINE",
"146 518 LINE",
"35 104 LINE",
"26 0 LINE",
"175 0 LINE",
"235 220 LINE",
"368 660 LINE",
"368 700 LINE"
);
},
{
closed = 1;
nodes = (
"254 115 LINE",
"106 115 LINE",
"106 0 LINE",
"362 0 LINE",
"372 115 LINE"
);
},
{
closed = 1;
nodes = (
"45 700 LINE",
"35 585 LINE",
"147 585 LINE",
"223 585 LINE",
"223 700 LINE"
);
}
);
width = 398;
}
);
leftKerningGroup = Z;
leftMetricsKey = X;
rightKerningGroup = Z;
rightMetricsKey = X;
unicode = 005A;
},
{
glyphname = a;
lastChange = "2015-01-12 06:23:47 +0000";
layers = (
{
anchors = (
{
name = ogonek;
position = "{410, 0}";
},
{
name = top;
position = "{211, 500}";
}
);
layerId = "D6DE3449-A573-450B-B2C8-FE4A922B890A";
rightMetricsKey = "=|";
name = Regular;
paths = (
{
closed = 1;
nodes = (
"163 500 LINE",
"177 453 LINE",
"217 409 LINE",
"239 293 LINE",
"304 0 LINE",
"419 0 LINE",
"283 500 LINE"
);
},
{
closed = 1;
nodes = (
"112 107 LINE",
"306 107 LINE",
"296 222 LINE",
"243 182 LINE",
"175 182 LINE",
"122 222 LINE"
);
},
{
closed = 1;
nodes = (
"135 500 LINE",
"0 0 LINE",
"115 0 LINE",
"179 293 LINE",
"201 409 LINE",
"239 453 LINE",
"255 500 LINE"
);
}
);
width = 419;
},
{
anchors = (
{
name = ogonek;
position = "{437, 0}";
},
{
name = top;
position = "{218, 500}";
}
);
layerId = "36D4513E-7F15-4625-822B-04E8DB781DDB";
rightMetricsKey = "=|";
name = Bold;
paths = (
{
closed = 1;
nodes = (
"139 500 LINE",
"161 424 LINE",
"229 364 LINE",
"238 262 LINE",
"267 0 LINE",
"443 0 LINE",
"343 500 LINE"
);
},
{
closed = 1;
nodes = (
"114 84 LINE",
"327 84 LINE",
"314 271 LINE",
"230 207 LINE",
"207 207 LINE",
"123 271 LINE"
);
},
{
closed = 1;
nodes = (
"95 500 LINE",
"-5 0 LINE",
"170 0 LINE",
"199 262 LINE",
"207 365 LINE",
"273 424 LINE",
"297 500 LINE"
);
}
);
width = 438;
}
);
leftKerningGroup = a;
rightKerningGroup = a;
rightMetricsKey = A;
unicode = 0061;
},
{
glyphname = ae;
lastChange = "2015-01-03 18:32:02 +0000";
layers = (
{
anchors = (
{
name = ogonek;
position = "{367, 10}";
},
{
name = top;
position = "{209, 500}";
}
);
components = (
{
name = e;
transform = "{1, 0, 0, 1, 212, 0}";
}
);
layerId = "D6DE3449-A573-450B-B2C8-FE4A922B890A";
name = Regular;
paths = (
{
closed = 1;
nodes = (
"136 107 LINE",
"312 107 LINE",
"302 222 LINE",
"247 182 LINE",
"189 182 LINE",
"146 222 LINE"
);
},
{
closed = 1;
nodes = (
"174 500 LINE",
"0 0 LINE",
"115 0 LINE",
"210 279 LINE",
"248 402 LINE",
"286 458 LINE",
"302 500 LINE"
);
}
);
width = 551;
},
{
anchors = (
{
name = top;
position = "{214, 500}";
}
);
components = (
{
name = e;
transform = "{1, 0, 0, 1, 228, 0}";
}
);
layerId = "36D4513E-7F15-4625-822B-04E8DB781DDB";
leftMetricsKey = a;
rightMetricsKey = e;
name = Bold;
paths = (
{
closed = 1;
nodes = (
"127 84 LINE",
"336 84 LINE",
"323 266 LINE",
"239 207 LINE",
"215 207 LINE",
"160 275 LINE"
);
},
{
closed = 1;
nodes = (
"122 500 LINE",
"-5 0 LINE",
"170 0 LINE",
"219 262 LINE",
"234 365 LINE",
"300 424 LINE",
"304 500 LINE"
);
}
);
width = 566;
}
);
leftKerningGroup = a;
leftMetricsKey = a;
rightKerningGroup = e;
rightMetricsKey = e;
unicode = 00E6;
},
{
glyphname = b;
lastChange = "2015-01-12 06:30:15 +0000";
layers = (
{
components = (
{
name = i;
transform = "{1, 0, 0, 1, 0, 0}";
}
);
layerId = "D6DE3449-A573-450B-B2C8-FE4A922B890A";
leftMetricsKey = i;
rightMetricsKey = c;
name = Regular;
paths = (
{
closed = 1;
nodes = (
"142 500 LINE",
"142 428 LINE",
"227 428 LINE",
"264 394 LINE",
"264 330 LINE",
"227 296 LINE",
"142 296 LINE",
"142 248 LINE",
"292 248 LINE",
"381 324 LINE",
"381 424 LINE",
"290 500 LINE"
);
},
{
closed = 1;
nodes = (
"148 295 LINE",
"148 223 LINE",
"232 223 LINE",
"270 190 LINE",
"270 111 LINE",
"232 77 LINE",
"148 77 LINE",
"148 0 LINE",
"297 0 LINE",
"387 76 LINE",
"387 219 LINE",
"297 295 LINE"
);
}
);
width = 417;
},
{
components = (
{
name = i;
transform = "{1, 0, 0, 1, 0, 0}";
}
);
layerId = "36D4513E-7F15-4625-822B-04E8DB781DDB";
leftMetricsKey = i;
rightMetricsKey = c;
name = Bold;
paths = (
{
closed = 1;
nodes = (
"177 500 LINE",
"177 398 LINE",
"231 398 LINE",
"252 380 LINE",
"252 336 LINE",
"231 316 LINE",
"177 316 LINE",
"177 259 LINE",
"347 259 LINE",
"420 321 LINE",
"420 419 LINE",
"324 500 LINE"
);
},
{
closed = 1;
nodes = (
"177 316 LINE",
"177 215 LINE",
"237 215 LINE",
"258 196 LINE",
"258 126 LINE",
"237 106 LINE",
"177 106 LINE",
"177 0 LINE",
"330 0 LINE",
"426 81 LINE",
"426 224 LINE",
"320 316 LINE"
);
}
);
width = 444;
}
);
leftKerningGroup = i;
leftMetricsKey = I;
rightKerningGroup = o;
rightMetricsKey = B;
unicode = 0062;
},
{
glyphname = c;
lastChange = "2015-01-09 05:30:05 +0000";
layers = (
{
anchors = (
{
name = bottom;
position = "{199, 0}";
},
{
name = top;
position = "{199, 500}";
}
);
layerId = "D6DE3449-A573-450B-B2C8-FE4A922B890A";
leftMetricsKey = o;
rightMetricsKey = "=o*.9";
name = Regular;
paths = (
{
closed = 1;
nodes = (
"124 500 LINE",
"33 415 LINE",
"33 86 LINE",
"124 0 LINE",
"281 0 LINE",
"376 86 LINE",
"376 210 LINE",
"267 210 LINE",
"266 110 LINE",
"235 81 LINE",
"179 81 LINE",
"148 110 LINE",
"148 391 LINE",
"179 420 LINE",
"235 420 LINE",
"266 391 LINE",
"266 300 LINE",
"374 300 LINE",
"374 420 LINE",
"281 500 LINE"
);
}
);
width = 406;
},
{
anchors = (
{
name = bottom;
position = "{219, 0}";
},
{
name = top;
position = "{223, 500}";
}
);
layerId = "36D4513E-7F15-4625-822B-04E8DB781DDB";
leftMetricsKey = o;
rightMetricsKey = "=o*.9";
name = Bold;
paths = (
{
closed = 1;
nodes = (
"135 500 LINE",
"20 402 LINE",
"20 99 LINE",
"135 0 LINE",
"305 0 LINE",
"423 99 LINE",
"423 219 LINE",
"252 219 LINE",
"252 132 LINE",
"236 118 LINE",
"207 118 LINE",
"191 132 LINE",
"191 370 LINE",
"207 384 LINE",
"236 384 LINE",
"252 370 LINE",
"252 292 LINE",
"421 292 LINE",
"421 409 LINE",
"312 500 LINE"
);
}
);
width = 441;
}
);
leftKerningGroup = o;
leftMetricsKey = O;
rightKerningGroup = o;
rightMetricsKey = C;
unicode = 0063;
},
{
glyphname = d;
lastChange = "2015-01-12 06:07:05 +0000";
layers = (
{
anchors = (
{
name = center;
position = "{213, 250}";
},
{
name = top;
position = "{214, 500}";
}
);
components = (
{
name = i;
transform = "{1, 0, 0, 1, 0, 0}";
}
);
layerId = "D6DE3449-A573-450B-B2C8-FE4A922B890A";
leftMetricsKey = i;
rightMetricsKey = o;
name = Regular;
paths = (
{
closed = 1;
nodes = (
"147 500 LINE",
"147 425 LINE",
"237 425 LINE",
"286 380 LINE",
"286 126 LINE",
"237 80 LINE",
"147 80 LINE",
"147 0 LINE",
"297 0 LINE",
"401 89 LINE",
"401 411 LINE",
"297 500 LINE"
);
}
);
width = 434;
},
{
anchors = (
{
name = center;
position = "{227, 250}";
},
{
name = top;
position = "{223, 500}";
}
);
components = (
{
name = i;
transform = "{1, 0, 0, 1, 0, 0}";
}
);
layerId = "36D4513E-7F15-4625-822B-04E8DB781DDB";
leftMetricsKey = i;
rightMetricsKey = o;
name = Bold;
paths = (
{
closed = 1;
nodes = (
"179 500 LINE",
"179 385 LINE",
"244 385 LINE",
"268 364 LINE",
"268 142 LINE",
"244 120 LINE",
"179 120 LINE",
"179 0 LINE",
"323 0 LINE",
"443 103 LINE",
"443 397 LINE",
"323 500 LINE"
);
}
);
width = 463;
}
);
leftKerningGroup = i;
leftMetricsKey = I;
rightKerningGroup = o;
rightMetricsKey = O;
unicode = 0064;
},
{
glyphname = dcroat;
lastChange = "2015-01-03 18:32:04 +0000";
layers = (
{
components = (
{
name = d;
transform = "{1, 0, 0, 1, 21, 0}";
}
);
layerId = "D6DE3449-A573-450B-B2C8-FE4A922B890A";
name = Regular;
paths = (
{
closed = 1;
nodes = (
"5 227 LINE",
"254 227 LINE",
"254 298 LINE",
"5 298 LINE"
);
}
);
width = 446;
},
{
components = (
{
name = d;
transform = "{1, 0, 0, 1, 34, 0}";
}
);
layerId = "36D4513E-7F15-4625-822B-04E8DB781DDB";
leftMetricsKey = hyphen;
rightMetricsKey = o;
name = Bold;
paths = (
{
closed = 1;
nodes = (
"8 197 LINE",
"267 197 LINE",
"267 328 LINE",
"8 328 LINE"
);
}
);
width = 483;
}
);
leftKerningGroup = dcroat;
leftMetricsKey = hyphen;
rightKerningGroup = o;
rightMetricsKey = o;
unicode = 0111;
},
{
glyphname = e;
lastChange = "2015-01-12 06:18:10 +0000";
layers = (
{
anchors = (
{
name = bottom;
position = "{170, 0}";
},
{
name = ogonek;
position = "{305, 10}";
},
{
name = top;
position = "{189, 500}";
}
);
components = (
{
name = i;
transform = "{1, 0, 0, 1, 0, 0}";
}
);
layerId = "D6DE3449-A573-450B-B2C8-FE4A922B890A";
leftMetricsKey = i;
rightMetricsKey = "=i*.6";
name = Regular;
paths = (
{
closed = 1;
nodes = (
"131 237 LINE",
"304 232 LINE",
"304 322 LINE",
"131 317 LINE"
);
},
{
closed = 1;
nodes = (
"131 422 LINE",
"152 422 LINE",
"319 412 LINE",
"313 500 LINE",
"131 500 LINE"
);
},
{
closed = 1;
nodes = (
"131 0 LINE",
"313 0 LINE",
"323 90 LINE",
"147 80 LINE",
"131 80 LINE"
);
}
);
width = 352;
},
{
anchors = (
{
name = bottom;
position = "{166, 0}";
},
{
name = ogonek;
position = "{299, 10}";
},
{
name = top;
position = "{166, 500}";
}
);
components = (
{
name = i;
transform = "{1, 0, 0, 1, 0, 0}";
}
);
layerId = "36D4513E-7F15-4625-822B-04E8DB781DDB";
leftMetricsKey = i;
rightMetricsKey = "=i*.6";
name = Bold;
paths = (
{
closed = 1;
nodes = (
"135 215 LINE",
"305 208 LINE",
"305 318 LINE",
"135 312 LINE"
);
},
{
closed = 1;
nodes = (
"135 385 LINE",
"171 385 LINE",
"327 378 LINE",
"315 500 LINE",
"135 500 LINE"
);
},
{
closed = 1;
nodes = (
"135 0 LINE",
"325 0 LINE",
"337 122 LINE",
"176 115 LINE",
"135 115 LINE"
);
}
);
width = 355;
}
);
leftKerningGroup = i;
leftMetricsKey = I;
rightKerningGroup = e;
rightMetricsKey = E;
unicode = 0065;
},
{
glyphname = f;
lastChange = "2015-01-09 05:31:12 +0000";
layers = (
{
components = (
{
name = i;
transform = "{1, 0, 0, 1, 0, 0}";
}
);
layerId = "D6DE3449-A573-450B-B2C8-FE4A922B890A";
name = Regular;
paths = (
{
closed = 1;
nodes = (
"124 221 LINE",
"304 216 LINE",
"304 306 LINE",
"124 301 LINE"
);
},
{
closed = 1;
nodes = (
"124 417 LINE",
"225 417 LINE",
"318 417 LINE",
"313 500 LINE",
"124 500 LINE"
);
}
);
width = 338;
},
{
components = (
{
name = i;
transform = "{1, 0, 0, 1, 0, 0}";
}
);
layerId = "36D4513E-7F15-4625-822B-04E8DB781DDB";
leftMetricsKey = i;
name = Bold;
paths = (
{
closed = 1;
nodes = (
"134 194 LINE",
"305 187 LINE",
"305 297 LINE",
"134 291 LINE"
);
},
{
closed = 1;
nodes = (
"134 385 LINE",
"216 385 LINE",
"325 385 LINE",
"315 500 LINE",
"134 500 LINE"
);
}
);
width = 335;
}
);
leftKerningGroup = i;
leftMetricsKey = i;
rightKerningGroup = f;
unicode = 0066;
},
{
glyphname = g;
lastChange = "2015-01-12 06:14:38 +0000";
layers = (
{
anchors = (
{
name = top;
position = "{202, 500}";
}
);
layerId = "D6DE3449-A573-450B-B2C8-FE4A922B890A";
leftMetricsKey = o;
rightMetricsKey = c;
name = Regular;
paths = (
{
closed = 1;
nodes = (
"359 266 LINE",
"220 266 LINE",
"220 253 LINE",
"263 197 LINE",
"263 102 LINE",
"238 80 LINE",
"174 80 LINE",
"148 102 LINE",
"148 402 LINE",
"175 425 LINE",
"237 425 LINE",
"264 402 LINE",
"264 317 LINE",
"374 317 LINE",
"374 418 LINE",
"271 500 LINE",
"136 500 LINE",
"33 411 LINE",
"33 89 LINE",
"136 0 LINE",
"274 0 LINE",
"373 86 LINE",
"373 245 LINE"
);
}
);
width = 404;
},
{
anchors = (
{
name = top;
position = "{228, 500}";
}
);
layerId = "36D4513E-7F15-4625-822B-04E8DB781DDB";
leftMetricsKey = o;
rightMetricsKey = c;
name = Bold;
paths = (
{
closed = 1;
nodes = (
"416 279 LINE",
"227 279 LINE",
"227 245 LINE",
"270 189 LINE",
"270 139 LINE",
"246 120 LINE",
"219 120 LINE",
"195 140 LINE",
"195 365 LINE",
"219 385 LINE",
"250 385 LINE",
"271 366 LINE",
"271 316 LINE",
"437 316 LINE",
"437 409 LINE",
"325 500 LINE",
"139 500 LINE",
"20 397 LINE",
"20 103 LINE",
"139 0 LINE",
"328 0 LINE",
"438 94 LINE",
"438 247 LINE"
);
}
);
width = 456;
}
);
leftKerningGroup = o;
leftMetricsKey = G;
rightKerningGroup = o;
rightMetricsKey = G;
unicode = 0067;
},
{
glyphname = h;
lastChange = "2015-01-03 18:32:02 +0000";
layers = (
{
anchors = (
{
name = center;
position = "{221, 250}";
},
{
name = top;
position = "{221, 500}";
}
);
components = (
{
name = i;
transform = "{1, 0, 0, 1, 0, 0}";
},
{
name = i;
transform = "{1, 0, 0, 1, 227, 0}";
}
);
layerId = "D6DE3449-A573-450B-B2C8-FE4A922B890A";
leftMetricsKey = i;
rightMetricsKey = i;
name = Regular;
paths = (
{
closed = 1;
nodes = (
"121 218 LINE",
"306 218 LINE",
"306 308 LINE",
"121 308 LINE"
);
}
);
width = 442;
},
{
anchors = (
{
name = center;
position = "{225, 250}";
},
{
name = top;
position = "{225, 500}";
}
);
components = (
{
name = i;
transform = "{1, 0, 0, 1, 0, 0}";
},
{
name = i;
transform = "{1, 0, 0, 1, 239, 0}";
}
);
layerId = "36D4513E-7F15-4625-822B-04E8DB781DDB";
leftMetricsKey = i;
rightMetricsKey = i;
name = Bold;
paths = (
{
closed = 1;
nodes = (
"125 207 LINE",
"315 207 LINE",
"315 317 LINE",
"125 317 LINE"
);
}
);
width = 470;
}
);
leftKerningGroup = i;
leftMetricsKey = I;
rightKerningGroup = i;
rightMetricsKey = I;
unicode = 0068;
},
{
glyphname = i;
lastChange = "2015-01-04 05:09:56 +0000";
layers = (
{
layerId = "D6DE3449-A573-450B-B2C8-FE4A922B890A";
rightMetricsKey = "=|";
name = Regular;
paths = (
{
closed = 1;
nodes = (
"50 500 LINE",
"50 0 LINE",
"165 0 LINE",
"165 500 LINE"
);
}
);
width = 215;
},
{
layerId = "36D4513E-7F15-4625-822B-04E8DB781DDB";
rightMetricsKey = "=|";
name = Bold;
paths = (
{
closed = 1;
nodes = (
"30 500 LINE",
"30 0 LINE",
"201 0 LINE",
"201 500 LINE"
);
}
);
width = 231;
}
);
leftKerningGroup = i;
rightKerningGroup = i;
rightMetricsKey = I;
unicode = 0069;
},
{
glyphname = j;
lastChange = "2015-01-03 18:32:04 +0000";
layers = (
{
layerId = "D6DE3449-A573-450B-B2C8-FE4A922B890A";
leftMetricsKey = "=|c*.2";
rightMetricsKey = u;
name = Regular;
paths = (
{
closed = 1;
nodes = (
"231 500 LINE",
"231 116 LINE",
"192 81 LINE",
"147 81 LINE",
"108 110 LINE",
"107 210 LINE",
"6 210 LINE",
"6 80 LINE",
"112 0 LINE",
"243 0 LINE",
"346 89 LINE",
"346 500 LINE"
);
}
);
width = 376;
},
{
layerId = "36D4513E-7F15-4625-822B-04E8DB781DDB";
leftMetricsKey = "=|c*.3";
name = Bold;
paths = (
{
closed = 1;
nodes = (
"223 500 LINE",
"223 136 LINE",
"202 118 LINE",
"183 118 LINE",
"163 133 LINE",
"162 239 LINE",
"5 239 LINE",
"5 89 LINE",
"113 0 LINE",
"279 0 LINE",
"394 99 LINE",
"394 500 LINE"
);
}
);
width = 412;
}
);
leftKerningGroup = j;
leftMetricsKey = "=|c*.6";
rightKerningGroup = u;
rightMetricsKey = u;
unicode = 006A;
},
{
glyphname = k;
lastChange = "2015-01-12 06:28:42 +0000";
layers = (
{
anchors = (
{
name = bottom;
position = "{195, 0}";
}
);
components = (
{
name = dotlessi;
transform = "{1, 0, 0, 1, 0, 0}";
}
);
layerId = "D6DE3449-A573-450B-B2C8-FE4A922B890A";
leftMetricsKey = i;
name = Regular;
paths = (
{
closed = 1;
nodes = (
"286 500 LINE",
"192 303 LINE",
"164 279 LINE",
"164 159 LINE",
"279 264 LINE",
"404 500 LINE"
);
},
{
closed = 1;
nodes = (
"189 249 LINE",
"301 0 LINE",
"424 0 LINE",
"260 320 LINE"
);
}
);
width = 419;
},
{
anchors = (
{
name = bottom;
position = "{234, 0}";
}
);
components = (
{
name = dotlessi;
transform = "{1, 0, 0, 1, 0, 0}";
}
);
layerId = "36D4513E-7F15-4625-822B-04E8DB781DDB";
name = Bold;
paths = (
{
closed = 1;
nodes = (
"290 500 LINE",
"219 333 LINE",
"193 311 LINE",
"193 129 LINE",
"361 279 LINE",
"477 500 LINE"
);
},
{
closed = 1;
nodes = (
"226 226 LINE",
"293 0 LINE",
"480 0 LINE",
"360 326 LINE"
);
}
);
width = 469;
}
);
leftKerningGroup = i;
leftMetricsKey = i;
rightKerningGroup = k;
unicode = 006B;
},
{
glyphname = l;
lastChange = "2015-01-12 06:18:18 +0000";
layers = (
{
anchors = (
{
name = bottom;
position = "{168, 0}";
},
{
name = top;
position = "{168, 500}";
},
{
name = topright;
position = "{316, 500}";
}
);
components = (
{
name = i;
transform = "{1, 0, 0, 1, 0, 0}";
}
);
layerId = "D6DE3449-A573-450B-B2C8-FE4A922B890A";
leftMetricsKey = i;
name = Regular;
paths = (
{
closed = 1;
nodes = (
"134 83 LINE",
"133 0 LINE",
"327 0 LINE",
"336 93 LINE"
);
}
);
width = 336;
},
{
anchors = (
{
name = bottom;
position = "{169, 0}";
},
{
name = top;
position = "{169, 500}";
},
{
name = topright;
position = "{318, 500}";
}
);
components = (
{
name = i;
transform = "{1, 0, 0, 1, 0, 0}";
}
);
layerId = "36D4513E-7F15-4625-822B-04E8DB781DDB";
leftMetricsKey = i;
name = Bold;
paths = (
{
closed = 1;
nodes = (
"100 126 LINE",
"100 0 LINE",
"324 0 LINE",
"338 136 LINE"
);
}
);
width = 338;
}
);
leftKerningGroup = i;
leftMetricsKey = L;
rightKerningGroup = l;
unicode = 006C;
},
{
glyphname = lslash;
lastChange = "2015-01-04 05:17:17 +0000";
layers = (
{
components = (
{
name = l;
transform = "{1, 0, 0, 1, 41, 0}";
}
);
layerId = "D6DE3449-A573-450B-B2C8-FE4A922B890A";
leftMetricsKey = hyphen;
rightMetricsKey = l;
name = Regular;
paths = (
{
closed = 1;
nodes = (
"15 189 LINE",
"316 272 LINE",
"316 355 LINE",
"15 272 LINE"
);
}
);
width = 377;
},
{
components = (
{
name = l;
transform = "{1, 0, 0, 1, 54, 0}";
}
);
layerId = "36D4513E-7F15-4625-822B-04E8DB781DDB";
name = Bold;
paths = (
{
closed = 1;
nodes = (
"24 122 LINE",
"355 212 LINE",
"355 365 LINE",
"24 275 LINE"
);
}
);
width = 392;
}
);
leftKerningGroup = lslash;
leftMetricsKey = hyphen;
rightKerningGroup = lslash;
rightMetricsKey = l;
unicode = 0142;
},
{
glyphname = m;
lastChange = "2015-01-12 06:28:59 +0000";
layers = (
{
layerId = "D6DE3449-A573-450B-B2C8-FE4A922B890A";
leftMetricsKey = i;
rightMetricsKey = i;
name = Regular;
paths = (
{
closed = 1;
nodes = (
"121 500 LINE",
"135 458 LINE",
"175 397 LINE",
"198 262 LINE",
"252 0 LINE",
"322 0 LINE",
"238 500 LINE"
);
},
{
closed = 1;
nodes = (
"50 500 LINE",
"50 0 LINE",
"157 0 LINE",
"157 262 LINE",
"160 397 LINE",
"195 458 LINE",
"211 500 LINE"
);
},
{
closed = 1;
nodes = (
"392 500 LINE",
"406 458 LINE",
"443 397 LINE",
"442 262 LINE",
"442 0 LINE",
"549 0 LINE",
"549 500 LINE"
);
},
{
closed = 1;
nodes = (
"365 500 LINE",
"273 0 LINE",
"342 0 LINE",
"399 262 LINE",
"428 397 LINE",
"466 458 LINE",
"482 500 LINE"
);
}
);
width = 599;
},
{
layerId = "36D4513E-7F15-4625-822B-04E8DB781DDB";
leftMetricsKey = i;
rightMetricsKey = i;
name = Bold;
paths = (
{
closed = 1;
nodes = (
"88 500 LINE",
"145 434 LINE",
"213 374 LINE",
"227 257 LINE",
"253 0 LINE",
"326 0 LINE",
"295 500 LINE"
);
},
{
closed = 1;
nodes = (
"25 500 LINE",
"25 0 LINE",
"196 0 LINE",
"196 257 LINE",
"197 375 LINE",
"260 434 LINE",
"279 500 LINE"
);
},
{
closed = 1;
nodes = (
"350 500 LINE",
"367 434 LINE",
"432 374 LINE",
"434 257 LINE",
"434 0 LINE",
"605 0 LINE",
"605 500 LINE"
);
},
{
closed = 1;
nodes = (
"335 500 LINE",
"305 0 LINE",
"377 0 LINE",
"402 257 LINE",
"416 375 LINE",
"482 434 LINE",
"537 500 LINE"
);
}
);
width = 630;
}
);
leftKerningGroup = i;
leftMetricsKey = I;
rightKerningGroup = i;
rightMetricsKey = I;
unicode = 006D;
},
{
glyphname = n;
lastChange = "2015-01-12 06:06:16 +0000";
layers = (
{
anchors = (
{
name = bottom;
position = "{219, 0}";
},
{
name = top;
position = "{219, 500}";
}
);
layerId = "D6DE3449-A573-450B-B2C8-FE4A922B890A";
leftMetricsKey = i;
rightMetricsKey = i;
name = Regular;
paths = (
{
closed = 1;
nodes = (
"286 500 LINE",
"286 266 LINE",
"289 213 LINE",
"285 205 LINE",
"278 212 LINE",
"254 270 LINE",
"165 500 LINE",
"50 500 LINE",
"50 0 LINE",
"165 0 LINE",
"165 210 LINE",
"162 285 LINE",
"167 295 LINE",
"176 287 LINE",
"205 215 LINE",
"286 26 LINE",
"286 0 LINE",
"401 0 LINE",
"401 500 LINE"
);
}
);
width = 451;
},
{
anchors = (
{
name = bottom;
position = "{244, 0}";
},
{
name = top;
position = "{244, 500}";
}
);
layerId = "36D4513E-7F15-4625-822B-04E8DB781DDB";
leftMetricsKey = i;
rightMetricsKey = i;
name = Bold;
paths = (
{
closed = 1;
nodes = (
"295 500 LINE",
"295 352 LINE",
"299 260 LINE",
"295 247 LINE",
"285 257 LINE",
"258 343 LINE",
"199 500 LINE",
"30 500 LINE",
"30 0 LINE",
"201 0 LINE",
"201 156 LINE",
"194 250 LINE",
"198 264 LINE",
"208 254 LINE",
"234 183 LINE",
"295 25 LINE",
"295 0 LINE",
"466 0 LINE",
"466 500 LINE"
);
}
);
width = 496;
}
);
leftKerningGroup = i;
leftMetricsKey = I;
rightKerningGroup = i;
rightMetricsKey = I;
unicode = 006E;
},
{
glyphname = eng;
lastChange = "2015-01-04 05:12:42 +0000";
layers = (
{
anchors = (
{
name = bottom;
position = "{219, 0}";
},
{
name = top;
position = "{219, 500}";
}
);
layerId = "D6DE3449-A573-450B-B2C8-FE4A922B890A";
leftMetricsKey = n;
rightMetricsKey = n;
name = Regular;
paths = (
{
closed = 1;
nodes = (
"281 500 LINE",
"281 262 LINE",
"284 209 LINE",
"280 201 LINE",
"273 208 LINE",
"252 266 LINE",
"165 500 LINE",
"50 500 LINE",
"50 0 LINE",
"165 0 LINE",
"165 215 LINE",
"162 290 LINE",
"167 300 LINE",
"176 292 LINE",
"203 220 LINE",
"281 31 LINE",
"281 -132 LINE",
"242 -167 LINE",
"202 -167 LINE",
"163 -138 LINE",
"162 -68 LINE",
"61 -68 LINE",
"61 -168 LINE",
"167 -248 LINE",
"293 -248 LINE",
"396 -159 LINE",
"396 500 LINE"
);
}
);
width = 446;
},
{
anchors = (
{
name = bottom;
position = "{246, 0}";
},
{
name = top;
position = "{246, 500}";
}
);
layerId = "36D4513E-7F15-4625-822B-04E8DB781DDB";
name = Bold;
paths = (
{
closed = 1;
nodes = (
"290 500 LINE",
"290 346 LINE",
"294 254 LINE",
"290 241 LINE",
"280 251 LINE",
"256 337 LINE",
"201 500 LINE",
"30 500 LINE",
"30 0 LINE",
"201 0 LINE",
"201 162 LINE",
"194 256 LINE",
"199 270 LINE",
"210 260 LINE",
"233 189 LINE",
"290 25 LINE",
"290 -122 LINE",
"269 -140 LINE",
"250 -140 LINE",
"230 -125 LINE",
"229 -49 LINE",
"72 -49 LINE",
"72 -169 LINE",
"180 -258 LINE",
"346 -258 LINE",
"461 -159 LINE",
"461 500 LINE"
);
}
);
width = 491;
}
);
leftKerningGroup = i;
leftMetricsKey = n;
rightKerningGroup = i;
rightMetricsKey = n;
unicode = 014B;
},
{
glyphname = o;
lastChange = "2015-01-12 06:12:17 +0000";
layers = (
{
anchors = (
{
name = top;
position = "{217, 500}";
}
);
layerId = "D6DE3449-A573-450B-B2C8-FE4A922B890A";
leftMetricsKey = "=O*.8";
rightMetricsKey = "=|";
name = Regular;
paths = (
{
closed = 1;
nodes = (
"136 500 LINE",
"33 411 LINE",
"33 89 LINE",
"136 0 LINE",
"291 0 LINE",
"395 89 LINE",
"395 411 LINE",
"291 500 LINE"
);
},
{
closed = 1;
nodes = (
"280 395 LINE",
"280 111 LINE",
"246 80 LINE",
"182 80 LINE",
"148 111 LINE",
"148 395 LINE",
"182 425 LINE",
"246 425 LINE"
);
}
);
width = 428;
},
{
anchors = (
{
name = top;
position = "{236, 500}";
}
);
layerId = "36D4513E-7F15-4625-822B-04E8DB781DDB";
rightMetricsKey = "=|";
name = Bold;
paths = (
{
closed = 1;
nodes = (
"139 500 LINE",
"20 397 LINE",
"20 103 LINE",
"139 0 LINE",
"327 0 LINE",
"447 103 LINE",
"447 397 LINE",
"327 500 LINE"
);
},
{
closed = 1;
nodes = (
"272 366 LINE",
"272 140 LINE",
"249 120 LINE",
"218 120 LINE",
"195 140 LINE",
"195 366 LINE",
"218 385 LINE",
"249 385 LINE"
);
}
);
width = 467;
}
);
leftKerningGroup = o;
rightKerningGroup = o;
rightMetricsKey = O;
unicode = 006F;
},
{
glyphname = oslash;
lastChange = "2015-01-03 18:32:04 +0000";
layers = (
{
components = (
{
name = o;
transform = "{1, 0, 0, 1, 0, 0}";
}
);
layerId = "D6DE3449-A573-450B-B2C8-FE4A922B890A";
name = Regular;
paths = (
{
closed = 1;
nodes = (
"248 584 LINE",
"91 -84 LINE",
"171 -84 LINE",
"328 584 LINE"
);
}
);
width = 428;
},
{
components = (
{
name = o;
transform = "{1, 0, 0, 1, 0, 0}";
}
);
layerId = "36D4513E-7F15-4625-822B-04E8DB781DDB";
leftMetricsKey = o;
rightMetricsKey = o;
name = Bold;
paths = (
{
closed = 1;
nodes = (
"277 584 LINE",
"120 -84 LINE",
"200 -84 LINE",
"357 584 LINE"
);
}
);
width = 467;
}
);
leftKerningGroup = o;
leftMetricsKey = o;
rightKerningGroup = o;
rightMetricsKey = o;
unicode = 00F8;
},
{
glyphname = p;
lastChange = "2015-01-12 06:29:57 +0000";
layers = (
{
components = (
{
name = i;
transform = "{1, 0, 0, 1, 0, 0}";
}
);
layerId = "D6DE3449-A573-450B-B2C8-FE4A922B890A";
leftMetricsKey = i;
name = Regular;
paths = (
{
closed = 1;
nodes = (
"117 500 LINE",
"117 430 LINE",
"227 430 LINE",
"266 395 LINE",
"266 290 LINE",
"233 237 LINE",
"134 177 LINE",
"134 82 LINE",
"310 183 LINE",
"381 285 LINE",
"381 411 LINE",
"277 500 LINE"
);
}
);
width = 401;
},
{
components = (
{
name = i;
transform = "{1, 0, 0, 1, 0, 0}";
}
);
layerId = "36D4513E-7F15-4625-822B-04E8DB781DDB";
leftMetricsKey = i;
name = Bold;
paths = (
{
closed = 1;
nodes = (
"113 500 LINE",
"113 390 LINE",
"238 390 LINE",
"262 369 LINE",
"262 286 LINE",
"244 256 LINE",
"130 186 LINE",
"130 49 LINE",
"349 178 LINE",
"437 281 LINE",
"437 397 LINE",
"317 500 LINE"
);
}
);
width = 437;
}
);
leftKerningGroup = i;
leftMetricsKey = I;
rightKerningGroup = p;
unicode = 0070;
},
{
glyphname = thorn;
lastChange = "2015-01-03 18:32:02 +0000";
layers = (
{
layerId = "36D4513E-7F15-4625-822B-04E8DB781DDB";
leftMetricsKey = i;
rightMetricsKey = p;
name = Bold;
paths = (
{
closed = 1;
nodes = (
"101 450 LINE",
"101 340 LINE",
"226 340 LINE",
"250 319 LINE",
"250 256 LINE",
"232 226 LINE",
"118 156 LINE",
"118 19 LINE",
"337 148 LINE",
"425 251 LINE",
"425 347 LINE",
"305 450 LINE"
);
},
{
closed = 1;
nodes = (
"30 500 LINE",
"30 0 LINE",
"201 0 LINE",
"201 500 LINE"
);
}
);
width = 435;
},
{
layerId = "D6DE3449-A573-450B-B2C8-FE4A922B890A";
name = Regular;
paths = (
{
closed = 1;
nodes = (
"117 438 LINE",
"117 368 LINE",
"227 368 LINE",
"266 333 LINE",
"266 248 LINE",
"233 195 LINE",
"134 135 LINE",
"134 40 LINE",
"310 141 LINE",
"381 243 LINE",
"381 349 LINE",
"277 438 LINE"
);
},
{
closed = 1;
nodes = (
"50 500 LINE",
"50 0 LINE",
"165 0 LINE",
"165 500 LINE"
);
}
);
width = 401;
}
);
leftKerningGroup = i;
leftMetricsKey = i;
rightKerningGroup = thorn;
rightMetricsKey = p;
unicode = 00FE;
},
{
glyphname = q;
lastChange = "2015-01-09 05:14:06 +0000";
layers = (
{
layerId = "D6DE3449-A573-450B-B2C8-FE4A922B890A";
leftMetricsKey = o;
rightMetricsKey = "=o-8";
name = Regular;
paths = (
{
closed = 1;
nodes = (
"121 500 LINE",
"33 417 LINE",
"33 79 LINE",
"126 0 LINE",
"250 0 LINE",
"395 131 LINE",
"395 417 LINE",
"307 500 LINE"
);
},
{
closed = 1;
nodes = (
"180 256 LINE",
"109 192 LINE",
"147 159 LINE",
"176 185 LINE",
"196 185 LINE",
"215 177 LINE",
"231 159 LINE",
"245 42 LINE",
"336 -70 LINE",
"395 -70 LINE",
"416 51 LINE",
"371 51 LINE",
"360 62 LINE",
"344 198 LINE",
"246 256 LINE"
);
},
{
closed = 1;
nodes = (
"280 393 LINE",
"280 146 LINE",
"214 80 LINE",
"183 80 LINE",
"148 113 LINE",
"148 393 LINE",
"179 425 LINE",
"250 425 LINE"
);
}
);
width = 441;
},
{
layerId = "36D4513E-7F15-4625-822B-04E8DB781DDB";
leftMetricsKey = o;
rightMetricsKey = "=o-26";
name = Bold;
paths = (
{
closed = 1;
nodes = (
"135 500 LINE",
"20 402 LINE",
"20 99 LINE",
"135 0 LINE",
"281 0 LINE",
"427 145 LINE",
"427 402 LINE",
"311 500 LINE"
);
},
{
closed = 1;
nodes = (
"212 278 LINE",
"126 216 LINE",
"159 131 LINE",
"201 169 LINE",
"207 169 LINE",
"216 164 LINE",
"222 159 LINE",
"235 66 LINE",
"333 -66 LINE",
"424 -66 LINE",
"451 91 LINE",
"406 91 LINE",
"389 112 LINE",
"377 212 LINE",
"266 278 LINE"
);
},
{
closed = 1;
nodes = (
"256 376 LINE",
"256 143 LINE",
"229 118 LINE",
"204 118 LINE",
"191 128 LINE",
"191 376 LINE",
"205 388 LINE",
"242 388 LINE"
);
}
);
width = 445;
}
);
leftKerningGroup = o;
leftMetricsKey = q;
rightKerningGroup = q;
rightMetricsKey = q;
unicode = 0071;
},
{
glyphname = r;
lastChange = "2015-01-03 18:32:02 +0000";
layers = (
{
anchors = (
{
name = bottom;
position = "{207, 0}";
},
{
name = top;
position = "{207, 500}";
}
);
components = (
{
name = i;
transform = "{1, 0, 0, 1, 0, 0}";
}
);
layerId = "D6DE3449-A573-450B-B2C8-FE4A922B890A";
leftMetricsKey = i;
name = Regular;
paths = (
{
closed = 1;
nodes = (
"117 500 LINE",
"117 425 LINE",
"219 425 LINE",
"258 384 LINE",
"258 311 LINE",
"243 270 LINE",
"160 209 LINE",
"161 113 LINE",
"228 158 LINE",
"315 216 LINE",
"373 302 LINE",
"373 413 LINE",
"283 500 LINE"
);
},
{
closed = 1;
nodes = (
"228 158 LINE",
"268 0 LINE",
"385 0 LINE",
"315 216 LINE"
);
}
);
width = 413;
},
{
anchors = (
{
name = bottom;
position = "{218, 0}";
},
{
name = top;
position = "{218, 500}";
}
);
components = (
{
name = i;
transform = "{1, 0, 0, 1, 0, 0}";
}
);
layerId = "36D4513E-7F15-4625-822B-04E8DB781DDB";
leftMetricsKey = i;
name = Bold;
paths = (
{
closed = 1;
nodes = (
"106 500 LINE",
"106 388 LINE",
"226 388 LINE",
"241 373 LINE",
"241 285 LINE",
"225 257 LINE",
"156 207 LINE",
"157 74 LINE",
"231 120 LINE",
"370 216 LINE",
"415 281 LINE",
"415 409 LINE",
"325 500 LINE"
);
},
{
closed = 1;
nodes = (
"231 120 LINE",
"251 0 LINE",
"425 0 LINE",
"370 216 LINE"
);
}
);
width = 435;
}
);
leftKerningGroup = i;
leftMetricsKey = R;
rightKerningGroup = r;
unicode = 0072;
},
{
glyphname = s;
lastChange = "2015-01-12 06:13:59 +0000";
layers = (
{
anchors = (
{
name = bottom;
position = "{193, 0}";
},
{
name = top;
position = "{193, 500}";
}
);
layerId = "D6DE3449-A573-450B-B2C8-FE4A922B890A";
leftMetricsKey = "=o-5";
rightMetricsKey = "=o-5";
name = Regular;
paths = (
{
closed = 1;
nodes = (
"117 500 LINE",
"34 419 LINE",
"34 325 LINE",
"100 247 LINE",
"233 200 LINE",
"252 176 LINE",
"252 108 LINE",
"225 83 LINE",
"167 83 LINE",
"135 108 LINE",
"135 183 LINE",
"28 183 LINE",
"28 74 LINE",
"121 0 LINE",
"284 0 LINE",
"370 80 LINE",
"370 202 LINE",
"301 279 LINE",
"163 327 LINE",
"145 346 LINE",
"145 395 LINE",
"171 418 LINE",
"237 418 LINE",
"264 395 LINE",
"264 342 LINE",
"366 342 LINE",
"366 430 LINE",
"294 500 LINE"
);
}
);
width = 398;
},
{
anchors = (
{
name = bottom;
position = "{200, 0}";
},
{
name = top;
position = "{200, 500}";
}
);
layerId = "36D4513E-7F15-4625-822B-04E8DB781DDB";
leftMetricsKey = "=o-7";
rightMetricsKey = "=|";
name = Bold;
paths = (
{
closed = 1;
nodes = (
"113 500 LINE",
"18 414 LINE",
"18 303 LINE",
"72 229 LINE",
"230 189 LINE",
"243 175 LINE",
"243 132 LINE",
"223 117 LINE",
"193 117 LINE",
"174 132 LINE",
"174 177 LINE",
"13 177 LINE",
"13 81 LINE",
"118 0 LINE",
"291 0 LINE",
"407 93 LINE",
"407 224 LINE",
"353 297 LINE",
"187 339 LINE",
"175 353 LINE",
"175 373 LINE",
"192 388 LINE",
"232 388 LINE",
"247 373 LINE",
"247 342 LINE",
"402 342 LINE",
"402 417 LINE",
"314 500 LINE"
);
}
);
width = 420;
}
);
leftKerningGroup = s;
leftMetricsKey = "=o-5";
rightKerningGroup = s;
rightMetricsKey = S;
unicode = 0073;
},
{
glyphname = germandbls;
lastChange = "2015-01-09 05:56:52 +0000";
layers = (
{
anchors = (
{
name = ogonek;
position = "{210, 10}";
},
{
name = top;
position = "{110, 700}";
}
);
layerId = "36D4513E-7F15-4625-822B-04E8DB781DDB";
rightMetricsKey = b;
name = Bold;
paths = (
{
closed = 1;
nodes = (
"225 316 LINE",
"225 202 LINE",
"271 202 LINE",
"295 181 LINE",
"295 142 LINE",
"271 120 LINE",
"225 120 LINE",
"225 0 LINE",
"350 0 LINE",
"470 103 LINE",
"470 213 LINE",
"350 316 LINE"
);
},
{
closed = 1;
nodes = (
"341 500 LINE",
"140 500 LINE",
"24 397 LINE",
"24 0 LINE",
"195 0 LINE",
"195 364 LINE",
"219 385 LINE",
"262 385 LINE",
"286 364 LINE",
"286 339 LINE",
"262 317 LINE",
"225 317 LINE",
"225 220 LINE",
"341 220 LINE",
"461 323 LINE",
"461 397 LINE"
);
}
);
width = 488;
},
{
anchors = (
{
name = ogonek;
position = "{187, 10}";
},
{
name = top;
position = "{98, 700}";
}
);
layerId = "D6DE3449-A573-450B-B2C8-FE4A922B890A";
leftMetricsKey = u;
rightMetricsKey = b;
name = Regular;
paths = (
{
closed = 1;
nodes = (
"194 291 LINE",
"194 217 LINE",
"251 217 LINE",
"290 182 LINE",
"290 116 LINE",
"251 80 LINE",
"197 80 LINE",
"197 0 LINE",
"301 0 LINE",
"405 89 LINE",
"405 202 LINE",
"301 291 LINE"
);
},
{
closed = 1;
nodes = (
"294 500 LINE",
"144 500 LINE",
"40 411 LINE",
"40 0 LINE",
"155 0 LINE",
"155 390 LINE",
"194 425 LINE",
"244 425 LINE",
"283 390 LINE",
"283 328 LINE",
"244 292 LINE",
"194 292 LINE",
"194 232 LINE",
"294 232 LINE",
"398 321 LINE",
"398 411 LINE"
);
}
);
width = 435;
}
);
leftKerningGroup = germandbls;
leftMetricsKey = u;
rightKerningGroup = o;
rightMetricsKey = v;
unicode = 00DF;
},
{
glyphname = t;
lastChange = "2015-01-12 06:15:28 +0000";
layers = (
{
anchors = (
{
name = bottom;
position = "{191, 0}";
},
{
name = center;
position = "{191, 250}";
},
{
name = top;
position = "{191, 500}";
},
{
name = topright;
position = "{361, 500}";
}
);
components = (
{
disableAlignment = 1;
name = i;
transform = "{1, 0, 0, 1, 83, 0}";
}
);
layerId = "D6DE3449-A573-450B-B2C8-FE4A922B890A";
rightMetricsKey = "=|";
name = Regular;
paths = (
{
closed = 1;
nodes = (
"11 500 LINE",
"0 408 LINE",
"191 428 LINE",
"381 408 LINE",
"370 500 LINE"
);
}
);
width = 381;
},
{
anchors = (
{
name = bottom;
position = "{205, 0}";
},
{
name = center;
position = "{205, 250}";
},
{
name = top;
position = "{206, 500}";
}
);
components = (
{
disableAlignment = 1;
name = i;
transform = "{1, 0, 0, 1, 90, 0}";
}
);
layerId = "36D4513E-7F15-4625-822B-04E8DB781DDB";
rightMetricsKey = "=|";
name = Bold;
paths = (
{
closed = 1;
nodes = (
"17 500 LINE",
"0 360 LINE",
"206 390 LINE",
"410 360 LINE",
"393 500 LINE"
);
}
);
width = 410;
}
);
leftKerningGroup = t;
rightKerningGroup = t;
rightMetricsKey = T;
unicode = 0074;
},
{
glyphname = u;
lastChange = "2015-01-09 05:09:10 +0000";
layers = (
{
anchors = (
{
name = ogonek;
position = "{299, 0}";
},
{
name = top;
position = "{210, 500}";
}
);
layerId = "D6DE3449-A573-450B-B2C8-FE4A922B890A";
leftMetricsKey = "=o*1.2";
rightMetricsKey = "=o*1.2";
name = Regular;
paths = (
{
closed = 1;
nodes = (
"267 500 LINE",
"267 111 LINE",
"233 80 LINE",
"186 80 LINE",
"153 111 LINE",
"153 500 LINE",
"40 500 LINE",
"40 79 LINE",
"123 0 LINE",
"298 0 LINE",
"382 79 LINE",
"382 500 LINE"
);
}
);
width = 422;
},
{
anchors = (
{
name = ogonek;
position = "{310, 0}";
},
{
name = top;
position = "{226, 500}";
}
);
layerId = "36D4513E-7F15-4625-822B-04E8DB781DDB";
leftMetricsKey = "=o*1.2";
rightMetricsKey = "=o*1.2";
name = Bold;
paths = (
{
closed = 1;
nodes = (
"255 500 LINE",
"254 132 LINE",
"240 118 LINE",
"210 118 LINE",
"195 132 LINE",
"195 500 LINE",
"24 500 LINE",
"24 99 LINE",
"138 0 LINE",
"310 0 LINE",
"426 99 LINE",
"427 500 LINE"
);
}
);
width = 451;
}
);
leftKerningGroup = u;
leftMetricsKey = u;
rightKerningGroup = u;
rightMetricsKey = u;
unicode = 0075;
},
{
glyphname = v;
lastChange = "2015-01-12 06:24:22 +0000";
layers = (
{
layerId = "D6DE3449-A573-450B-B2C8-FE4A922B890A";
leftMetricsKey = a;
rightMetricsKey = a;
name = Regular;
paths = (
{
closed = 1;
nodes = (
"389 500 LINE",
"274 500 LINE",
"221 213 LINE",
"203 101 LINE",
"161 44 LINE",
"147 0 LINE",
"282 0 LINE"
);
},
{
closed = 1;
nodes = (
"224 44 LINE",
"184 101 LINE",
"166 213 LINE",
"115 500 LINE",
"0 500 LINE",
"107 0 LINE",
"240 0 LINE"
);
}
);
width = 390;
},
{
layerId = "36D4513E-7F15-4625-822B-04E8DB781DDB";
leftMetricsKey = a;
rightMetricsKey = a;
name = Bold;
paths = (
{
closed = 1;
nodes = (
"443 500 LINE",
"260 500 LINE",
"234 250 LINE",
"224 136 LINE",
"157 76 LINE",
"135 0 LINE",
"342 0 LINE"
);
},
{
closed = 1;
nodes = (
"278 75 LINE",
"211 135 LINE",
"203 250 LINE",
"177 500 LINE",
"-5 500 LINE",
"95 0 LINE",
"301 0 LINE"
);
}
);
width = 438;
}
);
leftKerningGroup = v;
leftMetricsKey = V;
rightKerningGroup = v;
rightMetricsKey = V;
unicode = 0076;
},
{
glyphname = w;
lastChange = "2015-01-02 05:38:53 +0000";
layers = (
{
anchors = (
{
name = top;
position = "{294, 500}";
}
);
layerId = "D6DE3449-A573-450B-B2C8-FE4A922B890A";
leftMetricsKey = v;
rightMetricsKey = v;
name = Regular;
paths = (
{
closed = 1;
nodes = (
"321 500 LINE",
"246 500 LINE",
"209 248 LINE",
"189 109 LINE",
"149 42 LINE",
"135 0 LINE",
"252 0 LINE"
);
},
{
closed = 1;
nodes = (
"213 42 LINE",
"178 109 LINE",
"158 248 LINE",
"122 500 LINE",
"0 500 LINE",
"88 0 LINE",
"229 0 LINE"
);
},
{
closed = 1;
nodes = (
"588 500 LINE",
"466 500 LINE",
"429 248 LINE",
"409 109 LINE",
"372 42 LINE",
"358 0 LINE",
"499 0 LINE"
);
},
{
closed = 1;
nodes = (
"436 42 LINE",
"398 109 LINE",
"378 248 LINE",
"342 500 LINE",
"267 500 LINE",
"335 0 LINE",
"446 0 LINE"
);
}
);
width = 588;
},
{
anchors = (
{
name = top;
position = "{322, 500}";
}
);
layerId = "36D4513E-7F15-4625-822B-04E8DB781DDB";
leftMetricsKey = v;
rightMetricsKey = v;
name = Bold;
paths = (
{
closed = 1;
nodes = (
"343 500 LINE",
"260 500 LINE",
"224 220 LINE",
"210 136 LINE",
"142 76 LINE",
"105 0 LINE",
"302 0 LINE"
);
},
{
closed = 1;
nodes = (
"262 76 LINE",
"199 135 LINE",
"196 220 LINE",
"180 500 LINE",
"-5 500 LINE",
"75 0 LINE",
"291 0 LINE"
);
},
{
closed = 1;
nodes = (
"649 500 LINE",
"463 500 LINE",
"447 220 LINE",
"443 136 LINE",
"378 76 LINE",
"361 0 LINE",
"568 0 LINE"
);
},
{
closed = 1;
nodes = (
"498 76 LINE",
"432 135 LINE",
"419 220 LINE",
"383 500 LINE",
"311 500 LINE",
"351 0 LINE",
"537 0 LINE"
);
}
);
width = 644;
}
);
leftKerningGroup = v;
leftMetricsKey = W;
rightKerningGroup = v;
rightMetricsKey = W;
unicode = 0077;
},
{
glyphname = x;
lastChange = "2015-01-09 05:45:03 +0000";
layers = (
{
layerId = "D6DE3449-A573-450B-B2C8-FE4A922B890A";
leftMetricsKey = "=|";
rightMetricsKey = "=c*.8";
name = Regular;
paths = (
{
closed = 1;
nodes = (
"275 500 LINE",
"236 396 LINE",
"216 332 LINE",
"211 328 LINE",
"207 332 LINE",
"187 396 LINE",
"149 500 LINE",
"24 500 LINE",
"162 209 LINE",
"162 304 LINE",
"24 0 LINE",
"149 0 LINE",
"185 108 LINE",
"205 176 LINE",
"211 181 LINE",
"218 175 LINE",
"238 108 LINE",
"275 0 LINE",
"401 0 LINE",
"265 304 LINE",
"264 208 LINE",
"401 500 LINE"
);
}
);
width = 425;
},
{
layerId = "36D4513E-7F15-4625-822B-04E8DB781DDB";
leftMetricsKey = "=|";
rightMetricsKey = "=c*.8";
name = Bold;
paths = (
{
closed = 1;
nodes = (
"262 500 LINE",
"240 368 LINE",
"232 320 LINE",
"227 315 LINE",
"222 320 LINE",
"215 368 LINE",
"193 500 LINE",
"14 500 LINE",
"125 188 LINE",
"123 336 LINE",
"14 0 LINE",
"193 0 LINE",
"215 126 LINE",
"222 161 LINE",
"227 164 LINE",
"232 161 LINE",
"240 126 LINE",
"262 0 LINE",
"442 0 LINE",
"338 336 LINE",
"336 187 LINE",
"442 500 LINE"
);
}
);
width = 456;
}
);
leftKerningGroup = x;
leftMetricsKey = "=|";
rightKerningGroup = x;
rightMetricsKey = "=c";
unicode = 0078;
},
{
glyphname = y;
lastChange = "2015-01-09 05:59:19 +0000";
layers = (
{
anchors = (
{
name = top;
position = "{200, 500}";
}
);
layerId = "D6DE3449-A573-450B-B2C8-FE4A922B890A";
leftMetricsKey = v;
rightMetricsKey = v;
name = Regular;
paths = (
{
closed = 1;
nodes = (
"400 500 LINE",
"279 500 LINE",
"232 347 LINE",
"206 263 LINE",
"166 231 LINE",
"152 200 LINE",
"250 109 LINE"
);
},
{
closed = 1;
nodes = (
"230 231 LINE",
"192 263 LINE",
"166 347 LINE",
"120 500 LINE",
"0 500 LINE",
"148 102 LINE",
"246 200 LINE"
);
},
{
closed = 1;
nodes = (
"140 253 LINE",
"140 0 LINE",
"255 0 LINE",
"255 253 LINE"
);
}
);
width = 400;
},
{
anchors = (
{
name = top;
position = "{211, 500}";
}
);
layerId = "36D4513E-7F15-4625-822B-04E8DB781DDB";
leftMetricsKey = v;
rightMetricsKey = v;
name = Bold;
paths = (
{
closed = 1;
nodes = (
"427 500 LINE",
"248 500 LINE",
"226 363 LINE",
"217 289 LINE",
"149 239 LINE",
"127 213 LINE",
"285 74 LINE"
);
},
{
closed = 1;
nodes = (
"269 239 LINE",
"203 288 LINE",
"195 363 LINE",
"174 500 LINE",
"-5 500 LINE",
"130 93 LINE",
"293 213 LINE"
);
},
{
closed = 1;
nodes = (
"124 245 LINE",
"124 0 LINE",
"295 0 LINE",
"295 245 LINE"
);
}
);
width = 422;
}
);
leftKerningGroup = y;
leftMetricsKey = Y;
rightKerningGroup = y;
rightMetricsKey = Y;
unicode = 0079;
},
{
glyphname = z;
lastChange = "2015-01-09 05:47:34 +0000";
layers = (
{
anchors = (
{
name = top;
position = "{181, 500}";
}
);
layerId = "D6DE3449-A573-450B-B2C8-FE4A922B890A";
leftMetricsKey = x;
rightMetricsKey = x;
name = Regular;
paths = (
{
closed = 1;
nodes = (
"239 500 LINE",
"173 386 LINE",
"24 30 LINE",
"24 0 LINE",
"118 0 LINE",
"184 113 LINE",
"338 470 LINE",
"338 500 LINE"
);
},
{
closed = 1;
nodes = (
"210 85 LINE",
"74 85 LINE",
"74 0 LINE",
"321 0 LINE",
"330 91 LINE"
);
},
{
closed = 1;
nodes = (
"47 500 LINE",
"36 409 LINE",
"164 415 LINE",
"279 415 LINE",
"279 500 LINE"
);
}
);
width = 362;
},
{
anchors = (
{
name = top;
position = "{192, 500}";
}
);
layerId = "36D4513E-7F15-4625-822B-04E8DB781DDB";
name = Bold;
paths = (
{
closed = 1;
nodes = (
"214 500 LINE",
"157 368 LINE",
"23 104 LINE",
"14 0 LINE",
"163 0 LINE",
"233 130 LINE",
"369 423 LINE",
"369 500 LINE"
);
},
{
closed = 1;
nodes = (
"254 115 LINE",
"97 115 LINE",
"97 0 LINE",
"358 0 LINE",
"368 122 LINE"
);
},
{
closed = 1;
nodes = (
"30 500 LINE",
"18 378 LINE",
"128 385 LINE",
"224 385 LINE",
"224 500 LINE"
);
}
);
width = 383;
}
);
leftKerningGroup = z;
leftMetricsKey = x;
rightKerningGroup = z;
rightMetricsKey = x;
unicode = 007A;
},
{
glyphname = zero;
lastChange = "2015-01-03 18:32:04 +0000";
layers = (
{
layerId = "D6DE3449-A573-450B-B2C8-FE4A922B890A";
leftMetricsKey = O;
rightMetricsKey = O;
name = Regular;
paths = (
{
closed = 1;
nodes = (
"144 700 LINE",
"41 611 LINE",
"41 89 LINE",
"144 0 LINE",
"224 0 LINE",
"224 80 LINE",
"190 80 LINE",
"156 111 LINE",
"156 594 LINE",
"190 625 LINE",
"264 625 LINE",
"264 700 LINE"
);
},
{
closed = 1;
nodes = (
"219 700 LINE",
"219 625 LINE",
"240 625 LINE",
"274 594 LINE",
"274 111 LINE",
"239 80 LINE",
"219 80 LINE",
"219 0 LINE",
"285 0 LINE",
"389 89 LINE",
"389 611 LINE",
"285 700 LINE"
);
}
);
width = 430;
},
{
layerId = "36D4513E-7F15-4625-822B-04E8DB781DDB";
leftMetricsKey = O;
rightMetricsKey = O;
name = Bold;
paths = (
{
closed = 1;
nodes = (
"145 700 LINE",
"30 602 LINE",
"30 99 LINE",
"145 0 LINE",
"267 0 LINE",
"267 118 LINE",
"216 118 LINE",
"201 130 LINE",
"201 577 LINE",
"217 588 LINE",
"267 588 LINE",
"267 700 LINE"
);
},
{
closed = 1;
nodes = (
"200 700 LINE",
"200 588 LINE",
"237 588 LINE",
"252 577 LINE",
"252 130 LINE",
"237 118 LINE",
"200 118 LINE",
"200 0 LINE",
"308 0 LINE",
"424 99 LINE",
"424 602 LINE",
"308 700 LINE"
);
}
);
width = 454;
}
);
leftKerningGroup = O;
leftMetricsKey = O;
rightKerningGroup = O;
rightMetricsKey = O;
unicode = 0030;
},
{
glyphname = one;
lastChange = "2015-01-04 05:35:39 +0000";
layers = (
{
layerId = "D6DE3449-A573-450B-B2C8-FE4A922B890A";
leftMetricsKey = "=I-20";
rightMetricsKey = I;
name = Regular;
paths = (
{
closed = 1;
nodes = (
"69 614 LINE",
"69 0 LINE",
"184 0 LINE",
"184 700 LINE",
"59 700 LINE",
"35 625 LINE",
"35 614 LINE"
);
}
);
width = 239;
},
{
layerId = "36D4513E-7F15-4625-822B-04E8DB781DDB";
leftMetricsKey = "=I-30";
rightMetricsKey = I;
name = Bold;
paths = (
{
closed = 1;
nodes = (
"56 593 LINE",
"56 0 LINE",
"226 0 LINE",
"226 700 LINE",
"40 700 LINE",
"10 604 LINE",
"10 593 LINE"
);
}
);
width = 266;
}
);
leftKerningGroup = one;
leftMetricsKey = I;
rightKerningGroup = one;
rightMetricsKey = I;
unicode = 0031;
},
{
glyphname = two;
lastChange = "2015-01-09 05:40:02 +0000";
layers = (
{
layerId = "D6DE3449-A573-450B-B2C8-FE4A922B890A";
leftMetricsKey = S;
rightMetricsKey = S;
name = Regular;
paths = (
{
closed = 1;
nodes = (
"132 700 LINE",
"34 618 LINE",
"34 478 LINE",
"140 478 LINE",
"140 594 LINE",
"168 620 LINE",
"209 620 LINE",
"237 594 LINE",
"237 481 LINE",
"227 456 LINE",
"32 185 LINE",
"32 69 LINE",
"109 0 LINE",
"334 0 LINE",
"339 91 LINE",
"171 91 LINE",
"150 111 LINE",
"150 159 LINE",
"161 183 LINE",
"304 379 LINE",
"348 473 LINE",
"348 611 LINE",
"248 700 LINE"
);
}
);
width = 380;
},
{
layerId = "36D4513E-7F15-4625-822B-04E8DB781DDB";
leftMetricsKey = S;
rightMetricsKey = S;
name = Bold;
paths = (
{
closed = 1;
nodes = (
"138 700 LINE",
"26 614 LINE",
"26 460 LINE",
"185 460 LINE",
"185 572 LINE",
"199 584 LINE",
"220 584 LINE",
"232 574 LINE",
"232 477 LINE",
"223 449 LINE",
"28 198 LINE",
"28 79 LINE",
"118 0 LINE",
"385 0 LINE",
"392 143 LINE",
"214 143 LINE",
"202 153 LINE",
"202 153 LINE",
"211 168 LINE",
"365 355 LINE",
"399 447 LINE",
"399 602 LINE",
"288 700 LINE"
);
}
);
width = 425;
}
);
leftKerningGroup = two;
leftMetricsKey = S;
rightKerningGroup = two;
rightMetricsKey = S;
unicode = 0032;
},
{
glyphname = three;
lastChange = "2015-01-09 05:34:43 +0000";
layers = (
{
layerId = "D6DE3449-A573-450B-B2C8-FE4A922B890A";
leftMetricsKey = "=|C";
rightMetricsKey = B;
name = Regular;
paths = (
{
closed = 1;
nodes = (
"256 700 LINE",
"123 700 LINE",
"31 620 LINE",
"31 491 LINE",
"131 491 LINE",
"131 594 LINE",
"166 625 LINE",
"205 625 LINE",
"238 594 LINE",
"238 451 LINE",
"202 418 LINE",
"115 418 LINE",
"115 355 LINE",
"249 355 LINE",
"353 444 LINE",
"353 618 LINE"
);
},
{
closed = 1;
nodes = (
"256 413 LINE",
"115 415 LINE",
"115 338 LINE",
"210 338 LINE",
"245 306 LINE",
"245 115 LINE",
"208 81 LINE",
"170 81 LINE",
"131 114 LINE",
"131 210 LINE",
"29 210 LINE",
"29 84 LINE",
"135 0 LINE",
"256 0 LINE",
"360 89 LINE",
"360 324 LINE"
);
}
);
width = 391;
},
{
layerId = "36D4513E-7F15-4625-822B-04E8DB781DDB";
name = Bold;
paths = (
{
closed = 1;
nodes = (
"301 700 LINE",
"140 700 LINE",
"31 611 LINE",
"31 472 LINE",
"190 472 LINE",
"190 571 LINE",
"208.667 585 LINE",
"228 585 LINE",
"246 568 LINE",
"246 457 LINE",
"229 441 LINE",
"145 441 LINE",
"145 367 LINE",
"325 367 LINE",
"421 450 LINE",
"421 597 LINE"
);
},
{
closed = 1;
nodes = (
"308 424 LINE",
"145 424 LINE",
"145 301 LINE",
"229 301 LINE",
"253 280 LINE",
"253 138 LINE",
"233 120 LINE",
"208 120 LINE",
"188 137 LINE",
"188 242 LINE",
"26 242 LINE",
"26 99 LINE",
"149 0 LINE",
"308 0 LINE",
"428 103 LINE",
"428 322 LINE"
);
}
);
width = 453;
}
);
leftKerningGroup = three;
leftMetricsKey = "=|C";
rightKerningGroup = O;
rightMetricsKey = B;
unicode = 0033;
},
{
glyphname = four;
lastChange = "2015-01-09 05:39:41 +0000";
layers = (
{
components = (
{
name = I;
transform = "{1, 0, 0, 1, 148, 0}";
}
);
layerId = "D6DE3449-A573-450B-B2C8-FE4A922B890A";
name = Regular;
paths = (
{
closed = 1;
nodes = (
"171 700 LINE",
"20 312 LINE",
"20 255 LINE",
"70 166 LINE",
"375 166 LINE",
"380 247 LINE",
"144 247 LINE",
"128 271 LINE",
"128 289 LINE",
"180 495 LINE",
"195 582 LINE",
"237 600 LINE",
"237 700 LINE"
);
}
);
width = 380;
},
{
components = (
{
name = I;
transform = "{1, 0, 0, 1, 173, 0}";
}
);
layerId = "36D4513E-7F15-4625-822B-04E8DB781DDB";
name = Bold;
paths = (
{
closed = 1;
nodes = (
"153 700 LINE",
"10 316 LINE",
"10 257 LINE",
"68 156 LINE",
"420 156 LINE",
"426 274 LINE",
"166 274 LINE",
"162 279 LINE",
"162 291 LINE",
"195 477 LINE",
"208 545 LINE",
"252 554 LINE",
"289 700 LINE"
);
}
);
width = 421;
}
);
leftKerningGroup = four;
rightKerningGroup = four;
unicode = 0034;
},
{
glyphname = five;
lastChange = "2014-12-30 08:24:13 +0000";
layers = (
{
layerId = "D6DE3449-A573-450B-B2C8-FE4A922B890A";
name = Regular;
paths = (
{
closed = 1;
nodes = (
"40 700 LINE",
"40 394 LINE",
"93 340 LINE",
"194 340 LINE",
"223 315 LINE",
"223 106 LINE",
"195 81 LINE",
"161 81 LINE",
"141 100 LINE",
"141 249 LINE",
"32 249 LINE",
"32 74 LINE",
"125 0 LINE",
"239 0 LINE",
"341 89 LINE",
"341 356 LINE",
"262 427 LINE",
"151 427 LINE",
"151 612 LINE",
"317 612 LINE",
"326 700 LINE"
);
}
);
width = 373;
},
{
layerId = "36D4513E-7F15-4625-822B-04E8DB781DDB";
leftMetricsKey = S;
rightMetricsKey = S;
name = Bold;
paths = (
{
closed = 1;
nodes = (
"33 700 LINE",
"33 394 LINE",
"101 319 LINE",
"201 321 LINE",
"221 299 LINE",
"221 130 LINE",
"205 118 LINE",
"194 118 LINE",
"183 130 LINE",
"183 258 LINE",
"26 258 LINE",
"26 84 LINE",
"129 0 LINE",
"281 0 LINE",
"394 99 LINE",
"394 380 LINE",
"310 464 LINE",
"201 464 LINE",
"201 564 LINE",
"367 564 LINE",
"381 700 LINE"
);
}
);
width = 420;
}
);
leftKerningGroup = five;
leftMetricsKey = S;
rightKerningGroup = five;
rightMetricsKey = S;
unicode = 0035;
},
{
glyphname = six;
lastChange = "2015-01-03 18:32:04 +0000";
layers = (
{
layerId = "D6DE3449-A573-450B-B2C8-FE4A922B890A";
name = Regular;
paths = (
{
closed = 1;
nodes = (
"146 700 LINE",
"41 611 LINE",
"41 84 LINE",
"146 0 LINE",
"270 0 LINE",
"374 89 LINE",
"374 344 LINE",
"270 433 LINE",
"187 433 LINE",
"147 392 LINE",
"147 316 LINE",
"186 353 LINE",
"225 353 LINE",
"259 323 LINE",
"259 113 LINE",
"225 81 LINE",
"191 81 LINE",
"157 110 LINE",
"157 596 LINE",
"191 625 LINE",
"237 625 LINE",
"266 600 LINE",
"266 491 LINE",
"376 491 LINE",
"376 620 LINE",
"284 700 LINE"
);
}
);
width = 408;
},
{
layerId = "36D4513E-7F15-4625-822B-04E8DB781DDB";
leftMetricsKey = O;
rightMetricsKey = five;
name = Bold;
paths = (
{
closed = 1;
nodes = (
"150 700 LINE",
"30 597 LINE",
"30 99 LINE",
"147 0 LINE",
"317 0 LINE",
"437 103 LINE",
"437 326 LINE",
"317 428 LINE",
"232 428 LINE",
"199 401 LINE",
"199 287 LINE",
"221 305 LINE",
"245 305 LINE",
"262 288 LINE",
"262 136 LINE",
"247 120 LINE",
"220 120 LINE",
"204 135 LINE",
"204 569 LINE",
"220 585 LINE",
"253 585 LINE",
"270 570 LINE",
"270 472 LINE",
"429 472 LINE",
"429 616 LINE",
"329 700 LINE"
);
}
);
width = 463;
}
);
leftKerningGroup = O;
leftMetricsKey = O;
rightKerningGroup = six;
rightMetricsKey = five;
unicode = 0036;
},
{
glyphname = seven;
lastChange = "2015-01-09 05:38:45 +0000";
layers = (
{
layerId = "D6DE3449-A573-450B-B2C8-FE4A922B890A";
leftMetricsKey = Z;
rightMetricsKey = Z;
name = Regular;
paths = (
{
closed = 1;
nodes = (
"226 700 LINE",
"200 586 LINE",
"83 30 LINE",
"83 0 LINE",
"176 0 LINE",
"214 180 LINE",
"323 670 LINE",
"323 700 LINE"
);
},
{
closed = 1;
nodes = (
"42 700 LINE",
"33 612 LINE",
"160 615 LINE",
"256 615 LINE",
"256 700 LINE"
);
}
);
width = 357;
},
{
layerId = "36D4513E-7F15-4625-822B-04E8DB781DDB";
name = Bold;
paths = (
{
closed = 1;
nodes = (
"211 700 LINE",
"171 518 LINE",
"77 104 LINE",
"68 0 LINE",
"231 0 LINE",
"287 264 LINE",
"376 641 LINE",
"373 700 LINE"
);
},
{
closed = 1;
nodes = (
"36 700 LINE",
"26 585 LINE",
"145 585 LINE",
"221 585 LINE",
"221 700 LINE"
);
}
);
width = 402;
}
);
leftKerningGroup = seven;
leftMetricsKey = Z;
rightKerningGroup = seven;
rightMetricsKey = Z;
unicode = 0037;
},
{
glyphname = eight;
lastChange = "2015-01-03 18:32:04 +0000";
layers = (
{
layerId = "D6DE3449-A573-450B-B2C8-FE4A922B890A";
name = Regular;
paths = (
{
closed = 1;
nodes = (
"135 424 LINE",
"31 335 LINE",
"31 89 LINE",
"135 0 LINE",
"284 0 LINE",
"388 89 LINE",
"388 335 LINE",
"284 424 LINE"
);
},
{
closed = 1;
nodes = (
"273 319 LINE",
"273 113 LINE",
"239 81 LINE",
"180 81 LINE",
"146 113 LINE",
"146 319 LINE",
"180 350 LINE",
"239 350 LINE"
);
},
{
closed = 1;
nodes = (
"269 594 LINE",
"269 455 LINE",
"235 425 LINE",
"184 425 LINE",
"150 455 LINE",
"150 594 LINE",
"184 625 LINE",
"235 625 LINE"
);
},
{
closed = 1;
nodes = (
"139 700 LINE",
"35 611 LINE",
"35 454 LINE",
"139 365 LINE",
"280 365 LINE",
"384 454 LINE",
"384 611 LINE",
"280 700 LINE"
);
}
);
width = 419;
},
{
layerId = "36D4513E-7F15-4625-822B-04E8DB781DDB";
leftMetricsKey = "=|";
rightMetricsKey = B;
name = Bold;
paths = (
{
closed = 1;
nodes = (
"145 435 LINE",
"25 333 LINE",
"25 103 LINE",
"145 0 LINE",
"324 0 LINE",
"444 103 LINE",
"444 333 LINE",
"324 435 LINE"
);
},
{
closed = 1;
nodes = (
"269 291 LINE",
"269 138 LINE",
"249 120 LINE",
"220 120 LINE",
"200 138 LINE",
"200 291 LINE",
"224 312 LINE",
"245 312 LINE"
);
},
{
closed = 1;
nodes = (
"263 568 LINE",
"263 460 LINE",
"246 445 LINE",
"223 445 LINE",
"206 460 LINE",
"206 568 LINE",
"224 585 LINE",
"245 585 LINE"
);
},
{
closed = 1;
nodes = (
"151 700 LINE",
"31 597 LINE",
"31 453 LINE",
"107 390 LINE",
"362 390 LINE",
"438 453 LINE",
"438 597 LINE",
"318 700 LINE"
);
}
);
width = 469;
}
);
leftKerningGroup = O;
leftMetricsKey = "=|";
rightKerningGroup = O;
rightMetricsKey = B;
unicode = 0038;
},
{
glyphname = nine;
lastChange = "2015-01-03 18:32:04 +0000";
layers = (
{
layerId = "D6DE3449-A573-450B-B2C8-FE4A922B890A";
name = Regular;
paths = (
{
closed = 1;
nodes = (
"136 700 LINE",
"32 611 LINE",
"32 358 LINE",
"132 273 LINE",
"214 273 LINE",
"259 313 LINE",
"259 381 LINE",
"222 347 LINE",
"174 347 LINE",
"147 372 LINE",
"147 591 LINE",
"178 619 LINE",
"218 619 LINE",
"249 594 LINE",
"249 100 LINE",
"220 75 LINE",
"160.652 75 LINE",
"136 96 LINE",
"136 209 LINE",
"32 209 LINE",
"32 80 LINE",
"124 0 LINE",
"272 0 LINE",
"365 89 LINE",
"365 616 LINE",
"260 700 LINE"
);
}
);
width = 406;
},
{
layerId = "36D4513E-7F15-4625-822B-04E8DB781DDB";
leftMetricsKey = "=|six";
rightMetricsKey = "=|six";
name = Bold;
paths = (
{
closed = 1;
nodes = (
"146 700 LINE",
"26 597 LINE",
"26 374 LINE",
"146 272 LINE",
"231 272 LINE",
"264 299 LINE",
"264 413 LINE",
"242 395 LINE",
"218 395 LINE",
"201 412 LINE",
"201 564 LINE",
"216 580 LINE",
"243 580 LINE",
"259 565 LINE",
"259 131 LINE",
"243 115 LINE",
"206 115 LINE",
"189 130 LINE",
"189 228 LINE",
"30 228 LINE",
"30 84 LINE",
"130 0 LINE",
"313 0 LINE",
"433 103 LINE",
"433 601 LINE",
"316 700 LINE"
);
}
);
width = 463;
}
);
leftKerningGroup = nine;
leftMetricsKey = "=|six";
rightKerningGroup = O;
rightMetricsKey = "=|six";
unicode = 0039;
},
{
glyphname = one.osf;
lastChange = "2014-12-30 09:14:07 +0000";
layers = (
{
layerId = "D6DE3449-A573-450B-B2C8-FE4A922B890A";
name = Regular;
paths = (
{
closed = 1;
nodes = (
"85 414 LINE",
"85 0 LINE",
"200 0 LINE",
"200 500 LINE",
"79 500 LINE",
"55 425 LINE",
"55 414 LINE"
);
}
);
width = 255;
},
{
layerId = "36D4513E-7F15-4625-822B-04E8DB781DDB";
name = Bold;
paths = (
{
closed = 1;
nodes = (
"70 414 LINE",
"70 0 LINE",
"240 0 LINE",
"240 500 LINE",
"64 500 LINE",
"40 425 LINE",
"40 414 LINE"
);
}
);
width = 280;
}
);
leftKerningGroup = one;
leftMetricsKey = I;
rightKerningGroup = one;
rightMetricsKey = I;
},
{
glyphname = two.osf;
lastChange = "2015-01-04 05:29:46 +0000";
layers = (
{
layerId = "D6DE3449-A573-450B-B2C8-FE4A922B890A";
name = Regular;
paths = (
{
closed = 1;
nodes = (
"137 500 LINE",
"39 421 LINE",
"39 318 LINE",
"140 318 LINE",
"140 392 LINE",
"173 420 LINE",
"203 420 LINE",
"237 387 LINE",
"237 339 LINE",
"226 314 LINE",
"32 169 LINE",
"32 69 LINE",
"109 0 LINE",
"334 0 LINE",
"339 91 LINE",
"171 91 LINE",
"150 111 LINE",
"150 117 LINE",
"161 141 LINE",
"304 237 LINE",
"348 331 LINE",
"348 411 LINE",
"248 500 LINE"
);
}
);
width = 380;
},
{
layerId = "36D4513E-7F15-4625-822B-04E8DB781DDB";
name = Bold;
paths = (
{
closed = 1;
nodes = (
"138 500 LINE",
"26 414 LINE",
"26 310 LINE",
"185 310 LINE",
"185 372 LINE",
"199 384 LINE",
"220 384 LINE",
"232 374 LINE",
"232 327 LINE",
"223 299 LINE",
"28 198 LINE",
"28 79 LINE",
"118 0 LINE",
"385 0 LINE",
"392 143 LINE",
"214 143 LINE",
"202 153 LINE",
"202 153 LINE",
"211 168 LINE",
"365 205 LINE",
"399 297 LINE",
"399 402 LINE",
"288 500 LINE"
);
}
);
width = 425;
}
);
leftKerningGroup = two;
leftMetricsKey = S;
rightKerningGroup = two;
rightMetricsKey = S;
},
{
glyphname = three.osf;
lastChange = "2015-01-03 18:32:04 +0000";
layers = (
{
layerId = "D6DE3449-A573-450B-B2C8-FE4A922B890A";
name = Regular;
paths = (
{
closed = 1;
nodes = (
"130 299 LINE",
"130 224 LINE",
"216 224 LINE",
"250 194 LINE",
"250 111 LINE",
"217 81 LINE",
"157 81 LINE",
"140 0 LINE",
"261 0 LINE",
"365 89 LINE",
"365 209 LINE",
"261 299 LINE"
);
},
{
closed = 1;
nodes = (
"34 191 LINE",
"34 84 LINE",
"140 0 LINE",
"170 81 LINE",
"136 108 LINE",
"136 191 LINE"
);
},
{
closed = 1;
nodes = (
"36 420 LINE",
"36 342 LINE",
"136 342 LINE",
"136 400 LINE",
"167 427 LINE",
"128 500 LINE"
);
},
{
closed = 1;
nodes = (
"128 500 LINE",
"150 425 LINE",
"211 425 LINE",
"243 396 LINE",
"243 329 LINE",
"210 299 LINE",
"130 299 LINE",
"130 239 LINE",
"261 239 LINE",
"358 320 LINE",
"358 417 LINE",
"260 500 LINE"
);
}
);
width = 396;
},
{
layerId = "36D4513E-7F15-4625-822B-04E8DB781DDB";
name = Bold;
paths = (
{
closed = 1;
nodes = (
"153 317 LINE",
"153 204 LINE",
"229 204 LINE",
"253 183 LINE",
"253 138 LINE",
"233 120 LINE",
"184 120 LINE",
"133 0 LINE",
"318 0 LINE",
"428 93 LINE",
"428 215 LINE",
"308 317 LINE"
);
},
{
closed = 1;
nodes = (
"26 177 LINE",
"26 89 LINE",
"133 0 LINE",
"208 120 LINE",
"188 137 LINE",
"188 177 LINE"
);
},
{
closed = 1;
nodes = (
"31 416 LINE",
"31 340 LINE",
"190 340 LINE",
"190 371 LINE",
"210 386 LINE",
"130 500 LINE"
);
},
{
closed = 1;
nodes = (
"131 500 LINE",
"189 385 LINE",
"228 385 LINE",
"246 368 LINE",
"246 333 LINE",
"229 317 LINE",
"153 317 LINE",
"153 232 LINE",
"325 232 LINE",
"421 315 LINE",
"421 407 LINE",
"310 500 LINE"
);
}
);
width = 453;
}
);
leftKerningGroup = three;
leftMetricsKey = "=|C";
rightKerningGroup = O;
rightMetricsKey = B;
},
{
glyphname = four.osf;
lastChange = "2014-12-30 09:14:07 +0000";
layers = (
{
components = (
{
name = i;
transform = "{1, 0, 0, 1, 168, 0}";
}
);
layerId = "D6DE3449-A573-450B-B2C8-FE4A922B890A";
leftMetricsKey = four;
rightMetricsKey = four;
name = Regular;
paths = (
{
closed = 1;
nodes = (
"191 500 LINE",
"20 238 LINE",
"20 181 LINE",
"70 92 LINE",
"395 92 LINE",
"400 173 LINE",
"146 173 LINE",
"130 197 LINE",
"130 215 LINE",
"199 326 LINE",
"215 362 LINE",
"257 370 LINE",
"257 500 LINE"
);
}
);
width = 400;
},
{
components = (
{
name = i;
transform = "{1, 0, 0, 1, 173, 0}";
}
);
layerId = "36D4513E-7F15-4625-822B-04E8DB781DDB";
name = Bold;
paths = (
{
closed = 1;
nodes = (
"173 500 LINE",
"-5 228 LINE",
"-5 179 LINE",
"53 78 LINE",
"420 78 LINE",
"426 196 LINE",
"149 196 LINE",
"145 201 LINE",
"145 213 LINE",
"195 324 LINE",
"208 353 LINE",
"252 362 LINE",
"289 500 LINE"
);
}
);
width = 421;
}
);
},
{
glyphname = five.osf;
lastChange = "2015-01-04 05:31:21 +0000";
layers = (
{
layerId = "D6DE3449-A573-450B-B2C8-FE4A922B890A";
name = Regular;
paths = (
{
closed = 1;
nodes = (
"39 500 LINE",
"39 298 LINE",
"93 244 LINE",
"198 244 LINE",
"227 219 LINE",
"227 109 LINE",
"195 81 LINE",
"169 81 LINE",
"141 107 LINE",
"141 193 LINE",
"32 193 LINE",
"32 74 LINE",
"125 0 LINE",
"243 0 LINE",
"345 89 LINE",
"345 258 LINE",
"266 331 LINE",
"150 331 LINE",
"150 412 LINE",
"309 412 LINE",
"318 500 LINE"
);
}
);
width = 377;
},
{
layerId = "36D4513E-7F15-4625-822B-04E8DB781DDB";
name = Bold;
paths = (
{
closed = 1;
nodes = (
"33 500 LINE",
"33 276 LINE",
"108 205 LINE",
"201 207 LINE",
"221 189 LINE",
"221 130 LINE",
"207 118 LINE",
"197 118 LINE",
"183 130 LINE",
"183 181 LINE",
"26 181 LINE",
"26 84 LINE",
"129 0 LINE",
"281 0 LINE",
"394 99 LINE",
"394 252 LINE",
"310 336 LINE",
"198 336 LINE",
"198 364 LINE",
"367 364 LINE",
"381 500 LINE"
);
}
);
width = 420;
}
);
leftKerningGroup = five;
leftMetricsKey = S;
rightKerningGroup = five;
rightMetricsKey = S;
},
{
glyphname = six.osf;
lastChange = "2015-01-04 05:27:02 +0000";
layers = (
{
layerId = "D6DE3449-A573-450B-B2C8-FE4A922B890A";
name = Regular;
paths = (
{
closed = 1;
nodes = (
"146 500 LINE",
"41 411 LINE",
"41 84 LINE",
"146 0 LINE",
"270 0 LINE",
"374 89 LINE",
"374 218 LINE",
"270 307 LINE",
"193 307 LINE",
"153 269 LINE",
"153 201 LINE",
"190 233 LINE",
"220 233 LINE",
"259 198 LINE",
"259 117 LINE",
"220 81 LINE",
"196 81 LINE",
"157 116 LINE",
"157 390 LINE",
"196 425 LINE",
"229.242 425 LINE",
"264 394 LINE",
"264 351 LINE",
"364 351 LINE",
"364 420 LINE",
"272 500 LINE"
);
}
);
width = 406;
},
{
layerId = "36D4513E-7F15-4625-822B-04E8DB781DDB";
name = Bold;
paths = (
{
closed = 1;
nodes = (
"150 500 LINE",
"30 397 LINE",
"30 99 LINE",
"147 0 LINE",
"312 0 LINE",
"432 103 LINE",
"432 216 LINE",
"312 318 LINE",
"235 318 LINE",
"198 289 LINE",
"198 186 LINE",
"222 203 LINE",
"237 203 LINE",
"257 187 LINE",
"257 138 LINE",
"237 120 LINE",
"224 120 LINE",
"204 137 LINE",
"204 368 LINE",
"223 385 LINE",
"242 385 LINE",
"261 368 LINE",
"261 335 LINE",
"424 335 LINE",
"424 416 LINE",
"324 500 LINE"
);
}
);
width = 458;
}
);
leftKerningGroup = O;
leftMetricsKey = O;
rightKerningGroup = six;
rightMetricsKey = five;
},
{
glyphname = seven.osf;
lastChange = "2015-01-03 18:32:04 +0000";
layers = (
{
layerId = "D6DE3449-A573-450B-B2C8-FE4A922B890A";
name = Regular;
paths = (
{
closed = 1;
nodes = (
"211 500 LINE",
"185 386 LINE",
"68 30 LINE",
"68 0 LINE",
"176 0 LINE",
"233 193 LINE",
"323 470 LINE",
"323 500 LINE"
);
},
{
closed = 1;
nodes = (
"42 500 LINE",
"33 412 LINE",
"160 415 LINE",
"256 415 LINE",
"256 500 LINE"
);
}
);
width = 357;
},
{
layerId = "36D4513E-7F15-4625-822B-04E8DB781DDB";
name = Bold;
paths = (
{
closed = 1;
nodes = (
"221 500 LINE",
"171 338 LINE",
"77 104 LINE",
"68 0 LINE",
"231 0 LINE",
"307 234 LINE",
"376 441 LINE",
"373 500 LINE"
);
},
{
closed = 1;
nodes = (
"36 500 LINE",
"26 385 LINE",
"145 385 LINE",
"231 385 LINE",
"231 500 LINE"
);
}
);
width = 402;
}
);
leftKerningGroup = seven;
leftMetricsKey = Z;
rightKerningGroup = seven;
rightMetricsKey = Z;
},
{
glyphname = eight.osf;
lastChange = "2015-01-04 05:32:45 +0000";
layers = (
{
layerId = "D6DE3449-A573-450B-B2C8-FE4A922B890A";
name = Regular;
paths = (
{
closed = 1;
nodes = (
"135 303 LINE",
"31 214 LINE",
"31 89 LINE",
"135 0 LINE",
"284 0 LINE",
"388 89 LINE",
"388 214 LINE",
"284 303 LINE"
);
},
{
closed = 1;
nodes = (
"273 199 LINE",
"273 112 LINE",
"237 81 LINE",
"182 81 LINE",
"146 112 LINE",
"146 199 LINE",
"182 229 LINE",
"237 229 LINE"
);
},
{
closed = 1;
nodes = (
"266 395 LINE",
"266 335 LINE",
"229 304 LINE",
"190 304 LINE",
"153 335 LINE",
"153 395 LINE",
"190 425 LINE",
"229 425 LINE"
);
},
{
closed = 1;
nodes = (
"142 500 LINE",
"38 411 LINE",
"38 333 LINE",
"142 244 LINE",
"277 244 LINE",
"381 333 LINE",
"381 411 LINE",
"277 500 LINE"
);
}
);
width = 419;
},
{
layerId = "36D4513E-7F15-4625-822B-04E8DB781DDB";
name = Bold;
paths = (
{
closed = 1;
nodes = (
"145 315 LINE",
"25 213 LINE",
"25 103 LINE",
"145 0 LINE",
"341 0 LINE",
"461 103 LINE",
"461 213 LINE",
"341 315 LINE"
);
},
{
closed = 1;
nodes = (
"286 171 LINE",
"286 138 LINE",
"266 120 LINE",
"220 120 LINE",
"200 138 LINE",
"200 171 LINE",
"224 192 LINE",
"262 192 LINE"
);
},
{
closed = 1;
nodes = (
"273 368 LINE",
"273 340 LINE",
"256 325 LINE",
"230 325 LINE",
"213 340 LINE",
"213 368 LINE",
"231 385 LINE",
"255 385 LINE"
);
},
{
closed = 1;
nodes = (
"158 500 LINE",
"38 397 LINE",
"38 333 LINE",
"114 270 LINE",
"372 270 LINE",
"448 333 LINE",
"448 397 LINE",
"328 500 LINE"
);
}
);
width = 486;
}
);
leftKerningGroup = O;
leftMetricsKey = "=|";
rightKerningGroup = O;
rightMetricsKey = B;
},
{
glyphname = nine.osf;
lastChange = "2015-01-04 05:29:27 +0000";
layers = (
{
layerId = "D6DE3449-A573-450B-B2C8-FE4A922B890A";
name = Regular;
paths = (
{
closed = 1;
nodes = (
"136 500 LINE",
"32 411 LINE",
"32 262 LINE",
"136 173 LINE",
"219 173 LINE",
"259 214 LINE",
"259 279 LINE",
"224 247 LINE",
"186 247 LINE",
"147 282 LINE",
"147 383 LINE",
"186 419 LINE",
"210 419 LINE",
"249 386 LINE",
"249 110 LINE",
"210 75 LINE",
"176.758 75 LINE",
"142 106 LINE",
"142 143 LINE",
"42 143 LINE",
"42 80 LINE",
"134 0 LINE",
"260 0 LINE",
"365 89 LINE",
"365 416 LINE",
"260 500 LINE"
);
}
);
width = 406;
},
{
layerId = "36D4513E-7F15-4625-822B-04E8DB781DDB";
name = Bold;
paths = (
{
closed = 1;
nodes = (
"146 500 LINE",
"26 397 LINE",
"26 289 LINE",
"146 187 LINE",
"225 187 LINE",
"255 212 LINE",
"255 311 LINE",
"238 298 LINE",
"224 298 LINE",
"200 319 LINE",
"200 362 LINE",
"220 380 LINE",
"233 380 LINE",
"253 363 LINE",
"253 132 LINE",
"234 115 LINE",
"215 115 LINE",
"196 129 LINE",
"196 168 LINE",
"31 168 LINE",
"31 84 LINE",
"131 0 LINE",
"307 0 LINE",
"427 103 LINE",
"427 398 LINE",
"307 500 LINE"
);
}
);
width = 457;
}
);
leftKerningGroup = nine;
leftMetricsKey = "=|six";
rightKerningGroup = O;
rightMetricsKey = "=|six";
},
{
glyphname = asterisk;
lastChange = "2014-12-30 09:14:07 +0000";
layers = (
{
layerId = "36D4513E-7F15-4625-822B-04E8DB781DDB";
leftMetricsKey = period;
rightMetricsKey = "=|";
name = Bold;
paths = (
{
closed = 1;
nodes = (
"178 495 LINE",
"154 287 LINE",
"301 287 LINE",
"277 495 LINE",
"301 703 LINE",
"154 703 LINE"
);
},
{
closed = 1;
nodes = (
"252 452 LINE",
"444 535 LINE",
"371 663 LINE",
"203 538 LINE",
"11 455 LINE",
"84 327 LINE"
);
},
{
closed = 1;
nodes = (
"203 452 LINE",
"370 328 LINE",
"445 455 LINE",
"252 538 LINE",
"85 662 LINE",
"10 535 LINE"
);
}
);
width = 455;
},
{
layerId = "D6DE3449-A573-450B-B2C8-FE4A922B890A";
rightMetricsKey = "=|";
name = Regular;
paths = (
{
closed = 1;
nodes = (
"184 496 LINE",
"169 288 LINE",
"253 288 LINE",
"238 496 LINE",
"253 704 LINE",
"169 704 LINE"
);
},
{
closed = 1;
nodes = (
"225 473 LINE",
"412 564 LINE",
"370 636 LINE",
"197 519 LINE",
"10 428 LINE",
"52 356 LINE"
);
},
{
closed = 1;
nodes = (
"198 472 LINE",
"370 356 LINE",
"412 428 LINE",
"224 520 LINE",
"52 636 LINE",
"10 564 LINE"
);
}
);
width = 422;
}
);
leftKerningGroup = ast;
leftMetricsKey = period;
rightKerningGroup = ast;
rightMetricsKey = "=|";
unicode = 002A;
},
{
glyphname = comma;
lastChange = "2015-01-09 05:48:31 +0000";
layers = (
{
layerId = "D6DE3449-A573-450B-B2C8-FE4A922B890A";
leftMetricsKey = period;
name = Regular;
paths = (
{
closed = 1;
nodes = (
"11 97 LINE",
"11 28 LINE",
"39 0 LINE",
"83 0 LINE",
"83 -15 LINE",
"61 -50 LINE",
"10 -80 LINE",
"10 -103 LINE",
"100 -69 LINE",
"140 -16 LINE",
"140 97 LINE",
"112 124 LINE",
"39 124 LINE"
);
}
);
width = 150;
},
{
layerId = "36D4513E-7F15-4625-822B-04E8DB781DDB";
leftMetricsKey = period;
name = Bold;
paths = (
{
closed = 1;
nodes = (
"10 124 LINE",
"10 48 LINE",
"57 0 LINE",
"108 0 LINE",
"108 -8 LINE",
"79 -58 LINE",
"11 -90 LINE",
"11 -130 LINE",
"138 -88 LINE",
"192 0 LINE",
"192 124 LINE",
"145 171 LINE",
"57 171 LINE"
);
}
);
width = 202;
}
);
leftKerningGroup = period;
rightKerningGroup = period;
rightMetricsKey = "=|";
unicode = 002C;
},
{
glyphname = exclam;
lastChange = "2014-12-30 09:14:07 +0000";
layers = (
{
components = (
{
disableAlignment = 1;
name = period;
transform = "{1, 0, 0, 1, 30, 0}";
}
);
layerId = "36D4513E-7F15-4625-822B-04E8DB781DDB";
leftMetricsKey = I;
rightMetricsKey = I;
name = Bold;
paths = (
{
closed = 1;
nodes = (
"43 700 LINE",
"67 230 LINE",
"194 230 LINE",
"219 700 LINE"
);
}
);
width = 262;
},
{
components = (
{
disableAlignment = 1;
name = period;
transform = "{1, 0, 0, 1, 45, 0}";
}
);
layerId = "D6DE3449-A573-450B-B2C8-FE4A922B890A";
name = Regular;
paths = (
{
closed = 1;
nodes = (
"60 700 LINE",
"75 200 LINE",
"165 200 LINE",
"180 700 LINE"
);
}
);
width = 239;
}
);
leftKerningGroup = exclam;
leftMetricsKey = I;
rightKerningGroup = exclam;
rightMetricsKey = I;
unicode = 0021;
},
{
glyphname = numbersign;
lastChange = "2015-01-03 18:32:04 +0000";
layers = (
{
components = (
{
name = emdash;
transform = "{0.906, 0, 0, 1, 13, -64}";
},
{
name = emdash;
transform = "{0.906, 0, 0, 1, 57, 153}";
}
);
layerId = "D6DE3449-A573-450B-B2C8-FE4A922B890A";
rightMetricsKey = "=|";
name = Regular;
paths = (
{
closed = 1;
nodes = (
"209 700 LINE",
"44 0 LINE",
"146 0 LINE",
"311 700 LINE"
);
},
{
closed = 1;
nodes = (
"399 700 LINE",
"234 0 LINE",
"336 0 LINE",
"501 700 LINE"
);
}
);
width = 537;
},
{
components = (
{
name = emdash;
transform = "{1, 0, 0, 0.888, 0, -38}";
},
{
name = emdash;
transform = "{1, 0, 0, 0.888, 49, 175}";
}
);
layerId = "36D4513E-7F15-4625-822B-04E8DB781DDB";
rightMetricsKey = "=|";
name = Bold;
paths = (
{
closed = 1;
nodes = (
"187 700 LINE",
"22 0 LINE",
"184 0 LINE",
"349 700 LINE"
);
},
{
closed = 1;
nodes = (
"415 700 LINE",
"250 0 LINE",
"412 0 LINE",
"577 700 LINE"
);
}
);
width = 600;
}
);
rightMetricsKey = slash;
unicode = 0023;
},
{
glyphname = period;
lastChange = "2015-01-09 05:28:06 +0000";
layers = (
{
layerId = "D6DE3449-A573-450B-B2C8-FE4A922B890A";
name = Regular;
paths = (
{
closed = 1;
nodes = (
"10 97 LINE",
"10 28 LINE",
"38 0 LINE",
"111 0 LINE",
"139 28 LINE",
"139 97 LINE",
"111 124 LINE",
"38 124 LINE"
);
}
);
width = 149;
},
{
layerId = "36D4513E-7F15-4625-822B-04E8DB781DDB";
rightMetricsKey = "=|";
name = Bold;
paths = (
{
closed = 1;
nodes = (
"10 135 LINE",
"10 36 LINE",
"46 0 LINE",
"155 0 LINE",
"192 36 LINE",
"192 135 LINE",
"156 171 LINE",
"46 171 LINE"
);
}
);
width = 202;
}
);
leftKerningGroup = period;
rightKerningGroup = period;
rightMetricsKey = "=|";
unicode = 002E;
},
{
glyphname = question;
lastChange = "2014-12-30 09:14:05 +0000";
layers = (
{
components = (
{
disableAlignment = 1;
name = period;
transform = "{1, 0, 0, 1, 75, 0}";
}
);
layerId = "36D4513E-7F15-4625-822B-04E8DB781DDB";
rightMetricsKey = two;
name = Bold;
paths = (
{
closed = 1;
nodes = (
"117 700 LINE",
"5 614 LINE",
"5 500 LINE",
"164 500 LINE",
"164 572 LINE",
"178 584 LINE",
"199 584 LINE",
"211 574 LINE",
"211 517 LINE",
"202 489 LINE",
"113 395 LINE",
"97 347 LINE",
"107 226 LINE",
"241 226 LINE",
"249 314 LINE",
"257 330 LINE",
"344 395 LINE",
"378 487 LINE",
"378 602 LINE",
"267 700 LINE"
);
}
);
width = 404;
},
{
components = (
{
disableAlignment = 1;
name = period;
transform = "{1, 0, 0, 1, 99, 0}";
}
);
layerId = "D6DE3449-A573-450B-B2C8-FE4A922B890A";
name = Regular;
paths = (
{
closed = 1;
nodes = (
"127 700 LINE",
"29 621 LINE",
"29 478 LINE",
"130 478 LINE",
"130 592 LINE",
"165 620 LINE",
"193 620 LINE",
"227 587 LINE",
"227 480 LINE",
"216 455 LINE",
"143 370 LINE",
"112 305 LINE",
"122 210 LINE",
"215 210 LINE",
"225 285 LINE",
"236 309 LINE",
"294 372 LINE",
"338 466 LINE",
"338 611 LINE",
"238 700 LINE"
);
}
);
width = 370;
}
);
leftKerningGroup = question;
rightKerningGroup = question;
rightMetricsKey = two;
unicode = 003F;
},
{
glyphname = quotesingle;
lastChange = "2014-12-24 21:08:59 +0000";
layers = (
{
layerId = "D6DE3449-A573-450B-B2C8-FE4A922B890A";
leftMetricsKey = period;
rightMetricsKey = "=|";
name = Regular;
paths = (
{
closed = 1;
nodes = (
"20 458 LINE",
"82 458 LINE",
"92 700 LINE",
"10 700 LINE"
);
}
);
width = 102;
},
{
layerId = "36D4513E-7F15-4625-822B-04E8DB781DDB";
name = Bold;
paths = (
{
closed = 1;
nodes = (
"20 458 LINE",
"152 458 LINE",
"162 700 LINE",
"10 700 LINE"
);
}
);
width = 172;
}
);
leftKerningGroup = qs;
leftMetricsKey = period;
rightKerningGroup = qs;
rightMetricsKey = "=|";
unicode = 0027;
},
{
glyphname = slash;
lastChange = "2014-12-30 09:14:07 +0000";
layers = (
{
layerId = "D6DE3449-A573-450B-B2C8-FE4A922B890A";
rightMetricsKey = "=|";
name = Regular;
paths = (
{
closed = 1;
nodes = (
"160 700 LINE",
"-40 -150 LINE",
"62 -150 LINE",
"262 700 LINE"
);
}
);
width = 222;
},
{
layerId = "36D4513E-7F15-4625-822B-04E8DB781DDB";
name = Bold;
paths = (
{
closed = 1;
nodes = (
"175 700 LINE",
"-25 -150 LINE",
"157 -150 LINE",
"357 700 LINE"
);
}
);
width = 332;
}
);
rightMetricsKey = "=|";
unicode = 002F;
},
{
glyphname = braceleft;
lastChange = "2014-12-30 09:14:07 +0000";
layers = (
{
layerId = "36D4513E-7F15-4625-822B-04E8DB781DDB";
leftMetricsKey = hyphen;
rightMetricsKey = hyphen;
name = Bold;
paths = (
{
closed = 1;
nodes = (
"34 116 LINE",
"34 -17 LINE",
"153 -120 LINE",
"235 -120 LINE",
"235 0 LINE",
"223 0 LINE",
"209 12 LINE",
"209 116 LINE"
);
},
{
closed = 1;
nodes = (
"209 233 LINE",
"90 336 LINE",
"8 336 LINE",
"8 230 LINE",
"10 230 LINE",
"34 209 LINE",
"34 116 LINE",
"209 116 LINE"
);
},
{
closed = 1;
nodes = (
"209 568 LINE",
"223 580 LINE",
"235 580 LINE",
"235 700 LINE",
"153 700 LINE",
"34 597 LINE",
"34 554 LINE",
"209 554 LINE"
);
},
{
closed = 1;
nodes = (
"34 554 LINE",
"34 372 LINE",
"10 351 LINE",
"8 351 LINE",
"8 245 LINE",
"90 245 LINE",
"209 348 LINE",
"209 554 LINE"
);
}
);
width = 243;
},
{
layerId = "D6DE3449-A573-450B-B2C8-FE4A922B890A";
name = Regular;
paths = (
{
closed = 1;
nodes = (
"48 106 LINE",
"48 9 LINE",
"151 -80 LINE",
"229 -80 LINE",
"229 0 LINE",
"204 0 LINE",
"163 36 LINE",
"163 106 LINE"
);
},
{
closed = 1;
nodes = (
"163 257 LINE",
"60 346 LINE",
"5 346 LINE",
"5 271 LINE",
"7 271 LINE",
"48 236 LINE",
"48 106 LINE",
"163 106 LINE"
);
},
{
closed = 1;
nodes = (
"163 584 LINE",
"204 620 LINE",
"229 620 LINE",
"229 700 LINE",
"151 700 LINE",
"48 611 LINE",
"48 514 LINE",
"163 514 LINE"
);
},
{
closed = 1;
nodes = (
"48 514 LINE",
"48 384 LINE",
"7 349 LINE",
"5 349 LINE",
"5 280 LINE",
"60 280 LINE",
"163 369 LINE",
"163 514 LINE"
);
}
);
width = 234;
}
);
leftKerningGroup = bl;
leftMetricsKey = hyphen;
rightKerningGroup = bl;
rightMetricsKey = hyphen;
unicode = 007B;
},
{
glyphname = bracketleft;
lastChange = "2014-12-30 09:14:07 +0000";
layers = (
{
layerId = "36D4513E-7F15-4625-822B-04E8DB781DDB";
leftMetricsKey = I;
rightMetricsKey = hyphen;
name = Bold;
paths = (
{
closed = 1;
nodes = (
"40 700 LINE",
"40 -131 LINE",
"211 -131 LINE",
"211 700 LINE"
);
},
{
closed = 1;
nodes = (
"46 569 LINE",
"266 569 LINE",
"266 700 LINE",
"46 700 LINE"
);
},
{
closed = 1;
nodes = (
"46 -131 LINE",
"266 -131 LINE",
"266 0 LINE",
"46 0 LINE"
);
}
);
width = 274;
},
{
layerId = "D6DE3449-A573-450B-B2C8-FE4A922B890A";
name = Regular;
paths = (
{
closed = 1;
nodes = (
"55 700 LINE",
"55 -73 LINE",
"170 -73 LINE",
"170 700 LINE"
);
},
{
closed = 1;
nodes = (
"61 627 LINE",
"241 627 LINE",
"241 700 LINE",
"61 700 LINE"
);
},
{
closed = 1;
nodes = (
"61 -73 LINE",
"241 -73 LINE",
"241 0 LINE",
"61 0 LINE"
);
}
);
width = 246;
}
);
leftKerningGroup = I;
leftMetricsKey = I;
rightKerningGroup = bl;
rightMetricsKey = hyphen;
unicode = 005B;
},
{
glyphname = parenleft;
lastChange = "2015-01-03 18:32:04 +0000";
layers = (
{
layerId = "36D4513E-7F15-4625-822B-04E8DB781DDB";
leftMetricsKey = O;
rightMetricsKey = hyphen;
name = Bold;
paths = (
{
closed = 1;
nodes = (
"231 700 LINE",
"149 700 LINE",
"30 597 LINE",
"30 -17 LINE",
"149 -120 LINE",
"231 -120 LINE",
"231 0 LINE",
"219 0 LINE",
"205 12 LINE",
"205 574 LINE",
"219 585 LINE",
"231 585 LINE"
);
}
);
width = 239;
},
{
layerId = "D6DE3449-A573-450B-B2C8-FE4A922B890A";
name = Regular;
paths = (
{
closed = 1;
nodes = (
"222 700 LINE",
"144 700 LINE",
"41 611 LINE",
"41 9 LINE",
"144 -80 LINE",
"222 -80 LINE",
"222 0 LINE",
"197 0 LINE",
"156 36 LINE",
"156 590 LINE",
"197 625 LINE",
"222 625 LINE"
);
}
);
width = 227;
}
);
leftKerningGroup = O;
leftMetricsKey = O;
rightKerningGroup = bl;
rightMetricsKey = hyphen;
unicode = 0028;
},
{
glyphname = hyphen;
lastChange = "2015-01-09 05:47:35 +0000";
layers = (
{
layerId = "D6DE3449-A573-450B-B2C8-FE4A922B890A";
rightMetricsKey = "=|";
name = Regular;
paths = (
{
closed = 1;
nodes = (
"5 262 LINE",
"265 262 LINE",
"265 345 LINE",
"5 345 LINE"
);
}
);
width = 270;
},
{
layerId = "36D4513E-7F15-4625-822B-04E8DB781DDB";
rightMetricsKey = "=|";
name = Bold;
paths = (
{
closed = 1;
nodes = (
"8 201 LINE",
"278 201 LINE",
"278 332 LINE",
"8 332 LINE"
);
}
);
width = 286;
}
);
leftKerningGroup = hyphen;
rightKerningGroup = hyphen;
rightMetricsKey = period;
unicode = 002D;
},
{
glyphname = guilsinglleft;
lastChange = "2014-12-30 09:14:07 +0000";
layers = (
{
layerId = "D6DE3449-A573-450B-B2C8-FE4A922B890A";
leftMetricsKey = hyphen;
rightMetricsKey = hyphen;
name = Regular;
paths = (
{
closed = 1;
nodes = (
"5 235 LINE",
"48 201 LINE",
"125 275 LINE",
"215 385 LINE",
"215 500 LINE",
"203 500 LINE",
"5 272 LINE"
);
},
{
closed = 1;
nodes = (
"203 0 LINE",
"215 0 LINE",
"215 115 LINE",
"125 230 LINE",
"48 304 LINE",
"5 265 LINE",
"5 228 LINE"
);
}
);
width = 220;
},
{
layerId = "36D4513E-7F15-4625-822B-04E8DB781DDB";
name = Bold;
paths = (
{
closed = 1;
nodes = (
"8 215 LINE",
"81 215 LINE",
"178 275 LINE",
"228 318 LINE",
"228 500 LINE",
"196 500 LINE",
"8 312 LINE"
);
},
{
closed = 1;
nodes = (
"196 0 LINE",
"228 0 LINE",
"228 182 LINE",
"178 230 LINE",
"80 289 LINE",
"8 289 LINE",
"8 188 LINE"
);
}
);
width = 236;
}
);
leftKerningGroup = gl;
leftMetricsKey = hyphen;
rightKerningGroup = gl;
rightMetricsKey = hyphen;
unicode = 2039;
},
{
glyphname = cent;
lastChange = "2015-01-03 18:32:04 +0000";
layers = (
{
layerId = "D6DE3449-A573-450B-B2C8-FE4A922B890A";
name = Regular;
paths = (
{
closed = 1;
nodes = (
"122 600 LINE",
"33 515 LINE",
"33 186 LINE",
"125 100 LINE",
"292 100 LINE",
"384 180 LINE",
"384 310 LINE",
"283 310 LINE",
"283 216 LINE",
"245 181 LINE",
"180 181 LINE",
"148 216 LINE",
"148 483 LINE",
"182 520 LINE",
"244 520 LINE",
"282 485 LINE",
"282 400 LINE",
"382 400 LINE",
"382 528 LINE",
"302 600 LINE"
);
},
{
closed = 1;
nodes = (
"190 0 LINE",
"238 0 LINE",
"238 700 LINE",
"190 700 LINE"
);
}
);
width = 414;
},
{
layerId = "36D4513E-7F15-4625-822B-04E8DB781DDB";
leftMetricsKey = c;
rightMetricsKey = c;
name = Bold;
paths = (
{
closed = 1;
nodes = (
"135 600 LINE",
"20 502 LINE",
"20 199 LINE",
"135 100 LINE",
"325 100 LINE",
"433 189 LINE",
"433 319 LINE",
"276 319 LINE",
"275 233 LINE",
"255 218 LINE",
"212 218 LINE",
"191 236 LINE",
"191 467 LINE",
"209 484 LINE",
"258 484 LINE",
"275 472 LINE",
"275 392 LINE",
"431 392 LINE",
"431 527 LINE",
"342 600 LINE"
);
},
{
closed = 1;
nodes = (
"209 0 LINE",
"257 0 LINE",
"257 700 LINE",
"209 700 LINE"
);
}
);
width = 451;
}
);
leftMetricsKey = c;
rightMetricsKey = c;
unicode = 00A2;
},
{
glyphname = currency;
lastChange = "2015-01-03 18:32:04 +0000";
layers = (
{
components = (
{
name = quotesingle;
transform = "{0.604, 0.604, -0.604, 0.604, 421, 87}";
},
{
name = quotesingle;
transform = "{-0.604, 0.604, 0.604, 0.604, 72, 87}";
},
{
name = quotesingle;
transform = "{0.604, -0.604, -0.604, -0.604, 421, 552}";
},
{
name = quotesingle;
transform = "{-0.604, -0.604, 0.604, -0.604, 72, 552}";
}
);
layerId = "D6DE3449-A573-450B-B2C8-FE4A922B890A";
leftMetricsKey = hyphen;
rightMetricsKey = hyphen;
name = Regular;
paths = (
{
closed = 1;
nodes = (
"68 401 LINE",
"68 239 LINE",
"171 150 LINE",
"251 150 LINE",
"251 230 LINE",
"224 230 LINE",
"183 266 LINE",
"183 380 LINE",
"224 415 LINE",
"251 415 LINE",
"251 490 LINE",
"171 490 LINE"
);
},
{
closed = 1;
nodes = (
"246 490 LINE",
"246 415 LINE",
"274 415 LINE",
"315 380 LINE",
"315 266 LINE",
"274 230 LINE",
"246 230 LINE",
"246 150 LINE",
"326 150 LINE",
"430 239 LINE",
"430 401 LINE",
"326 490 LINE"
);
}
);
width = 494;
},
{
components = (
{
name = quotesingle;
transform = "{0.536, 0.536, -0.536, 0.536, 378, 97}";
},
{
name = quotesingle;
transform = "{-0.536, 0.536, 0.536, 0.536, 146, 97}";
},
{
name = quotesingle;
transform = "{0.536, -0.536, -0.536, -0.536, 378, 543}";
},
{
name = quotesingle;
transform = "{-0.536, -0.536, 0.536, -0.536, 146, 543}";
}
);
layerId = "36D4513E-7F15-4625-822B-04E8DB781DDB";
name = Bold;
paths = (
{
closed = 1;
nodes = (
"69 376 LINE",
"69 265 LINE",
"193 155 LINE",
"281 155 LINE",
"271 260 LINE",
"253 260 LINE",
"222 289 LINE",
"222 357 LINE",
"253 385 LINE",
"271 385 LINE",
"281 485 LINE",
"193 485 LINE"
);
},
{
closed = 1;
nodes = (
"242 485 LINE",
"252 385 LINE",
"271 385 LINE",
"302 357 LINE",
"302 289 LINE",
"271 260 LINE",
"252 260 LINE",
"242 155 LINE",
"330 155 LINE",
"454 265 LINE",
"454 376 LINE",
"330 485 LINE"
);
}
);
width = 524;
}
);
leftMetricsKey = hyphen;
rightMetricsKey = hyphen;
unicode = 00A4;
},
{
glyphname = dollar;
lastChange = "2014-12-30 09:14:07 +0000";
layers = (
{
layerId = "D6DE3449-A573-450B-B2C8-FE4A922B890A";
name = Regular;
paths = (
{
closed = 1;
nodes = (
"126 700 LINE",
"36 620 LINE",
"36 447 LINE",
"90 373 LINE",
"236 316 LINE",
"265 282 LINE",
"265 108 LINE",
"235 81 LINE",
"166 81 LINE",
"136 108 LINE",
"136 245 LINE",
"32 245 LINE",
"32 84 LINE",
"127 0 LINE",
"288 0 LINE",
"383 84 LINE",
"383 312 LINE",
"324 385 LINE",
"171 444 LINE",
"147 472 LINE",
"147 593 LINE",
"177 620 LINE",
"240 620 LINE",
"271 593 LINE",
"271 493 LINE",
"371 493 LINE",
"371 633 LINE",
"295 700 LINE"
);
},
{
closed = 1;
nodes = (
"183 378 LINE",
"231 378 LINE",
"231 800 LINE",
"183 800 LINE"
);
},
{
closed = 1;
nodes = (
"177 -100 LINE",
"225 -100 LINE",
"225 349 LINE",
"177 349 LINE"
);
}
);
width = 415;
},
{
layerId = "36D4513E-7F15-4625-822B-04E8DB781DDB";
leftMetricsKey = S;
rightMetricsKey = S;
name = Bold;
paths = (
{
closed = 1;
nodes = (
"139 700 LINE",
"26 602 LINE",
"26 432 LINE",
"77 357 LINE",
"257 299 LINE",
"277 277 LINE",
"277 129 LINE",
"263 118 LINE",
"205 118 LINE",
"191 129 LINE",
"191 254 LINE",
"31 254 LINE",
"31 89 LINE",
"144 0 LINE",
"337 0 LINE",
"450 99 LINE",
"450 318 LINE",
"396 392 LINE",
"209 451 LINE",
"194 469 LINE",
"194 573 LINE",
"208 584 LINE",
"266 584 LINE",
"280 573 LINE",
"280 483 LINE",
"430 483 LINE",
"430 621 LINE",
"329 700 LINE"
);
},
{
closed = 1;
nodes = (
"213 378 LINE",
"261 378 LINE",
"261 800 LINE",
"213 800 LINE"
);
},
{
closed = 1;
nodes = (
"210 -100 LINE",
"258 -100 LINE",
"258 349 LINE",
"210 349 LINE"
);
}
);
width = 476;
}
);
leftKerningGroup = S;
leftMetricsKey = S;
rightKerningGroup = S;
rightMetricsKey = S;
unicode = 0024;
},
{
glyphname = euro;
lastChange = "2015-01-03 18:32:04 +0000";
layers = (
{
layerId = "D6DE3449-A573-450B-B2C8-FE4A922B890A";
name = Regular;
paths = (
{
closed = 1;
nodes = (
"174 700 LINE",
"71 611 LINE",
"71 89 LINE",
"174 0 LINE",
"310 0 LINE",
"406 81 LINE",
"406 224 LINE",
"303 224 LINE",
"303 116 LINE",
"263 81 LINE",
"225 81 LINE",
"186 116 LINE",
"186 585 LINE",
"225 620 LINE",
"266 620 LINE",
"304 585 LINE",
"304 494 LINE",
"406 494 LINE",
"406 619 LINE",
"312 700 LINE"
);
},
{
closed = 1;
nodes = (
"5 386 LINE",
"316 386 LINE",
"329 459 LINE",
"18 459 LINE"
);
},
{
closed = 1;
nodes = (
"5 256 LINE",
"316 256 LINE",
"329 329 LINE",
"18 329 LINE"
);
}
);
width = 440;
},
{
layerId = "36D4513E-7F15-4625-822B-04E8DB781DDB";
leftMetricsKey = hyphen;
rightMetricsKey = C;
name = Bold;
paths = (
{
closed = 1;
nodes = (
"200 697 LINE",
"85 599 LINE",
"85 99 LINE",
"200 0 LINE",
"360 0 LINE",
"468 90 LINE",
"468 199 LINE",
"307 199 LINE",
"307 129 LINE",
"293 118 LINE",
"269 118 LINE",
"256 129 LINE",
"256 570 LINE",
"270 581 LINE",
"293 581 LINE",
"306 570 LINE",
"306 509 LINE",
"468 509 LINE",
"468 607 LINE",
"359 697 LINE"
);
},
{
closed = 1;
nodes = (
"8 375 LINE",
"385 375 LINE",
"403 476 LINE",
"26 476 LINE"
);
},
{
closed = 1;
nodes = (
"8 235 LINE",
"385 235 LINE",
"403 336 LINE",
"26 336 LINE"
);
}
);
width = 494;
}
);
leftMetricsKey = hyphen;
rightMetricsKey = C;
unicode = 20AC;
},
{
glyphname = sterling;
lastChange = "2014-12-30 09:14:07 +0000";
layers = (
{
components = (
{
name = hyphen;
transform = "{1.250, 0, 0, 1, 60, 19}";
}
);
layerId = "D6DE3449-A573-450B-B2C8-FE4A922B890A";
name = Regular;
paths = (
{
closed = 1;
nodes = (
"243 700 LINE",
"153 620 LINE",
"153 108 LINE",
"123 81 LINE",
"97 81 LINE",
"67 108 LINE",
"3 44 LINE",
"58 0 LINE",
"169 0 LINE",
"264 84 LINE",
"264 593 LINE",
"294 620 LINE",
"324 620 LINE",
"355 593 LINE",
"355 493 LINE",
"455 493 LINE",
"455 633 LINE",
"379 700 LINE"
);
},
{
closed = 1;
nodes = (
"173 87 LINE",
"257 0 LINE",
"443 0 LINE",
"460 87 LINE"
);
}
);
width = 488;
},
{
components = (
{
name = hyphen;
transform = "{1.250, 0, 0, 1, 63, 7}";
}
);
layerId = "36D4513E-7F15-4625-822B-04E8DB781DDB";
leftMetricsKey = "=|L";
rightMetricsKey = E;
name = Bold;
paths = (
{
closed = 1;
nodes = (
"255 700 LINE",
"142 602 LINE",
"142 135 LINE",
"128 124 LINE",
"109 124 LINE",
"95 135 LINE",
"5 49 LINE",
"68 0 LINE",
"202 0 LINE",
"311 99 LINE",
"311 572 LINE",
"324 584 LINE",
"343 584 LINE",
"357 573 LINE",
"357 453 LINE",
"507 453 LINE",
"507 621 LINE",
"406 700 LINE"
);
},
{
closed = 1;
nodes = (
"153 136 LINE",
"283 0 LINE",
"493 0 LINE",
"507 136 LINE"
);
}
);
width = 527;
}
);
leftMetricsKey = "=|L";
rightMetricsKey = E;
unicode = 00A3;
},
{
glyphname = lozenge;
lastChange = "2014-12-30 09:14:07 +0000";
layers = (
{
layerId = "D6DE3449-A573-450B-B2C8-FE4A922B890A";
leftMetricsKey = hyphen;
rightMetricsKey = hyphen;
name = Regular;
paths = (
{
closed = 1;
nodes = (
"188 559 LINE",
"188 700 LINE",
"175 700 LINE",
"5 381 LINE",
"5 319 LINE",
"175 0 LINE",
"188 0 LINE",
"188 140 LINE",
"86 355 LINE"
);
},
{
closed = 1;
nodes = (
"287 355 LINE",
"184 140 LINE",
"184 0 LINE",
"197 0 LINE",
"368 319 LINE",
"368 381 LINE",
"197 700 LINE",
"184 700 LINE",
"184 559 LINE"
);
}
);
width = 373;
},
{
layerId = "36D4513E-7F15-4625-822B-04E8DB781DDB";
name = Bold;
paths = (
{
closed = 1;
nodes = (
"201 466 LINE",
"201 700 LINE",
"188 700 LINE",
"8 381 LINE",
"8 319 LINE",
"188 0 LINE",
"201 0 LINE",
"201 234 LINE",
"145 354 LINE"
);
},
{
closed = 1;
nodes = (
"257 354 LINE",
"196 234 LINE",
"196 0 LINE",
"209 0 LINE",
"394 319 LINE",
"394 381 LINE",
"209 700 LINE",
"196 700 LINE",
"196 466 LINE"
);
}
);
width = 402;
}
);
leftKerningGroup = lozenge;
leftMetricsKey = hyphen;
rightKerningGroup = lozenge;
rightMetricsKey = hyphen;
unicode = 25CA;
},
{
glyphname = bar;
lastChange = "2014-12-30 09:14:07 +0000";
layers = (
{
layerId = "D6DE3449-A573-450B-B2C8-FE4A922B890A";
leftMetricsKey = I;
rightMetricsKey = I;
name = Regular;
paths = (
{
closed = 1;
nodes = (
"55 800 LINE",
"55 -200 LINE",
"170 -200 LINE",
"170 800 LINE"
);
}
);
width = 225;
},
{
layerId = "36D4513E-7F15-4625-822B-04E8DB781DDB";
name = Bold;
paths = (
{
closed = 1;
nodes = (
"40 800 LINE",
"40 -200 LINE",
"211 -200 LINE",
"211 800 LINE"
);
}
);
width = 251;
}
);
leftKerningGroup = bar;
leftMetricsKey = I;
rightKerningGroup = bar;
rightMetricsKey = I;
unicode = 007C;
},
{
glyphname = brokenbar;
lastChange = "2014-12-30 09:14:07 +0000";
layers = (
{
layerId = "D6DE3449-A573-450B-B2C8-FE4A922B890A";
name = Regular;
paths = (
{
closed = 1;
nodes = (
"55 270 LINE",
"55 -200 LINE",
"170 -200 LINE",
"170 270 LINE"
);
},
{
closed = 1;
nodes = (
"170 330 LINE",
"170 800 LINE",
"55 800 LINE",
"55 330 LINE"
);
}
);
width = 225;
},
{
layerId = "36D4513E-7F15-4625-822B-04E8DB781DDB";
leftMetricsKey = bar;
rightMetricsKey = bar;
name = Bold;
paths = (
{
closed = 1;
nodes = (
"40 270 LINE",
"40 -200 LINE",
"211 -200 LINE",
"211 270 LINE"
);
},
{
closed = 1;
nodes = (
"211 330 LINE",
"211 800 LINE",
"40 800 LINE",
"40 330 LINE"
);
}
);
width = 251;
}
);
leftMetricsKey = bar;
rightMetricsKey = bar;
unicode = 00A6;
},
{
glyphname = at;
lastChange = "2015-01-03 18:32:04 +0000";
layers = (
{
components = (
{
name = a;
transform = "{0.837, 0, 0, 0.837, 188, 144}";
}
);
layerId = "D6DE3449-A573-450B-B2C8-FE4A922B890A";
leftMetricsKey = O;
rightMetricsKey = O;
name = Regular;
paths = (
{
closed = 1;
nodes = (
"559 700 LINE",
"144 700 LINE",
"41 611 LINE",
"41 89 LINE",
"144 0 LINE",
"559 0 LINE",
"663 89 LINE",
"663 611 LINE"
);
},
{
closed = 1;
nodes = (
"548 116 LINE",
"507 80 LINE",
"197 80 LINE",
"156 116 LINE",
"156 590 LINE",
"197 625 LINE",
"507 625 LINE",
"548 590 LINE"
);
}
);
width = 704;
},
{
components = (
{
name = a;
transform = "{0.837, 0, 0, 0.837, 189, 144}";
}
);
layerId = "36D4513E-7F15-4625-822B-04E8DB781DDB";
rightMetricsKey = O;
name = Bold;
paths = (
{
closed = 1;
nodes = (
"572 700 LINE",
"149 700 LINE",
"30 597 LINE",
"30 103 LINE",
"149 0 LINE",
"572 0 LINE",
"692 103 LINE",
"692 597 LINE"
);
},
{
closed = 1;
nodes = (
"517 132 LINE",
"503 120 LINE",
"219 120 LINE",
"205 132 LINE",
"205 574 LINE",
"219 585 LINE",
"503 585 LINE",
"517 574 LINE"
);
}
);
width = 722;
}
);
leftKerningGroup = O;
leftMetricsKey = O;
rightKerningGroup = O;
rightMetricsKey = "=O";
unicode = 0040;
},
{
glyphname = ampersand;
lastChange = "2015-01-03 18:32:04 +0000";
layers = (
{
layerId = "D6DE3449-A573-450B-B2C8-FE4A922B890A";
name = Regular;
paths = (
{
closed = 1;
nodes = (
"360 394 LINE",
"259 132 LINE",
"204 81 LINE",
"263 0 LINE",
"348 81 LINE",
"440 358 LINE"
);
},
{
closed = 1;
nodes = (
"68 627 LINE",
"68 498 LINE",
"354 0 LINE",
"411 0 LINE",
"441 42 LINE",
"168 522 LINE",
"168 605 LINE",
"192 625 LINE",
"155 700 LINE"
);
},
{
closed = 1;
nodes = (
"352 490 LINE",
"352 632 LINE",
"269 700 LINE",
"157 700 LINE",
"184 625 LINE",
"224 625 LINE",
"247 604 LINE",
"247 510 LINE",
"187 454 LINE",
"143 430 LINE",
"33 334 LINE",
"33 84 LINE",
"135 0 LINE",
"263 0 LINE",
"246 81 LINE",
"180 81 LINE",
"148 110 LINE",
"148 294 LINE"
);
}
);
width = 471;
},
{
layerId = "36D4513E-7F15-4625-822B-04E8DB781DDB";
leftMetricsKey = o;
rightMetricsKey = c;
name = Bold;
paths = (
{
closed = 1;
nodes = (
"406 387 LINE",
"284 152 LINE",
"250 120 LINE",
"326 0 LINE",
"420 86 LINE",
"537 316 LINE"
);
},
{
closed = 1;
nodes = (
"65 613 LINE",
"65 445 LINE",
"397 0 LINE",
"473 0 LINE",
"537 79 LINE",
"224 484 LINE",
"224 569 LINE",
"241 583 LINE",
"164 697 LINE"
);
},
{
closed = 1;
nodes = (
"428 449 LINE",
"428 611 LINE",
"323 697 LINE",
"165 697 LINE",
"213 582 LINE",
"255 582 LINE",
"270 569 LINE",
"270 478 LINE",
"244 453 LINE",
"140 421 LINE",
"20 310 LINE",
"20 103 LINE",
"140 0 LINE",
"326 0 LINE",
"272 120 LINE",
"215 120 LINE",
"195 138 LINE",
"195 254 LINE"
);
}
);
width = 555;
}
);
leftMetricsKey = o;
rightMetricsKey = c;
unicode = 0026;
},
{
glyphname = paragraph;
lastChange = "2015-01-03 18:32:04 +0000";
layers = (
{
layerId = "D6DE3449-A573-450B-B2C8-FE4A922B890A";
leftMetricsKey = "=|P";
rightMetricsKey = "=|P";
name = Regular;
paths = (
{
closed = 1;
nodes = (
"27 611 LINE",
"27 395 LINE",
"108 300 LINE",
"283 202 LINE",
"283 700 LINE",
"131 700 LINE"
);
},
{
closed = 1;
nodes = (
"188 -100 LINE",
"303 -100 LINE",
"303 700 LINE",
"188 700 LINE"
);
},
{
closed = 1;
nodes = (
"343 -100 LINE",
"458 -100 LINE",
"458 700 LINE",
"343 700 LINE"
);
}
);
width = 513;
},
{
layerId = "36D4513E-7F15-4625-822B-04E8DB781DDB";
name = Bold;
paths = (
{
closed = 1;
nodes = (
"16 597 LINE",
"16 377 LINE",
"104 274 LINE",
"332 145 LINE",
"332 700 LINE",
"136 700 LINE"
);
},
{
closed = 1;
nodes = (
"175 -100 LINE",
"346 -100 LINE",
"346 700 LINE",
"175 700 LINE"
);
},
{
closed = 1;
nodes = (
"385 -100 LINE",
"556 -100 LINE",
"556 700 LINE",
"385 700 LINE"
);
}
);
width = 596;
}
);
leftKerningGroup = para;
leftMetricsKey = "=|P";
rightKerningGroup = para;
rightMetricsKey = "=|P";
unicode = 00B6;
},
{
glyphname = copyright;
lastChange = "2015-01-03 18:32:04 +0000";
layers = (
{
components = (
{
name = c;
transform = "{0.837, 0, 0, 0.837, 189, 144}";
}
);
layerId = "D6DE3449-A573-450B-B2C8-FE4A922B890A";
name = Regular;
paths = (
{
closed = 1;
nodes = (
"564 700 LINE",
"144 700 LINE",
"41 611 LINE",
"41 89 LINE",
"144 0 LINE",
"564 0 LINE",
"668 89 LINE",
"668 611 LINE"
);
},
{
closed = 1;
nodes = (
"553 116 LINE",
"512 80 LINE",
"197 80 LINE",
"156 116 LINE",
"156 590 LINE",
"197 625 LINE",
"512 625 LINE",
"553 590 LINE"
);
}
);
width = 709;
},
{
components = (
{
name = c;
transform = "{0.837, 0, 0, 0.837, 201, 144}";
}
);
layerId = "36D4513E-7F15-4625-822B-04E8DB781DDB";
leftMetricsKey = O;
rightMetricsKey = O;
name = Bold;
paths = (
{
closed = 1;
nodes = (
"626 700 LINE",
"149 700 LINE",
"30 597 LINE",
"30 103 LINE",
"149 0 LINE",
"626 0 LINE",
"746 103 LINE",
"746 597 LINE"
);
},
{
closed = 1;
nodes = (
"571 132 LINE",
"557 120 LINE",
"219 120 LINE",
"205 132 LINE",
"205 574 LINE",
"219 585 LINE",
"557 585 LINE",
"571 574 LINE"
);
}
);
width = 776;
}
);
leftKerningGroup = O;
leftMetricsKey = O;
rightKerningGroup = O;
rightMetricsKey = O;
unicode = 00A9;
},
{
glyphname = registered;
lastChange = "2015-01-03 18:32:04 +0000";
layers = (
{
components = (
{
name = r;
transform = "{0.837, 0, 0, 0.837, 178, 144}";
}
);
layerId = "D6DE3449-A573-450B-B2C8-FE4A922B890A";
name = Regular;
paths = (
{
closed = 1;
nodes = (
"559 700 LINE",
"144 700 LINE",
"41 611 LINE",
"41 89 LINE",
"144 0 LINE",
"559 0 LINE",
"663 89 LINE",
"663 611 LINE"
);
},
{
closed = 1;
nodes = (
"548 116 LINE",
"507 80 LINE",
"197 80 LINE",
"156 116 LINE",
"156 590 LINE",
"197 625 LINE",
"507 625 LINE",
"548 590 LINE"
);
}
);
width = 704;
},
{
components = (
{
name = r;
transform = "{0.837, 0, 0, 0.837, 212, 144}";
}
);
layerId = "36D4513E-7F15-4625-822B-04E8DB781DDB";
leftMetricsKey = O;
rightMetricsKey = O;
name = Bold;
paths = (
{
closed = 1;
nodes = (
"632 700 LINE",
"149 700 LINE",
"30 597 LINE",
"30 103 LINE",
"149 0 LINE",
"632 0 LINE",
"752 103 LINE",
"752 597 LINE"
);
},
{
closed = 1;
nodes = (
"577 132 LINE",
"563 120 LINE",
"219 120 LINE",
"205 132 LINE",
"205 574 LINE",
"219 585 LINE",
"563 585 LINE",
"577 574 LINE"
);
}
);
width = 782;
}
);
leftKerningGroup = O;
leftMetricsKey = O;
rightKerningGroup = O;
rightMetricsKey = O;
unicode = 00AE;
},
{
glyphname = section;
lastChange = "2014-12-30 09:14:07 +0000";
layers = (
{
layerId = "D6DE3449-A573-450B-B2C8-FE4A922B890A";
name = Regular;
paths = (
{
closed = 1;
nodes = (
"290 260 LINE",
"177 313 LINE",
"145 339 LINE",
"145 378 LINE",
"171 401 LINE",
"219 401 LINE",
"242 379 LINE",
"311 407 LINE",
"241 467 LINE",
"106 467 LINE",
"37 396 LINE",
"37 317 LINE",
"88 245 LINE",
"209 191 LINE",
"235 160 LINE",
"235 105 LINE",
"208 81 LINE",
"170 81 LINE",
"138 106 LINE",
"138 181 LINE",
"32 181 LINE",
"32 72 LINE",
"121 0 LINE",
"268 0 LINE",
"352 78 LINE",
"352 188 LINE"
);
},
{
closed = 1;
nodes = (
"303 480 LINE",
"182 535 LINE",
"159 561 LINE",
"159 597 LINE",
"185 621 LINE",
"223 621 LINE",
"249 599 LINE",
"249 551 LINE",
"350 551 LINE",
"350 641 LINE",
"281 700 LINE",
"129 700 LINE",
"49 622 LINE",
"49 530 LINE",
"105 462 LINE",
"216 410 LINE",
"242 380 LINE",
"242 339 LINE",
"215 314 LINE",
"177 314 LINE",
"145 339 LINE",
"87 332 LINE",
"177 257 LINE",
"288 257 LINE",
"359 320 LINE",
"359 409 LINE"
);
}
);
width = 391;
},
{
layerId = "36D4513E-7F15-4625-822B-04E8DB781DDB";
leftMetricsKey = S;
rightMetricsKey = S;
name = Bold;
paths = (
{
closed = 1;
nodes = (
"341 286 LINE",
"201 335 LINE",
"187 351 LINE",
"187 371 LINE",
"199 384 LINE",
"235 383 LINE",
"242 375 LINE",
"332 383 LINE",
"255 456 LINE",
"94 456 LINE",
"30 388 LINE",
"30 312 LINE",
"70 239 LINE",
"222 180 LINE",
"231 170 LINE",
"231 128 LINE",
"216 117 LINE",
"188 117 LINE",
"178 128 LINE",
"178 182 LINE",
"26 182 LINE",
"26 81 LINE",
"120 0 LINE",
"289 0 LINE",
"394 92 LINE",
"394 214 LINE"
);
},
{
closed = 1;
nodes = (
"353 490 LINE",
"213 538 LINE",
"198 555 LINE",
"198 574 LINE",
"210 588 LINE",
"248 587 LINE",
"254 578 LINE",
"254 538 LINE",
"394 538 LINE",
"394 627 LINE",
"317 700 LINE",
"122 700 LINE",
"42 618 LINE",
"42 516 LINE",
"81 443 LINE",
"234 384 LINE",
"243 374 LINE",
"243 346 LINE",
"228 335 LINE",
"201 335 LINE",
"191 346 LINE",
"87 348 LINE",
"181 268 LINE",
"321 268 LINE",
"406 340 LINE",
"406 417 LINE"
);
}
);
width = 432;
}
);
leftKerningGroup = S;
leftMetricsKey = S;
rightKerningGroup = S;
rightMetricsKey = S;
unicode = 00A7;
},
{
glyphname = trademark;
lastChange = "2015-01-04 05:34:37 +0000";
layers = (
{
layerId = "D6DE3449-A573-450B-B2C8-FE4A922B890A";
name = Regular;
paths = (
{
closed = 1;
nodes = (
"144 700 LINE",
"11 700 LINE",
"5 657 LINE",
"50 659 LINE",
"50 490 LINE",
"105 490 LINE",
"105 659 LINE",
"150 657 LINE"
);
},
{
closed = 1;
nodes = (
"297 700 LINE",
"276 565 LINE",
"257 700 LINE",
"171 700 LINE",
"171 490 LINE",
"223 490 LINE",
"223 592 LINE",
"224 657 LINE",
"226 660 LINE",
"229 657 LINE",
"239 592 LINE",
"255 490 LINE",
"296 490 LINE",
"315 592 LINE",
"325 657 LINE",
"327 660 LINE",
"330 657 LINE",
"330 592 LINE",
"330 490 LINE",
"382 490 LINE",
"382 700 LINE"
);
}
);
width = 387;
},
{
layerId = "36D4513E-7F15-4625-822B-04E8DB781DDB";
leftMetricsKey = hyphen;
rightMetricsKey = hyphen;
name = Bold;
paths = (
{
closed = 1;
nodes = (
"198 700 LINE",
"17 700 LINE",
"8 640 LINE",
"63 643 LINE",
"63 477 LINE",
"153 477 LINE",
"153 643 LINE",
"208 640 LINE"
);
},
{
closed = 1;
nodes = (
"372 700 LINE",
"360 542 LINE",
"346 700 LINE",
"196 700 LINE",
"196 477 LINE",
"287 477 LINE",
"287 585 LINE",
"286 643 LINE",
"291 648 LINE",
"297 643 LINE",
"303 585 LINE",
"317 477 LINE",
"404 477 LINE",
"417 585 LINE",
"423 643 LINE",
"429 648 LINE",
"434 643 LINE",
"433 585 LINE",
"433 477 LINE",
"524 477 LINE",
"524 700 LINE"
);
}
);
width = 524;
}
);
leftKerningGroup = ast;
leftMetricsKey = hyphen;
rightKerningGroup = ast;
rightMetricsKey = hyphen;
unicode = 2122;
},
{
glyphname = degree;
lastChange = "2014-12-30 09:14:07 +0000";
layers = (
{
layerId = "D6DE3449-A573-450B-B2C8-FE4A922B890A";
name = Regular;
paths = (
{
closed = 1;
nodes = (
"5 611 LINE",
"5 471 LINE",
"108 382 LINE",
"188 382 LINE",
"188 476 LINE",
"161 476 LINE",
"120 512 LINE",
"120 576 LINE",
"161 611 LINE",
"188 611 LINE",
"188 700 LINE",
"108 700 LINE"
);
},
{
closed = 1;
nodes = (
"183 700 LINE",
"183 611 LINE",
"211 611 LINE",
"252 576 LINE",
"252 512 LINE",
"211 476 LINE",
"183 476 LINE",
"183 382 LINE",
"263 382 LINE",
"367 471 LINE",
"367 611 LINE",
"263 700 LINE"
);
}
);
width = 372;
},
{
layerId = "36D4513E-7F15-4625-822B-04E8DB781DDB";
leftMetricsKey = hyphen;
rightMetricsKey = hyphen;
name = Bold;
paths = (
{
closed = 1;
nodes = (
"8 591 LINE",
"8 470 LINE",
"132 360 LINE",
"220 360 LINE",
"210 485 LINE",
"192 485 LINE",
"161 514 LINE",
"161 552 LINE",
"192 580 LINE",
"210 580 LINE",
"220 700 LINE",
"132 700 LINE"
);
},
{
closed = 1;
nodes = (
"181 700 LINE",
"191 580 LINE",
"210 580 LINE",
"241 552 LINE",
"241 514 LINE",
"210 485 LINE",
"191 485 LINE",
"181 360 LINE",
"269 360 LINE",
"393 470 LINE",
"393 591 LINE",
"269 700 LINE"
);
}
);
width = 401;
}
);
leftKerningGroup = ast;
leftMetricsKey = hyphen;
rightKerningGroup = ast;
rightMetricsKey = hyphen;
unicode = 00B0;
},
{
glyphname = asciicircum;
lastChange = "2014-12-30 05:33:41 +0000";
layers = (
{
layerId = "D6DE3449-A573-450B-B2C8-FE4A922B890A";
rightMetricsKey = "=|";
name = Regular;
paths = (
{
closed = 1;
nodes = (
"79 428 LINE",
"149 591 LINE",
"149 700 LINE",
"128 700 LINE",
"0 445 LINE",
"0 428 LINE"
);
},
{
closed = 1;
nodes = (
"295 428 LINE",
"295 445 LINE",
"166 700 LINE",
"145 700 LINE",
"145 591 LINE",
"216 428 LINE"
);
}
);
width = 295;
},
{
layerId = "36D4513E-7F15-4625-822B-04E8DB781DDB";
rightMetricsKey = "=|";
name = Bold;
paths = (
{
closed = 1;
nodes = (
"112 431 LINE",
"156 535 LINE",
"156 700 LINE",
"126 700 LINE",
"-20 445 LINE",
"-20 431 LINE"
);
},
{
closed = 1;
nodes = (
"333 431 LINE",
"333 445 LINE",
"182 700 LINE",
"152 700 LINE",
"152 535 LINE",
"199 431 LINE"
);
}
);
width = 313;
}
);
leftKerningGroup = ast;
rightKerningGroup = ast;
rightMetricsKey = "=|";
unicode = 005E;
},
{
glyphname = dagger;
lastChange = "2014-12-30 09:14:07 +0000";
layers = (
{
layerId = "D6DE3449-A573-450B-B2C8-FE4A922B890A";
name = Regular;
paths = (
{
closed = 1;
nodes = (
"123 700 LINE",
"133 500 LINE",
"123 0 LINE",
"206 0 LINE",
"196 500 LINE",
"206 700 LINE"
);
},
{
closed = 1;
nodes = (
"5 470 LINE",
"323 470 LINE",
"259 521 LINE",
"69 521 LINE"
);
},
{
closed = 1;
nodes = (
"5 391 LINE",
"75 391 LINE",
"75 456 LINE",
"86 470 LINE",
"5 470 LINE"
);
},
{
closed = 1;
nodes = (
"253 456 LINE",
"253 391 LINE",
"323 391 LINE",
"323 470 LINE",
"241 470 LINE"
);
}
);
width = 328;
},
{
layerId = "36D4513E-7F15-4625-822B-04E8DB781DDB";
leftMetricsKey = hyphen;
rightMetricsKey = "=|";
name = Bold;
paths = (
{
closed = 1;
nodes = (
"142 700 LINE",
"156 500 LINE",
"142 0 LINE",
"313 0 LINE",
"299 500 LINE",
"313 700 LINE"
);
},
{
closed = 1;
nodes = (
"8 440 LINE",
"446 440 LINE",
"342 551 LINE",
"112 551 LINE"
);
},
{
closed = 1;
nodes = (
"8 371 LINE",
"128 371 LINE",
"128 426 LINE",
"139 440 LINE",
"8 440 LINE"
);
},
{
closed = 1;
nodes = (
"326 426 LINE",
"326 371 LINE",
"446 371 LINE",
"446 440 LINE",
"314 440 LINE"
);
}
);
width = 454;
}
);
leftMetricsKey = hyphen;
rightMetricsKey = "=|";
unicode = 2020;
},
{
glyphname = daggerdbl;
lastChange = "2014-12-30 09:14:07 +0000";
layers = (
{
layerId = "D6DE3449-A573-450B-B2C8-FE4A922B890A";
leftMetricsKey = hyphen;
rightMetricsKey = hyphen;
name = Regular;
paths = (
{
closed = 1;
nodes = (
"123 700 LINE",
"133 500 LINE",
"133 200 LINE",
"123 0 LINE",
"206 0 LINE",
"196 200 LINE",
"196 500 LINE",
"206 700 LINE"
);
},
{
closed = 1;
nodes = (
"69 521 LINE",
"5 470 LINE",
"5 391 LINE",
"75 391 LINE",
"75 456 LINE",
"86 470 LINE",
"241 470 LINE",
"253 456 LINE",
"253 391 LINE",
"323 391 LINE",
"323 470 LINE",
"259 521 LINE"
);
},
{
closed = 1;
nodes = (
"323 230 LINE",
"323 309 LINE",
"253 309 LINE",
"253 244 LINE",
"241 230 LINE",
"86 230 LINE",
"75 244 LINE",
"75 309 LINE",
"5 309 LINE",
"5 230 LINE",
"69 179 LINE",
"259 179 LINE"
);
}
);
width = 328;
},
{
layerId = "36D4513E-7F15-4625-822B-04E8DB781DDB";
name = Bold;
paths = (
{
closed = 1;
nodes = (
"142 700 LINE",
"156 500 LINE",
"156 200 LINE",
"142 0 LINE",
"313 0 LINE",
"299 200 LINE",
"299 500 LINE",
"313 700 LINE"
);
},
{
closed = 1;
nodes = (
"342 571 LINE",
"112 571 LINE",
"8 460 LINE",
"8 391 LINE",
"128 391 LINE",
"128 446 LINE",
"139 460 LINE",
"314 460 LINE",
"326 446 LINE",
"326 391 LINE",
"446 391 LINE",
"446 460 LINE"
);
},
{
closed = 1;
nodes = (
"446 311 LINE",
"326 311 LINE",
"326 256 LINE",
"314 242 LINE",
"139 242 LINE",
"128 256 LINE",
"128 311 LINE",
"8 311 LINE",
"8 242 LINE",
"112 131 LINE",
"342 131 LINE",
"446 242 LINE"
);
}
);
width = 454;
}
);
leftMetricsKey = hyphen;
rightMetricsKey = hyphen;
unicode = 2021;
},
{
glyphname = acute;
lastChange = "2015-01-03 18:32:04 +0000";
layers = (
{
anchors = (
{
name = _top;
position = "{309, 650}";
}
);
associatedMasterId = "D6DE3449-A573-450B-B2C8-FE4A922B890A";
layerId = "4BAE02AB-4CC8-488F-8796-B5F8BA9C01D7";
name = Light;
paths = (
{
closed = 1;
nodes = (
"389 967 LINE",
"276 756 LINE",
"300 756 LINE",
"411 967 LINE"
);
}
);
width = 600;
},
{
anchors = (
{
name = _top;
position = "{73, 700}";
}
);
layerId = "D6DE3449-A573-450B-B2C8-FE4A922B890A";
rightMetricsKey = "=|";
name = Regular;
paths = (
{
closed = 1;
nodes = (
"93 932 LINE",
"10 776 LINE",
"10 766 LINE",
"115 766 LINE",
"208 922 LINE",
"208 932 LINE"
);
}
);
width = 218;
},
{
anchors = (
{
name = _top;
position = "{93, 700}";
}
);
layerId = "36D4513E-7F15-4625-822B-04E8DB781DDB";
rightMetricsKey = "=|";
name = Bold;
paths = (
{
closed = 1;
nodes = (
"265 931 LINE SMOOTH",
"90 931 LINE",
"0 776 LINE",
"0 766 LINE",
"165 766 LINE",
"265 921 LINE"
);
}
);
width = 265;
},
{
anchors = (
{
name = _top;
position = "{309, 662}";
}
);
associatedMasterId = "D6DE3449-A573-450B-B2C8-FE4A922B890A";
layerId = "6225A2F5-E88B-4BB7-B51D-913DB7AB285E";
name = Light;
paths = (
{
closed = 1;
nodes = (
"373 966 LINE",
"258 756 LINE",
"321 756 LINE",
"433 966 LINE"
);
}
);
width = 600;
}
);
rightMetricsKey = "=|";
unicode = 00B4;
},
{
glyphname = breve;
lastChange = "2015-01-03 18:32:04 +0000";
layers = (
{
anchors = (
{
name = _top;
position = "{327, 650}";
}
);
associatedMasterId = "D6DE3449-A573-450B-B2C8-FE4A922B890A";
layerId = "4BAE02AB-4CC8-488F-8796-B5F8BA9C01D7";
name = Light;
paths = (
{
closed = 1;
nodes = (
"185 928 LINE",
"185 826 LINE",
"263 747 LINE",
"390 747 LINE",
"469 826 LINE",
"469 928 LINE",
"449 920 LINE",
"449 834 LINE",
"381 767 LINE",
"272 767 LINE",
"205 834 LINE",
"205 920 LINE"
);
}
);
width = 600;
},
{
anchors = (
{
name = _top;
position = "{163, 700}";
}
);
layerId = "D6DE3449-A573-450B-B2C8-FE4A922B890A";
name = Regular;
paths = (
{
closed = 1;
nodes = (
"36 932 LINE",
"36 847 LINE",
"105 778 LINE",
"221 778 LINE",
"290 847 LINE",
"290 932 LINE",
"199 906 LINE",
"199 871 LINE",
"173 846 LINE",
"153 846 LINE",
"126 871 LINE",
"126 906 LINE"
);
}
);
width = 326;
},
{
anchors = (
{
name = _top;
position = "{171, 700}";
}
);
layerId = "36D4513E-7F15-4625-822B-04E8DB781DDB";
rightMetricsKey = "=|";
name = Bold;
paths = (
{
closed = 1;
nodes = (
"12 959 LINE",
"12 845 LINE",
"82 778 LINE",
"260 778 LINE",
"329 845 LINE",
"329 959 LINE",
"192 913 LINE",
"192 896 LINE",
"178 884 LINE",
"167 884 LINE",
"152 896 LINE",
"152 913 LINE"
);
}
);
width = 341;
},
{
anchors = (
{
name = _top;
position = "{326, 650}";
}
);
associatedMasterId = "D6DE3449-A573-450B-B2C8-FE4A922B890A";
layerId = "6225A2F5-E88B-4BB7-B51D-913DB7AB285E";
name = Light;
paths = (
{
closed = 1;
nodes = (
"170 952 LINE",
"170 825 LINE",
"247 747 LINE",
"404 747 LINE",
"481 825 LINE",
"481 952 LINE",
"422 923 LINE",
"422 854 LINE",
"369 803 LINE",
"282 803 LINE",
"230 854 LINE",
"230 923 LINE"
);
}
);
width = 600;
}
);
rightMetricsKey = "=|";
unicode = 02D8;
},
{
glyphname = caron;
lastChange = "2015-01-04 05:46:19 +0000";
layers = (
{
anchors = (
{
name = _top;
position = "{309, 650}";
}
);
associatedMasterId = "D6DE3449-A573-450B-B2C8-FE4A922B890A";
layerId = "4BAE02AB-4CC8-488F-8796-B5F8BA9C01D7";
name = Light;
paths = (
{
closed = 1;
nodes = (
"409 967 LINE",
"308 779 LINE",
"207 967 LINE",
"186 967 LINE",
"296 756 LINE",
"320 756 LINE",
"431 967 LINE"
);
}
);
width = 600;
},
{
anchors = (
{
name = _top;
position = "{176, 700}";
}
);
layerId = "D6DE3449-A573-450B-B2C8-FE4A922B890A";
rightMetricsKey = "=|";
name = Regular;
paths = (
{
closed = 1;
nodes = (
"212 938 LINE",
"137 766 LINE",
"211 766 LINE",
"315 930 LINE SMOOTH",
"315 938 LINE"
);
},
{
closed = 1;
nodes = (
"29 930 LINE",
"133 766 LINE",
"207 766 LINE",
"131 938 LINE",
"29 938 LINE"
);
}
);
width = 344;
},
{
anchors = (
{
name = _top;
position = "{194, 700}";
}
);
layerId = "36D4513E-7F15-4625-822B-04E8DB781DDB";
rightMetricsKey = "=|";
name = Bold;
paths = (
{
closed = 1;
nodes = (
"227 939 LINE",
"149 766 LINE",
"263 766 LINE",
"378 930 LINE",
"378 939 LINE"
);
},
{
closed = 1;
nodes = (
"11 930 LINE",
"126 766 LINE",
"241 766 LINE",
"163 939 LINE",
"11 939 LINE"
);
}
);
width = 389;
},
{
anchors = (
{
name = _top;
position = "{309, 662}";
}
);
associatedMasterId = "D6DE3449-A573-450B-B2C8-FE4A922B890A";
layerId = "6225A2F5-E88B-4BB7-B51D-913DB7AB285E";
name = Light;
paths = (
{
closed = 1;
nodes = (
"399 966 LINE",
"308 799 LINE",
"217 966 LINE",
"158 966 LINE",
"271 756 LINE",
"346 756 LINE",
"459 966 LINE"
);
}
);
width = 600;
}
);
rightMetricsKey = "=|";
unicode = 02C7;
},
{
glyphname = dotaccent;
lastChange = "2015-01-09 05:33:53 +0000";
layers = (
{
anchors = (
{
name = _top;
position = "{329, 650}";
}
);
associatedMasterId = "D6DE3449-A573-450B-B2C8-FE4A922B890A";
layerId = "4BAE02AB-4CC8-488F-8796-B5F8BA9C01D7";
name = Light;
paths = (
{
closed = 1;
nodes = (
"311 833 LINE",
"289 812 LINE",
"289 779 LINE",
"311 757 LINE",
"346 757 LINE",
"368 779 LINE",
"368 812 LINE",
"346 833 LINE"
);
}
);
width = 600;
},
{
anchors = (
{
name = _top;
position = "{75, 700}";
}
);
components = (
{
name = period;
transform = "{1, 0, 0, 1, 0, 787}";
}
);
layerId = "D6DE3449-A573-450B-B2C8-FE4A922B890A";
leftMetricsKey = acute;
rightMetricsKey = "=|";
name = Regular;
width = 149;
},
{
anchors = (
{
name = _top;
position = "{88, 700}";
}
);
components = (
{
name = period;
transform = "{1, 0, 0, 1, -10, 787}";
}
);
layerId = "36D4513E-7F15-4625-822B-04E8DB781DDB";
name = Bold;
width = 182;
},
{
anchors = (
{
name = _top;
position = "{329, 650}";
}
);
associatedMasterId = "D6DE3449-A573-450B-B2C8-FE4A922B890A";
layerId = "6225A2F5-E88B-4BB7-B51D-913DB7AB285E";
name = Light;
paths = (
{
closed = 1;
nodes = (
"295 861 LINE",
"266 833 LINE",
"266 772 LINE",
"295 742 LINE",
"362 742 LINE",
"391 772 LINE",
"391 833 LINE",
"362 861 LINE"
);
}
);
width = 600;
}
);
leftMetricsKey = acute;
rightMetricsKey = "=|";
unicode = 02D9;
},
{
glyphname = macron;
lastChange = "2015-01-03 04:12:46 +0000";
layers = (
{
anchors = (
{
name = _top;
position = "{250, 650}";
}
);
associatedMasterId = "D6DE3449-A573-450B-B2C8-FE4A922B890A";
components = (
{
name = endash;
transform = "{1, 0, 0, 1, 0, 423}";
}
);
layerId = "4BAE02AB-4CC8-488F-8796-B5F8BA9C01D7";
name = Light;
width = 600;
},
{
anchors = (
{
name = _top;
position = "{199, 700}";
}
);
layerId = "D6DE3449-A573-450B-B2C8-FE4A922B890A";
leftMetricsKey = acute;
rightMetricsKey = "=|";
name = Regular;
paths = (
{
closed = 1;
nodes = (
"142 782 LINE",
"382 782 LINE",
"382 865 LINE",
"142 865 LINE"
);
},
{
closed = 1;
nodes = (
"10 782 LINE",
"260 782 LINE",
"260 865 LINE",
"10 865 LINE"
);
}
);
width = 392;
},
{
anchors = (
{
name = _top;
position = "{211, 700}";
}
);
layerId = "36D4513E-7F15-4625-822B-04E8DB781DDB";
name = Bold;
paths = (
{
closed = 1;
nodes = (
"146 778 LINE",
"416 778 LINE",
"416 909 LINE",
"146 909 LINE"
);
},
{
closed = 1;
nodes = (
"0 778 LINE",
"274 778 LINE",
"274 909 LINE",
"0 909 LINE"
);
}
);
width = 416;
},
{
anchors = (
{
name = _top;
position = "{250, 659}";
}
);
associatedMasterId = "D6DE3449-A573-450B-B2C8-FE4A922B890A";
components = (
{
name = endash;
transform = "{1, 0, 0, 1, 0, 423}";
}
);
layerId = "6225A2F5-E88B-4BB7-B51D-913DB7AB285E";
name = Light;
width = 600;
}
);
leftMetricsKey = acute;
rightMetricsKey = "=|";
unicode = 00AF;
},
{
glyphname = ogonek;
lastChange = "2015-01-02 06:15:59 +0000";
layers = (
{
anchors = (
{
name = _ogonek;
position = "{378, 0}";
},
{
name = _top;
position = "{331, -295}";
}
);
associatedMasterId = "D6DE3449-A573-450B-B2C8-FE4A922B890A";
layerId = "4BAE02AB-4CC8-488F-8796-B5F8BA9C01D7";
name = Light;
paths = (
{
closed = 1;
nodes = (
"379 0 LINE",
"286 0 LINE",
"224 -63 LINE",
"224 -160 LINE",
"286 -223 LINE",
"375 -223 LINE",
"440 -158 LINE",
"420 -149 LINE",
"367 -203 LINE",
"294 -203 LINE",
"244 -152 LINE",
"244 -70 LINE",
"294 -20 LINE",
"370 -20 LINE"
);
}
);
width = 600;
},
{
anchors = (
{
name = _ogonek;
position = "{191, 0}";
},
{
name = _top;
position = "{116, -302}";
}
);
layerId = "D6DE3449-A573-450B-B2C8-FE4A922B890A";
rightMetricsKey = "=|";
name = Regular;
paths = (
{
closed = 1;
nodes = (
"190 0 LINE",
"63 0 LINE",
"9 -55 LINE",
"9 -167 LINE",
"63 -222 LINE",
"189 -222 LINE",
"244 -167 LINE",
"168 -127 LINE",
"146 -151 LINE",
"108 -151 LINE",
"88 -132 LINE",
"88 -90 LINE",
"108 -70 LINE",
"126 -70 LINE"
);
}
);
width = 253;
},
{
anchors = (
{
name = _ogonek;
position = "{232, 0}";
},
{
name = _top;
position = "{470, -299}";
}
);
layerId = "36D4513E-7F15-4625-822B-04E8DB781DDB";
name = Bold;
paths = (
{
closed = 1;
nodes = (
"233 0 LINE",
"57 0 LINE",
"0 -56 LINE",
"0 -210 LINE",
"57 -266 LINE",
"237 -266 LINE",
"293 -210 LINE",
"182 -142 LINE",
"166 -159 LINE",
"141 -159 LINE",
"125 -144 LINE",
"125 -121 LINE",
"141 -105 LINE",
"141 -105 LINE"
);
}
);
width = 293;
},
{
anchors = (
{
name = _ogonek;
position = "{385, 0}";
},
{
name = _top;
position = "{330, -297}";
}
);
associatedMasterId = "D6DE3449-A573-450B-B2C8-FE4A922B890A";
layerId = "6225A2F5-E88B-4BB7-B51D-913DB7AB285E";
name = Light;
paths = (
{
closed = 1;
nodes = (
"387 0 LINE",
"276 0 LINE",
"217 -60 LINE",
"217 -169 LINE",
"276 -229 LINE",
"384 -229 LINE",
"445 -168 LINE",
"400 -146 LINE",
"360 -187 LINE",
"301 -187 LINE",
"262 -148 LINE",
"262 -80 LINE",
"301 -41 LINE",
"362 -41 LINE"
);
}
);
width = 600;
}
);
rightMetricsKey = "=|";
unicode = 02DB;
},
{
glyphname = ring;
lastChange = "2015-01-03 18:32:02 +0000";
layers = (
{
anchors = (
{
name = _top;
position = "{331, 650}";
}
);
associatedMasterId = "D6DE3449-A573-450B-B2C8-FE4A922B890A";
layerId = "4BAE02AB-4CC8-488F-8796-B5F8BA9C01D7";
name = Light;
paths = (
{
closed = 1;
nodes = (
"285.743 948 LINE",
"224 885.228 LINE",
"224 787.772 LINE",
"285.743 725 LINE",
"375.243 725 LINE",
"438 787.757 LINE",
"438 885.243 LINE",
"375.243 948 LINE"
);
},
{
closed = 1;
nodes = (
"418 877.741 LINE",
"418 796.243 LINE",
"366.757 745 LINE",
"294.259 745 LINE",
"244 796.226 LINE",
"244 877.757 LINE",
"294.243 928 LINE",
"366.774 928 LINE"
);
}
);
width = 600;
},
{
anchors = (
{
name = _top;
position = "{121, 650}";
}
);
layerId = "D6DE3449-A573-450B-B2C8-FE4A922B890A";
name = Regular;
paths = (
{
closed = 1;
nodes = (
"64 928 LINE",
"10 874 LINE",
"10 767 LINE",
"64 712 LINE",
"179 712 LINE",
"233 767 LINE",
"233 874 LINE",
"179 928 LINE"
);
},
{
closed = 1;
nodes = (
"155 840 LINE",
"155 802 LINE",
"136 784 LINE",
"107 784 LINE",
"89 802 LINE",
"89 840 LINE",
"107 858 LINE",
"136 858 LINE"
);
}
);
width = 243;
},
{
anchors = (
{
name = _top;
position = "{124, 650}";
}
);
layerId = "36D4513E-7F15-4625-822B-04E8DB781DDB";
leftMetricsKey = acute;
rightMetricsKey = "=|";
name = Bold;
paths = (
{
closed = 1;
nodes = (
"51 939 LINE",
"0 888 LINE",
"0 758 LINE",
"51 707 LINE",
"198 707 LINE",
"249 758 LINE",
"249 888 LINE",
"198 939 LINE"
);
},
{
closed = 1;
nodes = (
"145 835 LINE",
"145 811 LINE",
"134 800 LINE",
"117 800 LINE",
"104 811 LINE",
"104 835 LINE",
"117 847 LINE",
"134 847 LINE"
);
}
);
width = 249;
},
{
anchors = (
{
name = _top;
position = "{330, 650}";
}
);
associatedMasterId = "D6DE3449-A573-450B-B2C8-FE4A922B890A";
layerId = "6225A2F5-E88B-4BB7-B51D-913DB7AB285E";
name = Light;
paths = (
{
closed = 1;
nodes = (
"275 948 LINE",
"217 889 LINE",
"217 779 LINE",
"275 719 LINE",
"384 719 LINE",
"443 779 LINE",
"443 889 LINE",
"384 948 LINE"
);
},
{
closed = 1;
nodes = (
"398 868 LINE",
"398 801 LINE",
"359 762 LINE",
"301 762 LINE",
"262 801 LINE",
"262 868 LINE",
"300.996 907 LINE",
"359 907 LINE"
);
}
);
width = 600;
}
);
leftMetricsKey = acute;
rightMetricsKey = "=|";
unicode = 02DA;
},
{
glyphname = tilde;
lastChange = "2015-01-03 04:12:06 +0000";
layers = (
{
anchors = (
{
name = _bottom;
position = "{165, 1055}";
},
{
name = _top;
position = "{295, 650}";
}
);
associatedMasterId = "D6DE3449-A573-450B-B2C8-FE4A922B890A";
layerId = "4BAE02AB-4CC8-488F-8796-B5F8BA9C01D7";
name = Light;
paths = (
{
closed = 1;
nodes = (
"110 902 LINE",
"31 823 LINE",
"31 736 LINE",
"51 736 LINE",
"51 815 LINE",
"119 882 LINE",
"228 882 LINE",
"373 735 LINE",
"500 735 LINE",
"579 814 LINE",
"579 901 LINE",
"559 901 LINE",
"559 822 LINE",
"491 755 LINE",
"382 755 LINE",
"237 902 LINE"
);
}
);
width = 600;
},
{
anchors = (
{
name = _top;
position = "{185, 700}";
}
);
layerId = "D6DE3449-A573-450B-B2C8-FE4A922B890A";
leftMetricsKey = acute;
rightMetricsKey = "=|";
name = Regular;
paths = (
{
closed = 1;
nodes = (
"73 947 LINE",
"10 884 LINE",
"10 785 LINE",
"108 785 LINE",
"108 843 LINE",
"132 867 LINE",
"151 867 LINE",
"185 785 LINE",
"288 785 LINE",
"351 847 LINE",
"351 947 LINE",
"252 947 LINE",
"252 888 LINE",
"229 865 LINE",
"212 865 LINE",
"178 947 LINE"
);
}
);
width = 361;
},
{
anchors = (
{
name = _top;
position = "{209, 700}";
}
);
layerId = "36D4513E-7F15-4625-822B-04E8DB781DDB";
name = Bold;
paths = (
{
closed = 1;
nodes = (
"75 953 LINE",
"0 878 LINE",
"0 756 LINE",
"145 756 LINE",
"145 831 LINE",
"161 846 LINE",
"176 846 LINE",
"223 756 LINE",
"349 756 LINE",
"424 831 LINE",
"424 953 LINE",
"280 953 LINE",
"280 878 LINE",
"264 863 LINE",
"249 863 LINE",
"202 953 LINE"
);
}
);
width = 424;
},
{
anchors = (
{
name = _bottom;
position = "{172, 1064}";
},
{
name = _top;
position = "{297, 650}";
}
);
associatedMasterId = "D6DE3449-A573-450B-B2C8-FE4A922B890A";
layerId = "6225A2F5-E88B-4BB7-B51D-913DB7AB285E";
name = Light;
paths = (
{
closed = 1;
nodes = (
"100 911 LINE",
"22 833 LINE",
"22 727 LINE",
"81 727 LINE",
"81 805 LINE",
"134 856 LINE",
"221 856 LINE",
"350 726 LINE",
"506 726 LINE",
"585 804 LINE",
"585 910 LINE",
"525 910 LINE",
"525 833 LINE",
"473 782 LINE",
"385 782 LINE",
"256 911 LINE"
);
}
);
width = 600;
}
);
leftMetricsKey = acute;
rightMetricsKey = "=|";
unicode = 02DC;
},
